<?xml version="1.0" encoding="utf-8"?>
<!-- Generator: Adobe Illustrator 26.1.0, SVG Export Plug-In . SVG Version: 6.00 Build 0)  -->
<svg version="1.1" id="Layer_1" xmlns="http://www.w3.org/2000/svg" xmlns:xlink="http://www.w3.org/1999/xlink" x="0px" y="0px"
	 viewBox="0 0 107.2 101.9" style="enable-background:new 0 0 107.2 101.9;" xml:space="preserve">
<style type="text/css">
	.st0{fill:url(#SVGID_1_);}
	.st1{fill:url(#SVGID_00000044144348036490408770000009460281246948333722_);}
	.st2{fill:url(#SVGID_00000120545068806069175290000006757111083390031265_);}
</style>
<g>
	<linearGradient id="SVGID_1_" gradientUnits="userSpaceOnUse" x1="21.1622" y1="92.2777" x2="79.5944" y2="8.8279">
		<stop  offset="1.598337e-07" style="stop-color:#8D72D1"/>
		<stop  offset="1" style="stop-color:#D4CAEE"/>
	</linearGradient>
	<path class="st0" d="M25.2,7c4.8-2.8,10.2-4.9,16-6.1C44.5,0.3,47.8,0,51,0c23.9,0,45.2,16.9,49.9,41.2c0.8,4.2,1.1,8.3,0.9,12.4
		c-2.4-2.3-5.3-3.9-8.2-5c-0.1-1.9-0.3-3.9-0.7-5.8C89,22.7,71.4,8.2,51,8.2h0h0c-2.7,0-5.5,0.3-8.2,0.8c-3.4,0.7-6.7,1.7-9.7,3.1
		L25.2,7z M66.1,90.9c-2.2,0.8-4.6,1.5-7,2c-2.7,0.5-5.5,0.8-8.2,0.8c-20.4,0-38-14.6-41.9-34.6c-0.5-2.7-0.8-5.5-0.8-8.2l-7.9-5.1
		c0,0,0,0-0.1,0c-0.5,4.9-0.3,9.9,0.7,14.9C5.7,85,27,101.9,50.9,101.9c3.2,0,6.5-0.3,9.8-0.9c4.8-0.9,9.2-2.5,13.3-4.6
		C71.3,95.3,68.7,93.6,66.1,90.9z"/>
	<g>
		
			<radialGradient id="SVGID_00000081613711304927609980000015066522733254424999_" cx="94.5935" cy="78.4078" r="32.4288" gradientUnits="userSpaceOnUse">
			<stop  offset="1.704893e-07" style="stop-color:#250B35"/>
			<stop  offset="0.2715" style="stop-color:#260C38"/>
			<stop  offset="0.4348" style="stop-color:#2B1040"/>
			<stop  offset="0.5695" style="stop-color:#32174E"/>
			<stop  offset="0.6886" style="stop-color:#3D2062"/>
			<stop  offset="0.7974" style="stop-color:#4A2D7D"/>
			<stop  offset="0.8986" style="stop-color:#5B3C9D"/>
			<stop  offset="0.9924" style="stop-color:#6E4DC3"/>
			<stop  offset="1" style="stop-color:#704FC6"/>
		</radialGradient>
		<path style="fill:url(#SVGID_00000081613711304927609980000015066522733254424999_);" d="M87.7,77.6c-0.6,0.3-1.2,0.4-2,0.4
			c-1.8-0.1-3.3-1.2-3.9-2.9c-0.8-2.4,0.6-5.1,3.2-5.6c1.8-0.4,3.7,0.5,4.6,2.1c0.4,0.7,0.6,1.4,0.6,2.2c0,0.3,0.2,0.6,0.4,0.8
			l14.9,9.9c0.6,0.4,1.4,0,1.5-0.7c0.3-2.6-1.6-4.5-2.8-6.2c-1.6-2.3-4.6-9-7.6-14.4c-3-5.4-11.7-6.6-15.7-7.5
			c-4-0.8-10.5,2.3-13.1,6.6c-2.2,3.7-3.6,8.9,1.8,17.4c5.4,8.5,9.7,8.8,16.9,8.8c7.2,0,11.2,1.7,13.6,1.7c1.8,0,2.1,0.4,3.5-1
			c0.4-0.4,0.3-1.2-0.2-1.5l-14.9-9.9C88.4,77.4,88.1,77.4,87.7,77.6z"/>
		
			<linearGradient id="SVGID_00000174595327875505251250000015775479461754722993_" gradientUnits="userSpaceOnUse" x1="1399.334" y1="-2816.6104" x2="1400.5764" y2="-2744.2493" gradientTransform="matrix(0.5444 -0.8388 0.8388 0.5444 1607.0458 2730.1086)">
			<stop  offset="0" style="stop-color:#6446B0"/>
			<stop  offset="0.2035" style="stop-color:#704FC6"/>
			<stop  offset="0.2359" style="stop-color:#7150C7"/>
			<stop  offset="0.6132" style="stop-color:#7C5CCE"/>
			<stop  offset="1" style="stop-color:#7F60D1"/>
		</linearGradient>
		<path style="fill:url(#SVGID_00000174595327875505251250000015775479461754722993_);" d="M19.4,15.1l19.1,12.4
			c-0.8-0.5-2-0.4-2.5,0.4c-0.6,0.9-0.4,2,0.5,2.6l3.7,2.4c0.9,0.6,1.2,1.8,0.6,2.8c-0.6,1-1.9,1.2-2.9,0.6c-1.8-1.2-5.9-3.8-7.6-5
			c-0.9-0.6-2.1-0.4-2.7,0.5c-0.7,0.9-0.4,2.2,0.5,2.8L42.7,44c0.8,0.5,1.1,1.6,0.6,2.5c-0.5,0.9-1.7,1.2-2.6,0.6l-6.8-4.4
			c-0.8-0.5-1.9-0.3-2.5,0.5c-0.5,0.8-0.3,1.8,0.5,2.4l3.3,2.1c0.8,0.5,1,1.6,0.5,2.3c-0.5,0.8-1.6,1-2.3,0.5L27,46.4
			c-0.9-0.6-2.2-0.4-2.8,0.6c-0.7,1-0.3,2.3,0.6,2.9L5.7,37.5c-1-0.6-1.3-2-0.6-2.9C5.7,33.6,7,33.4,7.9,34l6.5,4.2
			c0.8,0.5,1.8,0.3,2.3-0.5c0.5-0.8,0.3-1.8-0.5-2.3l-3.3-2.1c-0.8-0.5-1-1.6-0.5-2.4c0.5-0.8,1.6-1,2.5-0.5l6.8,4.4
			c0.9,0.6,2.1,0.3,2.6-0.6c0.5-0.9,0.2-2-0.6-2.5L9,22.2c-0.9-0.6-1.2-1.9-0.5-2.8c0.6-0.9,1.8-1,2.7-0.5c1.8,1.2,5.9,3.8,7.6,5
			c0.9,0.6,2.3,0.4,2.9-0.6c0.6-0.9,0.3-2.2-0.6-2.8l-3.7-2.4c-0.9-0.6-1.1-1.8-0.5-2.6C17.4,14.7,18.6,14.5,19.4,15.1z M37.4,55.5
			c0.6-0.9,1.9-1.2,2.8-0.6l6.5,4.2c0.8,0.5,1.8,0.3,2.3-0.5c0.5-0.8,0.3-1.8-0.5-2.3l-3.3-2.1c-0.8-0.5-1-1.6-0.5-2.4
			c0.5-0.8,1.6-1,2.5-0.5l6.8,4.4c0.9,0.6,2.1,0.3,2.6-0.6c0.5-0.9,0.2-2-0.6-2.5l-7.5-4.9c0.8,0.5,1.1,1.6,0.6,2.5
			c-0.5,0.9-1.7,1.2-2.6,0.6l-6.8-4.4c-0.8-0.5-1.9-0.3-2.5,0.5c-0.5,0.8-0.3,1.8,0.5,2.4l3.3,2.1c0.8,0.5,1,1.6,0.5,2.3
			c-0.5,0.8-1.6,1-2.3,0.5l-6.5-4.2c-0.9-0.6-2.2-0.4-2.8,0.6c-0.7,1-0.3,2.3,0.6,2.9l7.5,4.9C37,57.8,36.7,56.5,37.4,55.5z
			 M40.7,40.3c0.6-0.9,1.8-1,2.7-0.5c-1.8-1.2-5.8-3.8-7.5-4.9c-0.9-0.6-2.1-0.4-2.7,0.5c-0.7,0.9-0.4,2.2,0.5,2.8l7.5,4.9
			C40.3,42.5,40,41.2,40.7,40.3z M41.6,31.6c-0.6,0.9-0.4,2,0.5,2.6l3.7,2.4c0.9,0.6,1.2,1.8,0.6,2.8c-0.6,1-1.9,1.2-2.9,0.6
			c1.8,1.2,5.8,3.8,7.5,4.9c0.9,0.6,2.3,0.4,2.9-0.6c0.6-0.9,0.3-2.2-0.6-2.8l-3.7-2.4c-0.9-0.6-1.1-1.8-0.5-2.6
			c0.6-0.8,1.7-1,2.5-0.4l-7.5-4.9C43.3,30.6,42.2,30.8,41.6,31.6z M54.6,40c-0.6,0.9-0.4,2,0.5,2.6l3.7,2.4
			c0.9,0.6,1.2,1.8,0.6,2.8c-0.6,1-1.9,1.2-2.9,0.6c-1.8-1.2-5.9-3.8-7.6-5c-0.9-0.6-2.1-0.4-2.7,0.5c-0.7,0.9-0.4,2.2,0.5,2.8
			l0.4,0.3l14.2,9.2c0.8,0.5,1.1,1.6,0.6,2.5c-0.5,0.9-1.7,1.2-2.6,0.6l-6.8-4.4c-0.8-0.5-1.9-0.3-2.5,0.5c-0.5,0.8-0.3,1.8,0.5,2.4
			l3.3,2.1c0.8,0.5,1,1.6,0.5,2.3c-0.5,0.8-1.6,1-2.3,0.5l-6.5-4.2c-0.9-0.6-2.2-0.4-2.8,0.6c-0.7,1-0.3,2.3,0.6,2.9L59,72.1
			c0.1,0,0.4,0.3,0.8,0.2c0.4-0.1,0.7-0.4,0.7-0.5c-0.1-0.3-0.2-0.8-0.3-1.5c-0.4-2.4,0-4.3,0.2-5.4c0.9-4.4,3.4-7.7,4-8.4
			c0,0,3.5-4.4,7.3-5.3c0.5-0.1,1.9-0.1,2-0.1c0,0,0,0,0,0c0.1,0,0.2,0,0.3-0.1l0.1-0.1c0.1-0.1,0-0.3-0.1-0.4L57.1,39.6
			C56.3,39,55.2,39.2,54.6,40z M10.1,27.4l-1.5-1c-0.8-0.5-1.9-0.3-2.4,0.5l0,0c-0.5,0.8-0.3,1.9,0.5,2.4l1.5,1
			c0.8,0.5,1.9,0.3,2.4-0.5l0,0C11.2,29,10.9,27.9,10.1,27.4z"/>
	</g>
</g>
</svg>
