<?xml version="1.0" encoding="utf-8"?>
<!-- Generator: Adobe Illustrator 26.1.0, SVG Export Plug-In . SVG Version: 6.00 Build 0)  -->
<svg version="1.1" id="Layer_1" xmlns="http://www.w3.org/2000/svg" xmlns:xlink="http://www.w3.org/1999/xlink" x="0px" y="0px"
	 viewBox="0 0 107.7 101.9" style="enable-background:new 0 0 107.7 101.9;" xml:space="preserve">
<style type="text/css">
	.st0{fill:url(#SVGID_1_);}
	.st1{fill:url(#SVGID_00000013880926840578671070000010988366680798838405_);}
	.st2{fill:url(#SVGID_00000022522017941398165230000010699518590094476470_);}
</style>
<g>
	<linearGradient id="SVGID_1_" gradientUnits="userSpaceOnUse" x1="29.3833" y1="93.9517" x2="87.8271" y2="10.4852">
		<stop  offset="1.598337e-07" style="stop-color:#8D72D1"/>
		<stop  offset="1" style="stop-color:#D4CAEE"/>
	</linearGradient>
	<path class="st0" d="M77.7,97.4c-6.4,2.9-13.5,4.5-20.9,4.5c-2.9,0-5.9-0.3-8.9-0.8C26.2,97.3,10.2,80.2,6.6,59.7
		c0.6-0.4,1.2-0.8,1.7-1.4l2.7-2.7l3.7,2.4c2.9,17.3,16.4,31.8,34.7,35c2.5,0.4,5,0.7,7.5,0.7c3.9,0,7.7-0.5,11.3-1.5l4.6,3
		C74.3,96.1,76,96.9,77.7,97.4z M42.4,5.3l-1,2.8l3,1.9c3.9-1.2,8.1-1.8,12.3-1.8h0c2.5,0,5,0.2,7.5,0.7c11.2,2,21,8.2,27.6,17.6
		c4.1,5.9,6.7,12.6,7.5,19.6l3.7,2.4c1.8,1.2,3.4,2.7,4.7,4.4c1-25-16.7-47.6-42-52.1c-3-0.5-6-0.8-8.9-0.8c-4.7,0-9.2,0.7-13.6,1.9
		C43.1,3,42.9,4.2,42.4,5.3z"/>
	<g>
		
			<linearGradient id="SVGID_00000170240775451862229460000014178588420505930890_" gradientUnits="userSpaceOnUse" x1="27.7954" y1="32.8373" x2="105.7352" y2="83.452">
			<stop  offset="0" style="stop-color:#704FC6"/>
			<stop  offset="7.579564e-03" style="stop-color:#6E4DC3"/>
			<stop  offset="0.1014" style="stop-color:#5B3C9D"/>
			<stop  offset="0.2026" style="stop-color:#4A2D7D"/>
			<stop  offset="0.3114" style="stop-color:#3D2062"/>
			<stop  offset="0.4305" style="stop-color:#32174E"/>
			<stop  offset="0.5652" style="stop-color:#2B1040"/>
			<stop  offset="0.7285" style="stop-color:#260C38"/>
			<stop  offset="1" style="stop-color:#250B35"/>
		</linearGradient>
		<path style="fill:url(#SVGID_00000170240775451862229460000014178588420505930890_);" d="M103.1,85c2.3-0.4,3.8-2.7,3.2-5
			l-5.3-18.6c-0.5-1.9-1.8-3.6-3.4-4.7L37.5,17.9l-7.2,16.7L18.1,47.9l60.1,38.9c1.7,1.1,3.7,1.5,5.8,1.2L103.1,85z M39.6,26.4
			l0.4-1l53,34.3l-3,4.6L37.9,30.5L39.6,26.4z M34.5,37.2C34.5,37.2,34.5,37.2,34.5,37.2l0.9-2.3l51.9,33.6l-2.8,4.3L32.7,39.2
			L34.5,37.2z M79.2,81.1l-0.4-0.2L26,46.6l3.4-3.4l52.4,33.9L79.2,81.1z M95.4,81.9l-10.9,1.3l12.7-19.5l3,10.9L95.4,81.9z"/>
		
			<linearGradient id="SVGID_00000072967699742315637020000003311041056350102934_" gradientUnits="userSpaceOnUse" x1="189.6628" y1="-1048.5981" x2="190.6553" y2="-1029.1913" gradientTransform="matrix(0.5436 -0.8394 0.8394 0.5436 787.2704 751.7165)">
			<stop  offset="0" style="stop-color:#6446B0"/>
			<stop  offset="0.5057" style="stop-color:#704FC6"/>
			<stop  offset="0.5258" style="stop-color:#7150C7"/>
			<stop  offset="0.76" style="stop-color:#7C5CCE"/>
			<stop  offset="1" style="stop-color:#7F60D1"/>
		</linearGradient>
		<path style="fill:url(#SVGID_00000072967699742315637020000003311041056350102934_);" d="M32,1.1l-21,20.3
			c-0.1,0.1-0.1,0.2-0.2,0.3L0,50.6c-0.1,0.3,0,0.7,0.3,0.8c0.3,0.2,0.7,0.1,0.9-0.1l8.4-8.4l4.9,3.2L27,32.4l7.4-17.1l-5-3.3
			l3.8-10.2c0.1-0.3,0-0.7-0.3-0.8C32.6,0.8,32.2,0.8,32,1.1z"/>
	</g>
</g>
</svg>
