<?xml version="1.0" encoding="utf-8"?>
<!-- Generator: Adobe Illustrator 26.1.0, SVG Export Plug-In . SVG Version: 6.00 Build 0)  -->
<svg version="1.1" id="Layer_1" xmlns="http://www.w3.org/2000/svg" xmlns:xlink="http://www.w3.org/1999/xlink" x="0px" y="0px"
	 viewBox="0 0 281.7 229.3" style="enable-background:new 0 0 281.7 229.3;" xml:space="preserve">
<style type="text/css">
	.st0{fill:url(#SVGID_1_);}
	.st1{fill:#250B35;}
	.st2{fill:#704FC6;}
	.st3{fill:url(#SVGID_00000152245598630368534600000006016588116296335549_);}
	.st4{fill:url(#SVGID_00000139987005595215565640000012295949620566598287_);}
	.st5{fill:url(#SVGID_00000157289664450130274400000013565642730272058528_);}
	.st6{fill:url(#SVGID_00000131326237009339822810000015755574004789708932_);}
	.st7{fill:url(#SVGID_00000051355457053281697370000011262485150132926104_);}
</style>
<g>
	<linearGradient id="SVGID_1_" gradientUnits="userSpaceOnUse" x1="74.5977" y1="208.5139" x2="206.0613" y2="20.7645">
		<stop  offset="1.598337e-07" style="stop-color:#8D72D1"/>
		<stop  offset="1" style="stop-color:#D4CAEE"/>
	</linearGradient>
	<path class="st0" d="M45.5,50.3C66.2,20,101,0,140.3,0c39.5,0,74.4,20.1,95,50.5c-1.1-0.1-2.1-0.2-2.8-0.2
		c-2.9-0.2-5.5-0.3-7.8,0.1c-19.4-25.4-50-41.9-84.4-41.9c-34,0-64.4,16.1-83.8,41.1c-3.5-0.1-7,0.1-10,0.5
		C46.2,50.2,45.9,50.2,45.5,50.3z M235.1,178.6c-2.6,0.4-5.6,0.5-8.7,0.5c-0.6,0-1.3,0-1.9,0c-19.4,25.3-49.9,41.6-84.2,41.6
		c-34.6,0-65.3-16.6-84.7-42.3c-0.7,0.1-1.4,0.1-2.1,0.1c-1.4,0-2.8-0.1-4.4-0.2c-1-0.1-2.6-0.2-4.3-0.4
		c20.6,30.9,55.7,51.2,95.5,51.2c39.6,0,74.5-20.1,95.1-50.7C235.3,178.6,235.2,178.6,235.1,178.6z"/>
	<g>
		<g>
			<path id="Circle_Top_-_Black_00000071524710771540893480000011776070842145078435_" class="st1" d="M222.1,144.3
				c-4.1-0.6-7.8-1.9-8.1-2.2c-0.1,0,0.2-0.2,0.5-0.9c3.2-8.5,4.6-16.6,4.6-26.5c0-14.9-3.8-28.5-11.4-41.2
				c-5.9-9.7-15.3-19.2-25.4-25.5c-6.8-4.3-15.8-8-23.7-9.7c-6.7-1.5-9.3-1.8-17.8-1.7c-6.7,0-8.3,0.1-11.2,0.6
				c-9.3,1.5-16.1,3.6-23.6,7.4c-8.1,4.1-14,8.3-20.6,14.8L82,62.6l-4.2-1.9c-3.5-1.1-3.9-1.3-9.2-2.6c-1.5-0.4-3.3-0.5-3.4-0.5
				c-0.2-0.2,4-5.2,7.8-9.2c2.2-2.3,7.6-7.1,10.9-9.5c4.2-3.2,6.3-4.6,10.2-6.7C113,21.4,135.2,17.4,156.2,21
				c13.6,2.3,24.9,6.7,36.5,14.3c20.9,13.6,36,35.6,41,60c1.6,7.8,1.9,10.4,1.8,19.6c0,8.9-0.2,11-1.7,18.9
				c-0.8,4-2.9,10.2-2.9,10.2s-0.7,0.6-3.9,0.7C225,144.6,222.9,144.4,222.1,144.3z"/>
			<path id="Circle_Top_-_Black_00000129169741564428918900000003399578541908089783_" class="st1" d="M59.5,84.4
				c4.1,0.6,7.8,1.9,8.1,2.2c0.1,0-0.2,0.2-0.5,0.9C64,96,62.6,104.2,62.6,114c0,14.9,3.8,28.5,11.4,41.2
				c5.9,9.7,15.3,19.2,25.4,25.5c6.8,4.3,15.8,8,23.7,9.7c6.7,1.5,9.3,1.8,17.8,1.7c6.7,0,8.3-0.1,11.2-0.6
				c9.3-1.5,16.1-3.6,23.6-7.4c8.1-4.1,14-8.3,20.6-14.8l3.4-3.4l4.2,1.9c3.5,1.1,3.9,1.3,9.2,2.6c1.5,0.4,3.3,0.5,3.4,0.5
				c0.2,0.2-4,5.2-7.8,9.2c-2.2,2.3-7.6,7.1-10.9,9.5c-4.2,3.2-6.3,4.6-10.2,6.7c-18.9,10.8-41.1,14.8-62.1,11.2
				c-13.6-2.3-24.9-6.7-36.5-14.3c-20.9-13.6-36-35.6-41-60c-1.6-7.8-1.9-10.4-1.8-19.6c0-8.9,0.2-11,1.7-18.9
				c0.8-4,2.9-10.2,2.9-10.2s0.7-0.6,3.9-0.7C56.7,84.1,58.8,84.3,59.5,84.4z"/>
		</g>
		<g>
			<path class="st2" d="M83.7,159.9c0.3,0,4.7-1.9,7.3-3.2c11.9-5.7,24.5-13.9,45.9-29.8c20.5-15.2,20.6-15.4,24.8-18.2
				c17.1-11.9,29.7-19.1,41.8-23.7c1.6-0.6,3.2-1.1,3.4-1.1c0.3,0,0.1-0.6-1-2.7c-1.8-3.4-3.4-6.1-5.8-9.3l-1.9-2.6l-1.1,0.5
				c-0.6,0.3-2.6,1.1-4.4,1.9c-15.7,6.6-34.2,18.4-63.1,40.3c-9.5,7.2-12.3,9.3-17.2,12.8c-13,9.3-24.6,16.2-34.4,20.1l-2.6,1
				l0.5,1.3c1.4,2.9,4.1,8.2,6.6,11.5C83.2,159.3,83.7,159.9,83.7,159.9z"/>
			<g>
				<path class="st2" d="M54.8,165.8c0,0-0.7-1.1-1.3-2.1c-1.4-2.5-3.8-7.9-5.4-11.5c-0.7-1.7-1.2-3.2-1.4-3.3s-1.4-0.4-2.8-0.7
					c-12.7-2.9-22.5-12.1-25.9-24.2c-1.1-3.8-1.3-5.5-1.2-9.9c0-6.1,1-9.8,3.7-15.1c1.5-2.9,3.4-5.4,6.5-8.3
					c3.4-3.3,6.3-5.4,10.4-7.3c5.7-2.8,10-3.9,15.7-4.1c6.7-0.3,11.4,0.5,18.4,2.8c8.8,2.9,18.4,8.1,31.2,16.7
					c4.9,3.3,8.1,5.6,17,11.9l1.5,1.1l0.7-0.5c0.4-0.3,2.6-1.9,5-3.7c2.4-1.8,5.1-3.8,6.1-4.5c1-0.7,1.7-1.3,1.7-1.4
					c0-0.1-2-1.6-4.5-3.4c-16.8-12.4-29.5-20.6-40.5-26.2c-5.8-2.9-8.1-3.9-13-5.6c-4.6-1.6-4.8-1.6-10-2.8
					c-4.9-1.1-13-1.4-18.4-0.7c-6.5,0.9-11.9,2.7-18.2,5.8c-4.2,2.1-5.9,3.2-8.7,5.3c-10.7,8.1-17.9,18.7-20.3,30
					c-1.4,6.5-1.4,12.6-0.1,19.6c1.4,7.4,3.6,12.7,7.7,18.8c8.2,12.3,20.6,20.2,35.8,22.9c1.3,0.3,3.8,0.5,5.4,0.6
					C52.6,165.8,54.8,165.9,54.8,165.8z"/>
				<g>
					
						<linearGradient id="SVGID_00000126306173216664737440000017713416069842415016_" gradientUnits="userSpaceOnUse" x1="21.44" y1="59.5808" x2="114.2984" y2="130.3423">
						<stop  offset="0.2035" style="stop-color:#704FC6"/>
						<stop  offset="0.214" style="stop-color:#7150C7"/>
						<stop  offset="0.3361" style="stop-color:#7C5CCE"/>
						<stop  offset="0.4612" style="stop-color:#7F60D1"/>
						<stop  offset="0.75" style="stop-color:#704FC6"/>
						<stop  offset="0.848" style="stop-color:#6F4EC4;stop-opacity:0.804"/>
						<stop  offset="0.8833" style="stop-color:#6B4CBD;stop-opacity:0.7334"/>
						<stop  offset="0.9085" style="stop-color:#6447B2;stop-opacity:0.683"/>
						<stop  offset="0.9289" style="stop-color:#5B40A1;stop-opacity:0.6423"/>
						<stop  offset="0.9463" style="stop-color:#4E378B;stop-opacity:0.6074"/>
						<stop  offset="0.9617" style="stop-color:#3F2C6F;stop-opacity:0.5765"/>
						<stop  offset="0.9757" style="stop-color:#2D204F;stop-opacity:0.5486"/>
						<stop  offset="0.9881" style="stop-color:#18112B;stop-opacity:0.5238"/>
						<stop  offset="0.9996" style="stop-color:#010102;stop-opacity:0.5008"/>
						<stop  offset="1" style="stop-color:#000000;stop-opacity:0.5"/>
					</linearGradient>
					<path style="fill:url(#SVGID_00000126306173216664737440000017713416069842415016_);" d="M20.5,98.8c1.5-2.9,3.4-5.4,6.5-8.3
						c3.4-3.3,6.3-5.4,10.4-7.3c5.7-2.8,10-3.9,15.7-4.1c6.7-0.3,11.4,0.5,18.4,2.8c8.8,2.9,18.4,8.1,31.2,16.7
						c4.9,3.3,8.1,5.6,17,11.9l1.5,1.1l0.7-0.5c0.4-0.3,2.6-1.9,5-3.7c2.4-1.8,5.1-3.8,6.1-4.5c1-0.7,1.7-1.3,1.7-1.4
						c0-0.1-2-1.6-4.5-3.4c-16.8-12.4-29.5-20.6-40.5-26.2c-5.8-2.9-8.1-3.9-13-5.6c-4.6-1.6-4.8-1.6-10-2.8
						c-4.9-1.1-13-1.4-18.4-0.7c-6.5,0.9-11.9,2.7-18.2,5.8c-4.2,2.1-5.9,3.2-8.7,5.3C14.6,79,9.2,85.2,5.5,92"/>
					
						<linearGradient id="SVGID_00000168801586325545815390000007497953066250793857_" gradientUnits="userSpaceOnUse" x1="5.4235" y1="137.8738" x2="42.675" y2="124.3154">
						<stop  offset="0" style="stop-color:#704FC6"/>
						<stop  offset="9.951232e-02" style="stop-color:#704FC6"/>
						<stop  offset="0.7041" style="stop-color:#704FC6"/>
						<stop  offset="0.7377" style="stop-color:#6D4DC0;stop-opacity:0.9432"/>
						<stop  offset="0.7805" style="stop-color:#6446B1;stop-opacity:0.8709"/>
						<stop  offset="0.8282" style="stop-color:#553C97;stop-opacity:0.7902"/>
						<stop  offset="0.8796" style="stop-color:#412E72;stop-opacity:0.7034"/>
						<stop  offset="0.9339" style="stop-color:#261B43;stop-opacity:0.6117"/>
						<stop  offset="0.9897" style="stop-color:#06040B;stop-opacity:0.5173"/>
						<stop  offset="1" style="stop-color:#000000;stop-opacity:0.5"/>
					</linearGradient>
					<path style="fill:url(#SVGID_00000168801586325545815390000007497953066250793857_);" d="M5.5,92c-2.1,3.8-3.6,7.8-4.4,11.9
						c-1.4,6.5-1.4,12.6-0.1,19.6c1.4,7.4,3.6,12.7,7.7,18.8c8.2,12.3,20.6,20.2,35.8,22.9c1.3,0.3,3.8,0.5,5.4,0.6
						c2.8,0.2,4.9,0.2,4.9,0.1c0,0-0.7-1.1-1.3-2.1c-1.4-2.5-3.8-7.9-5.4-11.5c-0.7-1.7-1.2-3.2-1.4-3.3s-1.4-0.4-2.8-0.7
						c-12.7-2.9-22.5-12.1-25.9-24.2c-1.1-3.8-1.3-5.5-1.2-9.9c0-6.1,1-9.8,3.7-15.1"/>
				</g>
			</g>
			<g>
				<path class="st2" d="M226.9,62.9c0,0,0.7,1.1,1.3,2.1c1.4,2.5,3.8,7.9,5.4,11.5c0.7,1.7,1.2,3.2,1.4,3.3
					c0.2,0.1,1.4,0.4,2.8,0.7c12.7,2.9,22.5,12.1,25.9,24.2c1.1,3.8,1.3,5.5,1.2,9.9c0,6.1-1,9.8-3.7,15.1c-1.5,2.9-3.4,5.4-6.5,8.3
					c-3.4,3.3-6.3,5.4-10.4,7.3c-5.7,2.8-10,3.9-15.7,4.1c-6.7,0.3-11.4-0.5-18.4-2.8c-8.8-2.9-18.4-8.1-31.2-16.7
					c-4.9-3.3-8.1-5.6-17-11.9l-1.5-1.1l-0.7,0.5c-0.4,0.3-2.6,1.9-5,3.7c-2.4,1.8-5.1,3.8-6.1,4.5c-1,0.7-1.7,1.3-1.7,1.4
					c0,0.1,2,1.6,4.5,3.4c16.8,12.4,29.5,20.6,40.5,26.2c5.8,2.9,8.1,3.9,13,5.6c4.6,1.6,4.8,1.6,10,2.8c4.9,1.1,13,1.4,18.4,0.7
					c6.5-0.9,11.9-2.7,18.2-5.8c4.2-2.1,5.9-3.2,8.7-5.3c10.7-8.1,17.9-18.7,20.3-30c1.4-6.5,1.4-12.6,0.1-19.6
					c-1.4-7.4-3.6-12.7-7.7-18.8c-8.2-12.3-20.6-20.2-35.8-22.9c-1.3-0.3-3.8-0.5-5.4-0.6C229.1,62.9,226.9,62.8,226.9,62.9z"/>
				<g>
					
						<linearGradient id="SVGID_00000019642844715012305580000008627888256087676033_" gradientUnits="userSpaceOnUse" x1="28.8518" y1="-227.0545" x2="121.7103" y2="-156.293" gradientTransform="matrix(-1 0 0 -1 289.0818 -57.9148)">
						<stop  offset="0.2035" style="stop-color:#704FC6"/>
						<stop  offset="0.214" style="stop-color:#7150C7"/>
						<stop  offset="0.3361" style="stop-color:#7C5CCE"/>
						<stop  offset="0.4612" style="stop-color:#7F60D1"/>
						<stop  offset="0.75" style="stop-color:#704FC6"/>
						<stop  offset="0.848" style="stop-color:#6F4EC4;stop-opacity:0.804"/>
						<stop  offset="0.8833" style="stop-color:#6B4CBD;stop-opacity:0.7334"/>
						<stop  offset="0.9085" style="stop-color:#6447B2;stop-opacity:0.683"/>
						<stop  offset="0.9289" style="stop-color:#5B40A1;stop-opacity:0.6423"/>
						<stop  offset="0.9463" style="stop-color:#4E378B;stop-opacity:0.6074"/>
						<stop  offset="0.9617" style="stop-color:#3F2C6F;stop-opacity:0.5765"/>
						<stop  offset="0.9757" style="stop-color:#2D204F;stop-opacity:0.5486"/>
						<stop  offset="0.9881" style="stop-color:#18112B;stop-opacity:0.5238"/>
						<stop  offset="0.9996" style="stop-color:#010102;stop-opacity:0.5008"/>
						<stop  offset="1" style="stop-color:#000000;stop-opacity:0.5"/>
					</linearGradient>
					<path style="fill:url(#SVGID_00000019642844715012305580000008627888256087676033_);" d="M261.1,129.9
						c-1.5,2.9-3.4,5.4-6.5,8.3c-3.4,3.3-6.3,5.4-10.4,7.3c-5.7,2.8-10,3.9-15.7,4.1c-6.7,0.3-11.4-0.5-18.4-2.8
						c-8.8-2.9-18.4-8.1-31.2-16.7c-4.9-3.3-8.1-5.6-17-11.9l-1.5-1.1l-0.7,0.5c-0.4,0.3-2.6,1.9-5,3.7c-2.4,1.8-5.1,3.8-6.1,4.5
						c-1,0.7-1.7,1.3-1.7,1.4c0,0.1,2,1.6,4.5,3.4c16.8,12.4,29.5,20.6,40.5,26.2c5.8,2.9,8.1,3.9,13,5.6c4.6,1.6,4.8,1.6,10,2.8
						c4.9,1.1,13,1.4,18.4,0.7c6.5-0.9,11.9-2.7,18.2-5.8c4.2-2.1,5.9-3.2,8.7-5.3c6.8-5.2,12.3-11.4,15.9-18.1"/>
					
						<linearGradient id="SVGID_00000077309208872882992060000001327556839161416872_" gradientUnits="userSpaceOnUse" x1="12.8353" y1="-148.7615" x2="50.0868" y2="-162.32" gradientTransform="matrix(-1 0 0 -1 289.0818 -57.9148)">
						<stop  offset="0" style="stop-color:#704FC6"/>
						<stop  offset="9.951232e-02" style="stop-color:#704FC6"/>
						<stop  offset="0.7041" style="stop-color:#704FC6"/>
						<stop  offset="0.7377" style="stop-color:#6D4DC0;stop-opacity:0.9432"/>
						<stop  offset="0.7805" style="stop-color:#6446B1;stop-opacity:0.8709"/>
						<stop  offset="0.8282" style="stop-color:#553C97;stop-opacity:0.7902"/>
						<stop  offset="0.8796" style="stop-color:#412E72;stop-opacity:0.7034"/>
						<stop  offset="0.9339" style="stop-color:#261B43;stop-opacity:0.6117"/>
						<stop  offset="0.9897" style="stop-color:#06040B;stop-opacity:0.5173"/>
						<stop  offset="1" style="stop-color:#000000;stop-opacity:0.5"/>
					</linearGradient>
					<path style="fill:url(#SVGID_00000077309208872882992060000001327556839161416872_);" d="M276.2,136.8
						c2.1-3.8,3.6-7.8,4.4-11.9c1.4-6.5,1.4-12.6,0.1-19.6c-1.4-7.4-3.6-12.7-7.7-18.8c-8.2-12.3-20.6-20.2-35.8-22.9
						c-1.3-0.3-3.8-0.5-5.4-0.6c-2.8-0.2-4.9-0.2-4.9-0.1c0,0,0.7,1.1,1.3,2.1c1.4,2.5,3.8,7.9,5.4,11.5c0.7,1.7,1.2,3.2,1.4,3.3
						c0.2,0.1,1.4,0.4,2.8,0.7c12.7,2.9,22.5,12.1,25.9,24.2c1.1,3.8,1.3,5.5,1.2,9.9c0,6.1-1,9.8-3.7,15.1"/>
				</g>
			</g>
			
				<linearGradient id="SVGID_00000003073739220224167760000005950882920636218787_" gradientUnits="userSpaceOnUse" x1="79.756" y1="154.2805" x2="202.2068" y2="74.7601">
				<stop  offset="1.438503e-07" style="stop-color:#080807;stop-opacity:0.5"/>
				<stop  offset="1.017818e-02" style="stop-color:#1C162B;stop-opacity:0.5204"/>
				<stop  offset="2.267442e-02" style="stop-color:#2F234F;stop-opacity:0.5453"/>
				<stop  offset="3.672958e-02" style="stop-color:#412F6F;stop-opacity:0.5735"/>
				<stop  offset="5.228507e-02" style="stop-color:#50398B;stop-opacity:0.6046"/>
				<stop  offset="6.984951e-02" style="stop-color:#5C41A1;stop-opacity:0.6397"/>
				<stop  offset="9.035903e-02" style="stop-color:#6547B2;stop-opacity:0.6807"/>
				<stop  offset="0.1157" style="stop-color:#6B4CBD;stop-opacity:0.7314"/>
				<stop  offset="0.1513" style="stop-color:#6F4EC4;stop-opacity:0.8026"/>
				<stop  offset="0.25" style="stop-color:#704FC6"/>
				<stop  offset="0.5" style="stop-color:#7F60D1"/>
				<stop  offset="0.75" style="stop-color:#704FC6"/>
				<stop  offset="0.848" style="stop-color:#6F4EC4;stop-opacity:0.804"/>
				<stop  offset="0.8833" style="stop-color:#6B4CBD;stop-opacity:0.7334"/>
				<stop  offset="0.9085" style="stop-color:#6447B2;stop-opacity:0.683"/>
				<stop  offset="0.9289" style="stop-color:#5B40A1;stop-opacity:0.6423"/>
				<stop  offset="0.9463" style="stop-color:#4E378B;stop-opacity:0.6074"/>
				<stop  offset="0.9617" style="stop-color:#3F2C6F;stop-opacity:0.5765"/>
				<stop  offset="0.9757" style="stop-color:#2D204F;stop-opacity:0.5486"/>
				<stop  offset="0.9881" style="stop-color:#18112B;stop-opacity:0.5238"/>
				<stop  offset="0.9996" style="stop-color:#010102;stop-opacity:0.5008"/>
				<stop  offset="1" style="stop-color:#000000;stop-opacity:0.5"/>
			</linearGradient>
			<path style="fill:url(#SVGID_00000003073739220224167760000005950882920636218787_);" d="M83.7,159.9c0.3,0,4.7-1.9,7.3-3.2
				c11.9-5.7,24.5-13.9,45.9-29.8c20.5-15.2,20.6-15.4,24.8-18.2c17.1-11.9,29.7-19.1,41.8-23.7c1.6-0.6,3.2-1.1,3.4-1.1
				c0.3,0,0.1-0.6-1-2.7c-1.8-3.4-3.4-6.1-5.8-9.3l-1.9-2.6l-1.1,0.5c-0.6,0.3-2.6,1.1-4.4,1.9c-15.7,6.6-34.2,18.4-63.1,40.3
				c-9.5,7.2-12.3,9.3-17.2,12.8c-13,9.3-24.6,16.2-34.4,20.1l-2.6,1l0.5,1.3c1.4,2.9,4.1,8.2,6.6,11.5
				C83.2,159.3,83.7,159.9,83.7,159.9z"/>
		</g>
	</g>
</g>
</svg>
