<?xml version="1.0" encoding="utf-8"?>
<!-- Generator: Adobe Illustrator 26.1.0, SVG Export Plug-In . SVG Version: 6.00 Build 0)  -->
<svg version="1.1" id="Layer_1" xmlns="http://www.w3.org/2000/svg" xmlns:xlink="http://www.w3.org/1999/xlink" x="0px" y="0px"
	 viewBox="0 0 112.6 101.9" style="enable-background:new 0 0 112.6 101.9;" xml:space="preserve">
<style type="text/css">
	.st0{fill:url(#SVGID_1_);}
	.st1{fill:url(#SVGID_00000013157068522676072510000000330798800183360396_);}
	.st2{fill:url(#SVGID_00000149375545647790491260000007210930711404400557_);}
	.st3{fill-rule:evenodd;clip-rule:evenodd;fill:url(#SVGID_00000079461542881786697870000007523606217416339899_);}
</style>
<g>
	<linearGradient id="SVGID_1_" gradientUnits="userSpaceOnUse" x1="26.8298" y1="92.9526" x2="85.2773" y2="9.481">
		<stop  offset="1.598337e-07" style="stop-color:#8D72D1"/>
		<stop  offset="1" style="stop-color:#D4CAEE"/>
	</linearGradient>
	<path class="st0" d="M85.8,92c-1,0.7-2.1,1.5-3.1,2.1c-8.4,5.2-17.7,7.7-26.9,7.7c-17,0-33.6-8.5-43.2-24C5.3,66.5,3.3,53.3,5.7,41
		c0.6,0.4,1.2,0.8,1.8,1.2c2.1,1.3,4,2.1,5.9,2.7c-1.4,9.6,0.5,19.8,6,28.7c7.9,12.6,21.4,20.1,36.3,20.1c3.9,0,7.7-0.5,11.4-1.6
		C73.1,93.5,79.9,92.8,85.8,92z M47.7,9c2.6-0.5,5.3-0.8,7.9-0.8h0c14.9,0,28.4,7.5,36.3,20.1c5.1,8.1,7.2,17.5,6.3,27
		c2.1,0.6,4.4,1.5,6.9,3c0.3,0.2,0.6,0.4,0.9,0.5c1.8-11.7-0.4-24-7.1-34.8C89.2,8.5,72.6,0,55.6,0c-9.2,0-18.6,2.5-26.9,7.7
		c-0.3,0.2-0.6,0.4-0.9,0.6C34.2,7.5,41.5,6.9,47.7,9z"/>
	<g>
		
			<linearGradient id="SVGID_00000048493794457085703840000011372138555607329171_" gradientUnits="userSpaceOnUse" x1="45.8309" y1="50.6988" x2="109.1511" y2="90.2657">
			<stop  offset="0" style="stop-color:#704FC6"/>
			<stop  offset="9.036885e-02" style="stop-color:#6747B5"/>
			<stop  offset="0.3969" style="stop-color:#4B2D7E"/>
			<stop  offset="0.6617" style="stop-color:#361B56"/>
			<stop  offset="0.8714" style="stop-color:#2A0F3E"/>
			<stop  offset="1" style="stop-color:#250B35"/>
		</linearGradient>
		<path style="fill:url(#SVGID_00000048493794457085703840000011372138555607329171_);" d="M112.6,84.7c-5.5-3.3-16.1-4.2-23.3-3.2
			c-7.2,1-16.8,2.8-22.5,0.1c-4.9-2.3-20.2-20.2-24.2-25c-0.4-0.5,0-1.1,0.6-1.1c2.9,0.4,6.5,2.3,10.1,6.1
			c4.3,4.4,10.7,10,16.2,12.6c3.4,1.6,11.1,2,9.9-0.8c-1.7-4.1-15.3-7.8-17.6-13.2c-0.2-0.4,0.2-0.9,0.7-0.8
			c5.4,1.7,11.7,4,17.4,4.8c9.7,1.4,13.1-1.7,20.1,2.5C107,70.9,112.6,84.7,112.6,84.7z"/>
		
			<linearGradient id="SVGID_00000000944135952096905520000007304366332143526283_" gradientUnits="userSpaceOnUse" x1="3.4889" y1="10.1937" x2="66.8091" y2="49.7605">
			<stop  offset="1.704893e-07" style="stop-color:#250B35"/>
			<stop  offset="0.1286" style="stop-color:#2A0F3E"/>
			<stop  offset="0.3383" style="stop-color:#361B56"/>
			<stop  offset="0.6031" style="stop-color:#4B2D7E"/>
			<stop  offset="0.9096" style="stop-color:#6747B5"/>
			<stop  offset="1" style="stop-color:#704FC6"/>
		</linearGradient>
		<path style="fill:url(#SVGID_00000000944135952096905520000007304366332143526283_);" d="M0,15.8c5.5,3.3,16.1,4.2,23.3,3.2
			c7.2-1,16.8-2.8,22.5-0.1c4.9,2.3,20.2,20.2,24.2,25c0.4,0.5,0,1.1-0.6,1.1c-2.9-0.4-6.5-2.3-10.1-6.1c-4.3-4.4-10.7-10-16.2-12.6
			c-3.4-1.6-11.1-2-9.9,0.8c1.7,4.1,15.3,7.8,17.6,13.2c0.2,0.4-0.2,0.9-0.7,0.8c-5.4-1.7-11.7-4-17.4-4.8
			c-9.7-1.4-13.1,1.7-20.1-2.5S0,15.8,0,15.8z"/>
		
			<linearGradient id="SVGID_00000140007083225230461360000018249548871318988735_" gradientUnits="userSpaceOnUse" x1="-361.666" y1="-2116.8748" x2="-331.7071" y2="-2116.8748" gradientTransform="matrix(0.5588 -0.8293 0.8293 0.5588 2006.0516 945.6934)">
			<stop  offset="0" style="stop-color:#6446B0"/>
			<stop  offset="0.2035" style="stop-color:#704FC6"/>
			<stop  offset="0.214" style="stop-color:#7150C7"/>
			<stop  offset="0.3361" style="stop-color:#7C5CCE"/>
			<stop  offset="0.4612" style="stop-color:#7F60D1"/>
			<stop  offset="0.75" style="stop-color:#704FC6"/>
			<stop  offset="0.813" style="stop-color:#6D4DC1"/>
			<stop  offset="0.887" style="stop-color:#6547B3"/>
			<stop  offset="0.9664" style="stop-color:#583E9B"/>
			<stop  offset="1" style="stop-color:#51398F"/>
		</linearGradient>
		<path style="fill-rule:evenodd;clip-rule:evenodd;fill:url(#SVGID_00000140007083225230461360000018249548871318988735_);" d="
			M62.4,54.7c-2.6,3.2-7.3,3.7-10.5,1.1c-3.2-2.6-3.7-7.3-1.1-10.5c2.6-3.2,7.3-3.7,10.5-1.1C64.5,46.8,65,51.5,62.4,54.7
			 M37.9,42.3c-2.8-0.2-5-0.3-7.7,0.6c-2.8,1-4.7,2.7-5.8,3.7c2.7-0.2,7-0.3,12.1,1.2c4.7,1.4,8.1,3.6,10.1,5.2
			c-0.3-0.7-1-2.4-0.8-4.5c0.2-2.1,1.2-3.6,1.6-4.2C43.6,42.9,40.2,42.4,37.9,42.3z M75.6,58.5c2.8,0.2,5,0.3,7.7-0.6
			c2.8-1,4.7-2.7,5.8-3.7c-2.7,0.2-7,0.3-12.1-1.2c-4.7-1.4-8.1-3.6-10.1-5.2c0.3,0.7,1,2.4,0.8,4.5c-0.2,2.1-1.2,3.6-1.6,4.2
			C69.9,57.9,73.3,58.3,75.6,58.5z"/>
	</g>
</g>
</svg>
