<?xml version="1.0" encoding="utf-8"?>
<!-- Generator: Adobe Illustrator 26.1.0, SVG Export Plug-In . SVG Version: 6.00 Build 0)  -->
<svg version="1.1" id="Layer_1" xmlns="http://www.w3.org/2000/svg" xmlns:xlink="http://www.w3.org/1999/xlink" x="0px" y="0px"
	 viewBox="0 0 107.1 101.9" style="enable-background:new 0 0 107.1 101.9;" xml:space="preserve">
<style type="text/css">
	.st0{fill:url(#SVGID_1_);}
	.st1{fill:url(#SVGID_00000134955134601584595880000008850104265675594894_);}
	.st2{fill:url(#SVGID_00000091703494738060267990000005354384054792012673_);}
	.st3{fill:url(#SVGID_00000007406394281117234940000014736328350613087623_);}
	.st4{fill:url(#SVGID_00000155864477113756006400000001121758652895951259_);}
</style>
<g>
	<linearGradient id="SVGID_1_" gradientUnits="userSpaceOnUse" x1="23.6368" y1="93.1924" x2="82.0698" y2="9.7415">
		<stop  offset="1.598337e-07" style="stop-color:#8D72D1"/>
		<stop  offset="1" style="stop-color:#D4CAEE"/>
	</linearGradient>
	<path class="st0" d="M52.2,0L52.2,0L52.2,0L52.2,0z M79.1,7.7C71,2.7,61.1,0.2,52.2,0v0c0,0,0,0,0,0c-0.1,0-0.3,0-0.4,0
		c-0.2,0-0.4,0-0.6,0v0c-6.2,0.1-12.3,1.4-18,3.6c0.7,0.8,1.2,1.8,1.6,2.7c2.9-0.1,5.7,0.9,7.9,2.8c2.9-0.6,5.9-1,8.9-1
		c7.9,0.1,16.5,2.3,23.1,6.5c9.7,6.1,16.4,15.5,19,26.6c0.7,2.8,1,5.7,1.1,8.5c2.8,0.4,5.6,1.3,8.2,2.7C103.5,35,95,17.7,79.1,7.7z
		 M18.1,24.3l0.2,0.5c0,0,0,0,0-0.1L18.1,24.3C18.1,24.3,18.1,24.3,18.1,24.3z M69.3,90.1c-5.3,2.3-11.2,3.6-17.3,3.6
		c-8,0-15.8-2.2-22.6-6.5c-9.7-6.1-16.4-15.5-19-26.6c-0.2-0.8-0.3-1.7-0.5-2.5c-2.3-1.3-4.1-3.3-5-5.7c-1.3,0-2.5-0.1-3.7-0.5
		C1.5,68.5,10,84.7,25.1,94.1c8.4,5.2,17.7,7.7,26.9,7.7c8,0,16-1.9,23.2-5.6C72.9,94.5,70.9,92.4,69.3,90.1z"/>
	<g>
		
			<radialGradient id="SVGID_00000181069372354839890490000015616930879985087620_" cx="100.5516" cy="81.3445" r="28.1562" gradientUnits="userSpaceOnUse">
			<stop  offset="1.704893e-07" style="stop-color:#250B35"/>
			<stop  offset="0.2715" style="stop-color:#260C38"/>
			<stop  offset="0.4348" style="stop-color:#2B1040"/>
			<stop  offset="0.5695" style="stop-color:#32174E"/>
			<stop  offset="0.6886" style="stop-color:#3D2062"/>
			<stop  offset="0.7974" style="stop-color:#4A2D7D"/>
			<stop  offset="0.8986" style="stop-color:#5B3C9D"/>
			<stop  offset="0.9924" style="stop-color:#6E4DC3"/>
			<stop  offset="1" style="stop-color:#704FC6"/>
		</radialGradient>
		<path style="fill:url(#SVGID_00000181069372354839890490000015616930879985087620_);" d="M83.2,61.1L83.2,61.1
			c-1.3,0.8-3.6,2.4-5.6,5.3c-2,3-2.5,5.9-2.7,7.4c0,0,0,0,0,0l0.1,0c-0.6,5.8,2,11.8,7.3,15.2c5,3.3,11.2,3.4,16.1,0.8l-10.8-7
			l0.5-9.3l8.2-4.2l10.8,7c0.3-5.6-2.3-11.1-7.3-14.4C94.8,58.8,88.2,58.5,83.2,61.1z"/>
		<g>
			
				<linearGradient id="SVGID_00000139975592092483393950000012993453480054131611_" gradientUnits="userSpaceOnUse" x1="1489.7323" y1="-896.0172" x2="1495.7512" y2="-896.0172" gradientTransform="matrix(0.5445 -0.8387 0.8387 0.5445 -9.4576 1797.1084)">
				<stop  offset="5.327789e-09" style="stop-color:#5E42A6"/>
				<stop  offset="1" style="stop-color:#7F60D1"/>
			</linearGradient>
			<path style="fill:url(#SVGID_00000139975592092483393950000012993453480054131611_);" d="M34.4,42.3c-1.7,2.1-3.4,3.4-4.5,4.3
				c16,10.4,24.5,15.9,40.6,26.3c0.2-1.3,0.8-3.4,2-5.9L34.4,42.3z"/>
			
				<linearGradient id="SVGID_00000005952534362498821290000007746055361503008170_" gradientUnits="userSpaceOnUse" x1="1501.4558" y1="-896.0172" x2="1507.4747" y2="-896.0172" gradientTransform="matrix(0.5445 -0.8387 0.8387 0.5445 -9.4576 1797.1084)">
				<stop  offset="0" style="stop-color:#7F60D1"/>
				<stop  offset="1" style="stop-color:#5E42A6"/>
			</linearGradient>
			<path style="fill:url(#SVGID_00000005952534362498821290000007746055361503008170_);" d="M37.5,37.5l38.1,24.7
				c1.8-2.1,3.5-3.5,4.6-4.2c-16-10.4-24.5-15.9-40.6-26.3C39.3,33,38.7,35.1,37.5,37.5z"/>
		</g>
		
			<radialGradient id="SVGID_00000009559758964611920910000008617105561733959040_" cx="4.1887" cy="19.7005" r="36.0748" gradientUnits="userSpaceOnUse">
			<stop  offset="1.704893e-07" style="stop-color:#250B35"/>
			<stop  offset="0.2715" style="stop-color:#260C38"/>
			<stop  offset="0.4348" style="stop-color:#2B1040"/>
			<stop  offset="0.5695" style="stop-color:#32174E"/>
			<stop  offset="0.6886" style="stop-color:#3D2062"/>
			<stop  offset="0.7974" style="stop-color:#4A2D7D"/>
			<stop  offset="0.8986" style="stop-color:#5B3C9D"/>
			<stop  offset="0.9924" style="stop-color:#6E4DC3"/>
			<stop  offset="1" style="stop-color:#704FC6"/>
		</radialGradient>
		<path style="fill:url(#SVGID_00000009559758964611920910000008617105561733959040_);" d="M34.5,16.5l-4.3,1.7
			c-0.6-0.6-1.3-1.1-2-1.6c-0.7-0.5-1.5-0.9-2.3-1.2l-0.2-4.6c0-0.8-0.7-1.5-1.5-1.5l-6.5-0.3c-0.8,0-1.6,0.6-1.7,1.4l-0.7,4.6
			c-1.6,0.5-3.2,1.3-4.6,2.3L6.6,15c-0.7-0.4-1.6-0.1-2.1,0.5L0.9,21c-0.5,0.7-0.3,1.6,0.4,2.1L4.9,26c-0.4,1.7-0.5,3.5-0.3,5.2
			l-3.9,2.5C0,34.1-0.2,35,0.2,35.8l3,5.8c0.4,0.7,1.3,1.1,2,0.8l4.3-1.7c0.6,0.6,1.3,1.1,2.1,1.6c0.7,0.5,1.5,0.9,2.3,1.2l0.2,4.6
			c0,0.8,0.7,1.5,1.5,1.5L22,50c0.8,0,1.6-0.6,1.7-1.4l0.7-4.6c3.3-1,6.3-3.2,8.3-6.3c2-3.1,2.8-6.7,2.4-10.1l3.9-2.5
			c0.7-0.4,0.9-1.4,0.6-2.1l-3-5.8C36.2,16.5,35.3,16.1,34.5,16.5z M25.1,21.3C25.1,21.3,25.1,21.3,25.1,21.3
			C25.1,21.3,25.1,21.3,25.1,21.3c0.2,0.1,0.3,0.2,0.5,0.3c0,0,0.1,0.1,0.1,0.1c0.1,0.1,0.2,0.2,0.4,0.3c0,0,0.1,0,0.1,0.1
			c0.9,0.8,1.7,1.8,2.3,2.9c0.3,0.6,0.5,1.1,0.7,1.7c0,0,0,0,0,0c0.1,0.4,0.2,0.8,0.3,1.2c0,0,0,0,0,0.1c0,0.2,0,0.4,0.1,0.5
			c0,0,0,0,0,0.1c0,0.4,0,0.8,0,1.2c0,0,0,0,0,0c0,0,0,0,0,0c-0.1,1.7-0.6,3.3-1.5,4.7C27,36,25.7,37.2,24.2,38c0,0,0,0,0,0
			c0,0,0,0,0,0c0,0,0,0,0,0c-0.4,0.2-0.7,0.3-1.1,0.5c0,0,0,0,0,0c-0.2,0.1-0.4,0.1-0.6,0.2c0,0,0,0,0,0c-0.4,0.1-0.8,0.2-1.2,0.2
			c0,0,0,0,0,0C20.6,39,20,39,19.3,39c-1.6-0.1-3.2-0.6-4.6-1.5c0,0,0,0-0.1,0c0,0,0,0,0,0c0,0,0,0,0,0c0,0,0,0,0,0c0,0,0,0,0,0
			c0,0,0,0,0,0c-0.2-0.1-0.3-0.2-0.5-0.3c0,0-0.1-0.1-0.1-0.1c-0.1-0.1-0.2-0.2-0.4-0.3c0,0-0.1-0.1-0.1-0.1
			c-0.9-0.8-1.7-1.8-2.3-2.9c0,0,0,0,0,0c-0.2-0.4-0.3-0.7-0.5-1.1c0,0,0-0.1,0-0.1c-0.1-0.1-0.1-0.3-0.1-0.5c0,0,0-0.1,0-0.1
			c0-0.2-0.1-0.4-0.1-0.5c0,0,0,0,0-0.1c0-0.2-0.1-0.3-0.1-0.5c0-0.1,0-0.1,0-0.2c0-0.1,0-0.3,0-0.4c0-0.1,0-0.1,0-0.2
			c0-0.2,0-0.4,0-0.5c0,0,0-0.1,0-0.1c0-0.2,0-0.3,0-0.5c0,0,0-0.1,0-0.1c0.1-1.2,0.4-2.4,0.9-3.5c0,0,0-0.1,0-0.1
			c0.1-0.1,0.1-0.3,0.2-0.4c0,0,0-0.1,0.1-0.1c0.1-0.2,0.2-0.3,0.3-0.5c0,0,0,0,0,0c0.1-0.2,0.2-0.3,0.3-0.5c0,0,0.1-0.1,0.1-0.1
			c0.1-0.1,0.2-0.2,0.3-0.4c0,0,0.1-0.1,0.1-0.1c0.4-0.5,0.8-0.9,1.3-1.2c0,0,0,0,0.1,0c0.2-0.1,0.3-0.2,0.5-0.3c0,0,0,0,0,0
			c0.2-0.1,0.3-0.2,0.5-0.3c0,0,0,0,0.1,0c0.1-0.1,0.3-0.2,0.4-0.2c0,0,0.1,0,0.1-0.1c0.1-0.1,0.3-0.1,0.5-0.2c0,0,0.1,0,0.1,0
			c0.2-0.1,0.3-0.1,0.5-0.2c0.1,0,0.1,0,0.2-0.1c0.1,0,0.2-0.1,0.4-0.1c0.1,0,0.1,0,0.2-0.1c0.2,0,0.3-0.1,0.5-0.1c0,0,0,0,0.1,0
			c0.2,0,0.4-0.1,0.5-0.1c0,0,0.1,0,0.1,0c0.2,0,0.3,0,0.5-0.1c0,0,0.1,0,0.1,0c0.4,0,0.8,0,1.2,0c0,0,0,0,0,0
			c1.2,0.1,2.5,0.4,3.6,0.9c0,0,0,0,0,0c0.2,0.1,0.3,0.2,0.5,0.3c0,0,0,0,0.1,0C24.7,21.1,24.9,21.2,25.1,21.3
			C25,21.3,25.1,21.3,25.1,21.3C25.1,21.3,25.1,21.3,25.1,21.3C25.1,21.3,25.1,21.3,25.1,21.3C25.1,21.3,25.1,21.3,25.1,21.3z"/>
	</g>
</g>
</svg>
