<?xml version="1.0" encoding="utf-8"?>
<!-- Generator: Adobe Illustrator 26.1.0, SVG Export Plug-In . SVG Version: 6.00 Build 0)  -->
<svg version="1.1" id="Layer_1" xmlns="http://www.w3.org/2000/svg" xmlns:xlink="http://www.w3.org/1999/xlink" x="0px" y="0px"
	 viewBox="0 0 112.6 101.9" style="enable-background:new 0 0 112.6 101.9;" xml:space="preserve">
<style type="text/css">
	.st0{fill:url(#SVGID_1_);}
	.st1{fill:url(#XMLID_00000111903863925592311180000018016979340976763526_);}
	.st2{fill:url(#SVGID_00000141442583112447898700000009573619828089933489_);}
	.st3{fill:url(#SVGID_00000062167649687552968910000003489131347778350015_);}
	.st4{fill:url(#SVGID_00000035522207341000885590000011549147190483553708_);}
	.st5{fill:url(#SVGID_00000106108850756700324460000016603805222878070164_);}
	.st6{fill:url(#XMLID_00000081638189816509482420000012935659615356074410_);}
	.st7{fill:url(#XMLID_00000082327979363275360850000014003012165452920494_);}
	.st8{fill:url(#XMLID_00000103969684455307785730000013584084463514753194_);}
</style>
<g>
	<linearGradient id="SVGID_1_" gradientUnits="userSpaceOnUse" x1="28.7356" y1="91.5483" x2="87.1716" y2="8.0931">
		<stop  offset="1.598337e-07" style="stop-color:#8D72D1"/>
		<stop  offset="1" style="stop-color:#D4CAEE"/>
	</linearGradient>
	<path class="st0" d="M39.7,4c6.1-2.6,12.8-4,19.8-4c25.6,0,46.7,18.8,50.4,43.3c-0.2-0.2-0.5-0.4-0.7-0.5c-2.5-1.6-5.3-2.4-8.2-2.3
		C96.3,22,79.5,8.2,59.5,8.2c-5.3,0-10.3,1-15,2.7C43.3,8.4,41.7,6.1,39.7,4z M72.3,99.6c-2.5-1.6-4.4-3.9-5.4-6.5
		c-2.4,0.4-4.8,0.6-7.3,0.6c-23.1,0-41.9-18.4-42.7-41.3c-2.8-0.2-5.6-0.8-8.2-1.8c0,0.1,0,0.2,0,0.3c0,28.1,22.8,50.9,50.9,50.9
		c4.7,0,9.3-0.7,13.6-1.8C72.9,99.9,72.6,99.7,72.3,99.6z"/>
	<g>
		
			<linearGradient id="XMLID_00000103244816740303686180000011710492411669032598_" gradientUnits="userSpaceOnUse" x1="2.8778" y1="13.7907" x2="43.7898" y2="39.3553">
			<stop  offset="1.704893e-07" style="stop-color:#250B35"/>
			<stop  offset="0.1286" style="stop-color:#2A0F3E"/>
			<stop  offset="0.3383" style="stop-color:#361B56"/>
			<stop  offset="0.6031" style="stop-color:#4B2D7E"/>
			<stop  offset="0.9096" style="stop-color:#6747B5"/>
			<stop  offset="1" style="stop-color:#704FC6"/>
		</linearGradient>
		
			<path id="XMLID_00000031195477539968245290000006620408918610557626_" style="fill:url(#XMLID_00000103244816740303686180000011710492411669032598_);" d="
			M26.5,9.8c0.4,0.2,0.5,0.7,0.2,1.1c-0.2,0.4-0.7,0.5-1.1,0.2c-0.4-0.2-0.5-0.7-0.2-1.1C25.7,9.7,26.2,9.6,26.5,9.8z M34.1,24.3
			c0.4,0.2,0.8,0.1,1.1-0.2c0.2-0.4,0.1-0.8-0.2-1.1c-0.4-0.2-0.8-0.1-1.1,0.2C33.6,23.6,33.7,24,34.1,24.3z M34,19.1
			c-0.2,0.4-0.1,0.8,0.2,1.1c0.4,0.2,0.8,0.1,1.1-0.2c0.2-0.4,0.1-0.8-0.2-1.1S34.2,18.7,34,19.1z M30,19.8
			c-0.4-0.2-0.8-0.1-1.1,0.2c-0.2,0.4-0.1,0.8,0.2,1.1c0.4,0.2,0.8,0.1,1.1-0.2C30.5,20.5,30.4,20,30,19.8z M20.6,34.4
			c-0.4-0.2-0.8-0.1-1.1,0.2c-0.2,0.4-0.1,0.8,0.2,1.1c0.4,0.2,0.8,0.1,1.1-0.2C21,35.1,20.9,34.6,20.6,34.4z M24.6,38.8
			c0.4,0.2,0.8,0.1,1.1-0.2c0.2-0.4,0.1-0.8-0.2-1.1c-0.4-0.2-0.8-0.1-1.1,0.2C24.1,38.1,24.3,38.6,24.6,38.8z M20.9,40.7
			c0.4,0.2,0.8,0.1,1.1-0.2c0.2-0.4,0.1-0.8-0.2-1.1s-0.8-0.1-1.1,0.2C20.4,40,20.5,40.4,20.9,40.7z M10,35.2
			C9.7,35,9.2,35.1,9,35.5c-0.2,0.4-0.1,0.8,0.2,1.1c0.4,0.2,0.8,0.1,1.1-0.2C10.5,35.9,10.4,35.5,10,35.2z M29.1,8
			c6.3,4.1,9.4,11.3,8.4,18.3l8.7,5.6c0.9,0.6,1,1.9,0.5,2.8l-0.9,1.4L27.8,24.5L26.2,17c0.1-0.1,0.3-0.2,0.4-0.4
			c0.4-0.7,0.2-1.6-0.4-2c-0.7-0.4-1.5-0.2-2,0.4c-0.4,0.7-0.2,1.5,0.4,2c0.1,0,0.2,0.1,0.2,0.1l1.4,6.3L22.4,21l-0.9-4.1
			c0.2-0.1,0.4-0.3,0.5-0.5c0.6-0.9,0.3-2-0.6-2.6c-0.9-0.6-2-0.3-2.6,0.6c-0.6,0.9-0.3,2,0.5,2.6c0.2,0.1,0.4,0.2,0.7,0.3l0.9,4.5
			c0,0.2,0.1,0.3,0.3,0.4L45,37.4l-0.5,0.8L16.9,20.3l-0.8-3.6c0.3-0.2,0.5-0.4,0.7-0.7c0.7-1,0.4-2.4-0.6-3c-1-0.7-2.4-0.4-3,0.6
			c-0.7,1-0.4,2.4,0.6,3c0.3,0.2,0.7,0.3,1,0.3l0.8,3.8c0,0.2,0.1,0.3,0.3,0.4l27.8,18l-0.5,0.8l-27.8-18C15.2,22,15,22,14.9,22
			L11,22.9c-0.2-0.3-0.4-0.6-0.7-0.8c-1-0.7-2.4-0.4-3,0.6c-0.7,1-0.4,2.4,0.6,3c1,0.7,2.4,0.4,3-0.7c0.2-0.3,0.3-0.6,0.3-0.9
			l3.6-0.8l27.5,17.9l-0.5,0.8L18.3,26.8c-0.2-0.1-0.4-0.1-0.5-0.1l-4.4,1c-0.1-0.2-0.3-0.4-0.5-0.5c-0.9-0.6-2-0.3-2.6,0.5
			c-0.6,0.9-0.3,2,0.6,2.6c0.9,0.6,2,0.3,2.6-0.6c0.1-0.2,0.2-0.5,0.3-0.7l4.2-0.9l3.8,2.5L15.2,32c-0.1-0.1-0.1-0.1-0.2-0.1
			c-0.7-0.4-1.5-0.2-2,0.4c-0.4,0.7-0.2,1.5,0.4,2c0.7,0.4,1.6,0.2,2-0.4c0.1-0.2,0.2-0.3,0.2-0.5l7.6-1.6l17.9,11.6l-1,1.6
			c-0.6,0.9-1.7,1.1-2.6,0.5l-8.7-5.6c-6,3.8-13.9,3.9-20.2-0.2c-8.7-5.7-11.2-17.3-5.5-26S20.4,2.3,29.1,8z M21.1,36.1l2.6,1.7
			c-0.2,0.6,0.1,1.2,0.6,1.6c0.7,0.4,1.5,0.3,2-0.4c0.4-0.7,0.3-1.6-0.4-2c-0.5-0.3-1-0.3-1.5-0.1l-2.7-1.8c0.1-0.5-0.2-1-0.7-1.3
			c-0.7-0.4-1.6-0.2-2,0.4c-0.4,0.7-0.2,1.5,0.4,2C19.9,36.5,20.6,36.5,21.1,36.1z M20.1,39.2c-0.1,0.2-0.2,0.4-0.2,0.7l-2.4,0.5
			L11,36.2c0.2-0.6-0.1-1.2-0.6-1.6c-0.7-0.4-1.5-0.2-2,0.4c-0.4,0.7-0.2,1.5,0.4,2c0.5,0.3,1.1,0.2,1.5,0l6.7,4.4
			c0.1,0.1,0.3,0.1,0.4,0.1l2.8-0.6c0.1,0.1,0.2,0.2,0.3,0.2c0.7,0.4,1.6,0.2,2-0.4c0.4-0.7,0.2-1.6-0.4-2
			C21.4,38.4,20.5,38.6,20.1,39.2z M33.6,22.5L31,20.8c0.2-0.6-0.1-1.2-0.6-1.6c-0.7-0.4-1.5-0.2-2,0.4c-0.4,0.7-0.2,1.6,0.4,2
			c0.5,0.3,1.1,0.3,1.5,0.1l2.7,1.8c0,0.5,0.2,1,0.7,1.3c0.7,0.4,1.6,0.2,2-0.4c0.4-0.7,0.2-1.5-0.4-2
			C34.7,22.1,34.1,22.1,33.6,22.5z M26.9,9.3c-0.7-0.4-1.5-0.3-2,0.4c-0.4,0.7-0.2,1.5,0.4,2c0.5,0.3,1.2,0.3,1.7-0.1l6.5,4.2
			l0.5,2.5c-0.2,0.1-0.4,0.3-0.5,0.5c-0.4,0.7-0.2,1.6,0.4,2c0.7,0.4,1.6,0.2,2-0.4c0.4-0.7,0.2-1.5-0.4-2c-0.1-0.1-0.2-0.1-0.4-0.2
			l-0.6-2.8c0-0.1-0.1-0.3-0.2-0.3l-6.7-4.4C27.6,10,27.4,9.6,26.9,9.3z M16,15.5c0.4-0.6,0.2-1.3-0.4-1.7c-0.6-0.4-1.3-0.2-1.7,0.4
			c-0.4,0.6-0.2,1.3,0.4,1.7c0.2,0.2,0.5,0.2,0.8,0.2l0.3-0.1C15.6,15.9,15.8,15.8,16,15.5z M8.5,24.9c0.6,0.4,1.3,0.2,1.7-0.4
			c0.1-0.2,0.2-0.4,0.2-0.7l-0.1-0.4c-0.1-0.2-0.2-0.4-0.5-0.5c-0.6-0.4-1.3-0.2-1.7,0.4C7.7,23.8,7.9,24.6,8.5,24.9z M13.8,33.7
			c0.4,0.2,0.8,0.1,1.1-0.2c0.2-0.4,0.1-0.8-0.2-1.1c-0.4-0.2-0.8-0.1-1.1,0.2C13.3,33,13.4,33.5,13.8,33.7z M11.1,29.7
			c0.5,0.3,1.2,0.2,1.5-0.3s0.2-1.2-0.3-1.5c-0.5-0.3-1.2-0.2-1.5,0.3S10.6,29.3,11.1,29.7z M25.8,15.2c-0.4-0.2-0.8-0.1-1.1,0.2
			c-0.2,0.4-0.1,0.8,0.2,1.1c0.4,0.2,0.8,0.1,1.1-0.2C26.3,15.9,26.2,15.4,25.8,15.2z M21.4,15.9c0.3-0.5,0.2-1.2-0.3-1.5
			c-0.5-0.3-1.2-0.2-1.5,0.3c-0.3,0.5-0.2,1.2,0.3,1.5C20.4,16.5,21,16.4,21.4,15.9z"/>
		<g>
			<g>
				
					<linearGradient id="SVGID_00000115489555619809437650000010486834957205473455_" gradientUnits="userSpaceOnUse" x1="1531.1274" y1="-1899.224" x2="1531.8186" y2="-1860.4984" gradientTransform="matrix(0.545 -0.8385 0.8385 0.545 811.4888 2384.4714)">
					<stop  offset="0" style="stop-color:#7F60D1"/>
					<stop  offset="0.5176" style="stop-color:#704FC6"/>
					<stop  offset="0.6392" style="stop-color:#6D4DC1"/>
					<stop  offset="0.782" style="stop-color:#6547B3"/>
					<stop  offset="0.9351" style="stop-color:#583E9B"/>
					<stop  offset="1" style="stop-color:#51398F"/>
				</linearGradient>
				<path style="fill:url(#SVGID_00000115489555619809437650000010486834957205473455_);" d="M66.4,67.5l9.2,6l2.1,10.1
					c-0.5,0.3-1,0.8-1.3,1.4c-1.4,2.1-0.8,4.9,1.3,6.3c2.1,1.4,4.9,0.8,6.3-1.3c1.4-2.1,0.8-4.9-1.3-6.3c-0.5-0.3-1.1-0.6-1.7-0.7
					l-2.2-10.8c-0.1-0.4-0.3-0.9-0.7-1.1L58.2,58.2L56.4,61l6.1,3.9 M82.4,88.9c-0.8,1.2-2.4,1.6-3.6,0.8c-1.2-0.8-1.6-2.4-0.8-3.6
					s2.4-1.6,3.6-0.8C82.8,86.1,83.2,87.7,82.4,88.9z"/>
				
					<linearGradient id="SVGID_00000170984315759015919900000014155511340933671077_" gradientUnits="userSpaceOnUse" x1="1556.0482" y1="-1899.97" x2="1556.9678" y2="-1848.4397" gradientTransform="matrix(0.545 -0.8385 0.8385 0.545 811.4888 2384.4714)">
					<stop  offset="0" style="stop-color:#7F60D1"/>
					<stop  offset="0.5176" style="stop-color:#704FC6"/>
					<stop  offset="0.6392" style="stop-color:#6D4DC1"/>
					<stop  offset="0.782" style="stop-color:#6547B3"/>
					<stop  offset="0.9351" style="stop-color:#583E9B"/>
					<stop  offset="1" style="stop-color:#51398F"/>
				</linearGradient>
				<path style="fill:url(#SVGID_00000170984315759015919900000014155511340933671077_);" d="M93.4,70.7l9.2-2
					c0.4,0.7,1,1.4,1.8,1.9c2.5,1.6,5.7,0.9,7.3-1.6c1.6-2.5,0.9-5.7-1.6-7.3c-2.5-1.6-5.7-0.9-7.3,1.6c-0.4,0.7-0.7,1.4-0.8,2.2
					l-8.7,1.9L64.1,48.2L62.3,51l29.9,19.4C92.5,70.7,93,70.8,93.4,70.7z M104.6,67.1l-0.2-0.7c-0.1-0.6,0.1-1.3,0.5-1.8
					c0.9-1.3,2.7-1.7,4-0.9c1.3,0.9,1.7,2.7,0.9,4c-0.9,1.3-2.7,1.7-4,0.9C105.2,68.2,104.8,67.7,104.6,67.1z"/>
				
					<linearGradient id="SVGID_00000170995634565811278600000017620146217316489616_" gradientUnits="userSpaceOnUse" x1="1561.6868" y1="-1899.4652" x2="1562.3848" y2="-1860.3517" gradientTransform="matrix(0.545 -0.8385 0.8385 0.545 811.4888 2384.4714)">
					<stop  offset="0" style="stop-color:#7F60D1"/>
					<stop  offset="0.5176" style="stop-color:#704FC6"/>
					<stop  offset="0.6392" style="stop-color:#6D4DC1"/>
					<stop  offset="0.782" style="stop-color:#6547B3"/>
					<stop  offset="0.9351" style="stop-color:#583E9B"/>
					<stop  offset="1" style="stop-color:#51398F"/>
				</linearGradient>
				<path style="fill:url(#SVGID_00000170995634565811278600000017620146217316489616_);" d="M73.7,47.7l-6-3.9l-1.9,3l19.9,12.9
					c0.4,0.2,0.8,0.3,1.3,0.2l10.8-2.3c0.3,0.5,0.8,0.9,1.3,1.2c2.1,1.4,4.9,0.8,6.3-1.3c1.4-2.1,0.8-4.9-1.3-6.3
					c-2.1-1.4-4.9-0.8-6.3,1.3c-0.4,0.6-0.5,1.1-0.6,1.7l-10,2.1l-9.3-6 M99.1,53.5c0.8-1.2,2.4-1.6,3.6-0.8
					c1.2,0.8,1.6,2.4,0.8,3.6c-0.8,1.2-2.4,1.6-3.6,0.8C98.7,56.3,98.4,54.7,99.1,53.5z"/>
				
					<linearGradient id="SVGID_00000027584931195973227840000005606844865099821743_" gradientUnits="userSpaceOnUse" x1="1536.5685" y1="-1899.5983" x2="1537.4816" y2="-1848.4331" gradientTransform="matrix(0.545 -0.8385 0.8385 0.545 811.4888 2384.4714)">
					<stop  offset="0" style="stop-color:#7F60D1"/>
					<stop  offset="0.5176" style="stop-color:#704FC6"/>
					<stop  offset="0.6392" style="stop-color:#6D4DC1"/>
					<stop  offset="0.782" style="stop-color:#6547B3"/>
					<stop  offset="0.9351" style="stop-color:#583E9B"/>
					<stop  offset="1" style="stop-color:#51398F"/>
				</linearGradient>
				<path style="fill:url(#SVGID_00000027584931195973227840000005606844865099821743_);" d="M90.3,83.8c-0.6,0.4-1.2,1-1.6,1.6
					c-1.6,2.5-0.9,5.8,1.5,7.4c2.5,1.6,5.7,0.9,7.3-1.6c1.6-2.5,0.9-5.7-1.6-7.3c-0.8-0.5-1.6-0.8-2.5-0.8l-1.9-9.2
					c-0.1-0.4-0.3-0.9-0.7-1.1L61,53.3l-1.8,2.8l29.3,19.1L90.3,83.8z M95.5,90c-0.9,1.3-2.7,1.7-4,0.9c-1.3-0.9-1.7-2.7-0.9-4
					c0.3-0.5,0.8-0.9,1.3-1.1l1.1-0.2c0.6,0,1.1,0.1,1.6,0.5C96,86.8,96.4,88.6,95.5,90z"/>
			</g>
			<g>
				
					<linearGradient id="XMLID_00000044148731822989631060000016337530109177152947_" gradientUnits="userSpaceOnUse" x1="1546.963" y1="-2975.3633" x2="1547.0408" y2="-2968.8923" gradientTransform="matrix(0.545 -0.8385 0.5639 0.3665 887.1376 2433.6404)">
					<stop  offset="0" style="stop-color:#7F60D1"/>
					<stop  offset="0.5176" style="stop-color:#704FC6"/>
					<stop  offset="0.6392" style="stop-color:#6D4DC1"/>
					<stop  offset="0.782" style="stop-color:#6547B3"/>
					<stop  offset="0.9351" style="stop-color:#583E9B"/>
					<stop  offset="1" style="stop-color:#51398F"/>
				</linearGradient>
				
					<path id="XMLID_00000091701916852655924250000002965289461622832061_" style="fill:url(#XMLID_00000044148731822989631060000016337530109177152947_);" d="
					M64.6,34.7L47,61.8c-0.6,0.9-1.9,1.2-2.8,0.6l0,0c-0.9-0.6-1.2-1.9-0.6-2.8l17.6-27.1c0.6-0.9,1.9-1.2,2.8-0.6v0
					C65,32.5,65.2,33.7,64.6,34.7z"/>
				
					<linearGradient id="XMLID_00000063597426554071361340000012928963896087661467_" gradientUnits="userSpaceOnUse" x1="1546.9615" y1="-2860.9268" x2="1547.0422" y2="-2854.4434" gradientTransform="matrix(0.545 -0.8385 0.585 0.3802 876.1607 2426.5059)">
					<stop  offset="0" style="stop-color:#7F60D1"/>
					<stop  offset="0.5176" style="stop-color:#704FC6"/>
					<stop  offset="0.6392" style="stop-color:#6D4DC1"/>
					<stop  offset="0.782" style="stop-color:#6547B3"/>
					<stop  offset="0.9351" style="stop-color:#583E9B"/>
					<stop  offset="1" style="stop-color:#51398F"/>
				</linearGradient>
				
					<path id="XMLID_00000023964841493366071000000013981747956030986896_" style="fill:url(#XMLID_00000063597426554071361340000012928963896087661467_);" d="
					M58.1,30.6l-17.6,27c-0.6,1-2,1.3-2.9,0.6l0,0c-1-0.6-1.3-2-0.6-2.9l17.6-27c0.6-1,2-1.3,2.9-0.6l0,0
					C58.5,28.3,58.8,29.6,58.1,30.6z"/>
				
					<linearGradient id="XMLID_00000003783230689473494350000005809664999219508117_" gradientUnits="userSpaceOnUse" x1="1546.9626" y1="-2868.7385" x2="1547.041" y2="-2862.418" gradientTransform="matrix(0.545 -0.8385 0.5827 0.3787 887.3219 2433.7603)">
					<stop  offset="0" style="stop-color:#7F60D1"/>
					<stop  offset="0.5176" style="stop-color:#704FC6"/>
					<stop  offset="0.6392" style="stop-color:#6D4DC1"/>
					<stop  offset="0.782" style="stop-color:#6547B3"/>
					<stop  offset="0.9351" style="stop-color:#583E9B"/>
					<stop  offset="1" style="stop-color:#51398F"/>
				</linearGradient>
				
					<path id="XMLID_00000181067457125812665930000017048142763450481805_" style="fill:url(#XMLID_00000003783230689473494350000005809664999219508117_);" d="
					M67.6,44.5L57.1,60.6c-0.6,1-1.9,1.3-2.9,0.6l0,0c-1-0.6-1.3-1.9-0.6-2.9l10.5-16.1c0.6-1,1.9-1.3,2.9-0.6v0
					C68,42.2,68.2,43.5,67.6,44.5z"/>
			</g>
		</g>
	</g>
</g>
</svg>
