<?xml version="1.0" encoding="utf-8"?>
<!-- Generator: Adobe Illustrator 26.1.0, SVG Export Plug-In . SVG Version: 6.00 Build 0)  -->
<svg version="1.1" id="Layer_1" xmlns="http://www.w3.org/2000/svg" xmlns:xlink="http://www.w3.org/1999/xlink" x="0px" y="0px"
	 viewBox="0 0 1114.9 749.5" style="enable-background:new 0 0 1114.9 749.5;" xml:space="preserve">
<style type="text/css">
	.st0{fill:#704FC6;}
	.st1{fill:url(#SVGID_1_);}
	.st2{fill:url(#SVGID_00000103958164573624718740000002247242774983662254_);}
	.st3{fill:url(#SVGID_00000049915200526116734600000002356757984979814279_);}
	.st4{fill:url(#SVGID_00000141424721954482252410000009904626922915823776_);}
	.st5{fill:url(#SVGID_00000155829526503964300960000011599908794090280585_);}
</style>
<g>
	<g>
		<g>
			<path id="d" d="M879.3,493.4c-16.3-2.5-30.8-7.5-32.2-8.8c-0.2-0.1,0.7-0.7,1.8-3.7C861.4,447.3,867,415,867.1,376
				c0.1-58.8-14.9-112.7-45.3-163c-23.2-38.4-60.4-75.8-100.5-100.9c-27-16.9-62.5-31.5-93.7-38.5c-26.6-6-36.8-7-70.3-6.9
				c-26.7,0-32.9,0.4-44.5,2.2c-36.9,5.9-63.9,14.4-93.5,29.3c-32,16.1-55.6,33-81.4,58.5L324.5,170l-16.6-7.4
				c-13.8-4.5-15.6-5.2-36.6-10.2c-6-1.4-13.2-1.8-13.3-1.9c-0.9-0.8,16-20.7,30.9-36.6c8.6-9.2,30.2-28,43.2-37.7
				c16.6-12.5,25.1-18.1,40.2-26.7c74.9-42.8,162.8-58.7,246-44.4c53.7,9.2,98.4,26.7,144.4,56.6c82.8,53.8,142.4,141,162.2,237.3
				c6.4,31,7.4,41.3,7.3,77.5c0,35.4-0.8,43.7-6.9,75c-3.1,15.8-11.4,40.3-11.4,40.3s-2.8,2.2-15.6,2.6
				C890.6,494.6,882.1,493.6,879.3,493.4L879.3,493.4z"/>
			<g>
				<path id="e" d="M762.7,61.7c82.8,53.8,142.4,141,162.2,237.3c6.4,31,7.4,41.3,7.3,77.5c0,35.4-0.8,43.7-6.9,75
					c-3.1,15.8-11.4,40.3-11.4,40.3s-2.8,2.2-15.6,2.6c-7.7,0.2-16.2-0.8-19-1c-16.3-2.5-30.8-7.5-32.2-8.8
					c-0.2-0.1,0.7-0.7,1.8-3.7C861.4,447.3,867,415,867.1,376c0.1-58.8-14.9-112.7-45.3-163c-23.2-38.4-60.4-75.8-100.5-100.9"/>
				<path id="f" d="M721.3,112.1c-27-16.9-62.5-31.5-93.7-38.5c-26.6-6-36.8-7-70.3-6.9c-26.7,0-32.9,0.4-44.5,2.2
					c-36.9,5.9-63.9,14.4-93.5,29.3c-32,16.1-55.6,33-81.4,58.5L324.5,170l-16.6-7.4c-13.8-4.5-15.6-5.2-36.6-10.2
					c-6-1.4-13.2-1.8-13.3-1.9c-0.9-0.8,16-20.7,30.9-36.6c8.6-9.2,30.2-28,43.2-37.7c16.6-12.5,25.1-18.1,40.2-26.7
					c74.9-42.8,162.8-58.7,246-44.4c53.7,9.2,98.4,26.7,144.4,56.6"/>
			</g>
		</g>
		<g>
			<path id="g" d="M235.6,256.1c16.3,2.5,30.8,7.5,32.2,8.8c0.2,0.1-0.7,0.7-1.8,3.7c-12.5,33.6-18.1,65.9-18.2,104.9
				c-0.1,58.8,14.9,112.7,45.3,163c23.2,38.4,60.4,75.8,100.5,100.9c27,16.9,62.5,31.5,93.7,38.5c26.6,6,36.8,7,70.3,6.9
				c26.7,0,32.9-0.4,44.5-2.2c36.9-5.9,63.9-14.4,93.5-29.3c32-16.1,55.6-33,81.4-58.5l13.4-13.3l16.6,7.4
				c13.8,4.5,15.6,5.2,36.6,10.2c6,1.4,13.2,1.8,13.3,1.9c0.9,0.8-16,20.7-30.9,36.6c-8.6,9.2-30.2,28-43.2,37.7
				c-16.6,12.5-25.1,18.1-40.2,26.7c-74.9,42.8-162.8,58.7-246,44.4c-53.7-9.2-98.4-26.7-144.4-56.6
				C269.4,634,209.8,546.8,190,450.5c-6.4-31-7.4-41.3-7.3-77.5c0-35.4,0.8-43.7,6.9-75c3.1-15.8,11.4-40.3,11.4-40.3
				s2.8-2.2,15.6-2.6C224.3,254.9,232.8,255.9,235.6,256.1L235.6,256.1z"/>
			<g>
				<path id="h" d="M352.2,687.8C269.4,634,209.8,546.8,190,450.5c-6.4-31-7.4-41.3-7.3-77.5c0-35.4,0.8-43.7,6.9-75
					c3.1-15.8,11.4-40.3,11.4-40.3s2.8-2.2,15.6-2.6c7.7-0.2,16.2,0.8,19,1c16.3,2.5,30.8,7.5,32.2,8.8c0.2,0.1-0.7,0.7-1.8,3.7
					c-12.5,33.6-18.1,65.9-18.2,104.9c-0.1,58.8,14.9,112.7,45.3,163c23.2,38.4,60.4,75.8,100.5,100.9"/>
				<path id="i" d="M393.6,637.4c27,16.9,62.5,31.5,93.7,38.5c26.6,6,36.8,7,70.3,6.9c26.7,0,32.9-0.4,44.5-2.2
					c36.9-5.9,63.9-14.4,93.5-29.3c32-16.1,55.6-33,81.4-58.5l13.4-13.3l16.6,7.4c13.8,4.5,15.6,5.2,36.6,10.2
					c6,1.4,13.2,1.8,13.3,1.9c0.9,0.8-16,20.7-30.9,36.6c-8.6,9.2-30.2,28-43.2,37.7c-16.6,12.5-25.1,18.1-40.2,26.7
					c-74.9,42.8-162.8,58.7-246,44.4c-53.7-9.2-98.4-26.7-144.4-56.6"/>
			</g>
		</g>
	</g>
	<g>
		<path class="st0" d="M331.4,555c1,0,18.7-7.7,28.9-12.5c47.2-22.6,97-55,181.5-117.9c81-60.3,81.7-60.8,98-72.2
			c67.5-47.3,117.4-75.6,165.5-93.9c6.5-2.5,12.7-4.5,13.6-4.5c1.3,0,0.5-2.3-3.9-10.8c-7-13.6-13.4-24-22.8-36.9l-7.5-10.2
			l-4.2,1.9c-2.3,1-10.1,4.4-17.3,7.4c-62.3,26.1-135.3,72.7-249.9,159.6c-37.6,28.5-48.6,36.7-68,50.6
			c-51.3,36.7-97.2,64.1-136.1,79.4l-10.1,4.1l2,5.1c5.6,11.6,16.1,32.5,26,45.6C329.3,552.6,331.2,555,331.4,555L331.4,555z"/>
		<g>
			<path class="st0" d="M216.8,578.3c0,0-2.9-4.4-5.2-8.5c-5.7-9.9-15.2-31.1-21.3-45.7c-2.8-6.9-4.8-12.8-5.6-13.2
				s-5.7-1.7-10.9-2.9c-50.2-11.5-89.2-48-102.4-95.9c-4.2-15.2-5-21.9-4.9-39.1c0.1-24.1,3.8-38.9,14.8-59.7
				c6.1-11.6,13.6-21.2,25.7-32.8c13.3-12.9,25.1-21.2,41.3-29c22.5-10.9,39.4-15.3,62-16.2c26.7-1,45,1.8,72.9,11.1
				C318,258,356,278.3,406.8,312.5c19.3,13,32.1,22,67.2,47.3l5.9,4.2l2.8-1.9c1.5-1.1,10.4-7.7,19.9-14.8c9.4-7,20.3-15,24.1-17.8
				c3.9-2.7,6.9-5.3,6.8-5.7c-0.1-0.3-8.1-6.4-17.7-13.5c-66.3-49-116.7-81.6-160.5-103.8c-22.8-11.6-31.9-15.5-51.5-22.3
				c-18.4-6.4-18.9-6.5-39.7-11.2c-19.3-4.4-51.6-5.6-72.8-2.6c-25.8,3.6-47.2,10.5-72,23.1c-16.6,8.3-23.4,12.5-34.5,20.8
				c-42.4,32-71,74.2-80.5,118.8c-5.6,25.9-5.7,50-0.5,77.4c5.5,29.1,14.1,50.2,30.3,74.5c32.3,48.5,81.7,80,141.7,90.5
				c5.2,1,14.9,2,21.5,2.4C208.2,578.5,216.8,578.7,216.8,578.3L216.8,578.3z"/>
			<g>
				
					<linearGradient id="SVGID_1_" gradientUnits="userSpaceOnUse" x1="84.8607" y1="590.7224" x2="452.4107" y2="310.6324" gradientTransform="matrix(1 0 0 -1 0 748.6614)">
					<stop  offset="0.2" style="stop-color:#704FC6"/>
					<stop  offset="0.21" style="stop-color:#7150C6"/>
					<stop  offset="0.34" style="stop-color:#7B5CCE"/>
					<stop  offset="0.46" style="stop-color:#7F60D1"/>
					<stop  offset="0.75" style="stop-color:#704FC6"/>
					<stop  offset="0.85" style="stop-color:#6E4EC4"/>
					<stop  offset="0.88" style="stop-color:#6B4BBD;stop-opacity:0.98"/>
					<stop  offset="0.91" style="stop-color:#6446B1;stop-opacity:0.95"/>
					<stop  offset="0.93" style="stop-color:#5A40A0;stop-opacity:0.91"/>
					<stop  offset="0.95" style="stop-color:#4E378A;stop-opacity:0.85"/>
					<stop  offset="0.96" style="stop-color:#3F2C6F;stop-opacity:0.78"/>
					<stop  offset="0.98" style="stop-color:#2C1F4E;stop-opacity:0.7"/>
					<stop  offset="0.99" style="stop-color:#18112A;stop-opacity:0.61"/>
					<stop  offset="1" style="stop-color:#000001;stop-opacity:0.5"/>
					<stop  offset="1" style="stop-color:#000000;stop-opacity:0.5"/>
				</linearGradient>
				<path class="st1" d="M81.3,313.3c6.1-11.6,13.6-21.2,25.7-32.8c13.3-12.9,25.1-21.2,41.3-29c22.5-10.9,39.4-15.3,62-16.2
					c26.7-1,45,1.8,72.9,11.1C318,258,356,278.3,406.8,312.5c19.3,13,32.1,22,67.2,47.3l5.9,4.2l2.8-1.9c1.5-1.1,10.4-7.7,19.9-14.8
					c9.4-7,20.3-15,24.1-17.8c3.9-2.7,6.9-5.3,6.8-5.7c-0.1-0.3-8.1-6.4-17.7-13.5c-66.3-49-116.7-81.6-160.5-103.8
					c-22.8-11.6-31.9-15.5-51.5-22.3c-18.4-6.4-18.9-6.5-39.7-11.2c-19.3-4.4-51.6-5.6-72.8-2.6c-25.8,3.6-47.2,10.5-72,23.1
					c-16.6,8.3-23.4,12.5-34.5,20.8c-27.1,20.4-48.5,45-63,71.8"/>
				
					<linearGradient id="SVGID_00000098908327166990532860000013786545037837469355_" gradientUnits="userSpaceOnUse" x1="21.4586" y1="280.8266" x2="168.9086" y2="334.4966" gradientTransform="matrix(1 0 0 -1 0 748.6614)">
					<stop  offset="0" style="stop-color:#704FC6"/>
					<stop  offset="0.1" style="stop-color:#704FC6"/>
					<stop  offset="0.7" style="stop-color:#704FC6"/>
					<stop  offset="0.74" style="stop-color:#6C4CC0;stop-opacity:0.99"/>
					<stop  offset="0.78" style="stop-color:#6346B0;stop-opacity:0.95"/>
					<stop  offset="0.83" style="stop-color:#553C96;stop-opacity:0.88"/>
					<stop  offset="0.88" style="stop-color:#402D72;stop-opacity:0.79"/>
					<stop  offset="0.93" style="stop-color:#261A43;stop-opacity:0.67"/>
					<stop  offset="0.99" style="stop-color:#06040B;stop-opacity:0.53"/>
					<stop  offset="1" style="stop-color:#000000;stop-opacity:0.5"/>
				</linearGradient>
				<path style="fill:url(#SVGID_00000098908327166990532860000013786545037837469355_);" d="M21.8,286.1
					c-8.2,15.1-14.1,30.9-17.5,47c-5.6,25.9-5.7,50-0.5,77.4c5.5,29.1,14.1,50.2,30.3,74.5c32.3,48.5,81.7,80,141.7,90.5
					c5.2,1,14.9,2,21.5,2.4c10.9,0.6,19.5,0.8,19.5,0.4c0,0-2.9-4.4-5.2-8.5c-5.7-9.9-15.2-31.1-21.3-45.7
					c-2.8-6.9-4.8-12.8-5.6-13.2s-5.7-1.7-10.9-2.9c-50.2-11.5-89.2-48-102.4-95.9c-4.2-15.2-5-21.9-4.9-39.1
					c0.1-24.1,3.8-38.9,14.8-59.7"/>
			</g>
		</g>
		<g>
			<path class="st0" d="M898.1,171.2c0,0,2.9,4.4,5.2,8.5c5.7,9.9,15.2,31.1,21.3,45.7c2.8,6.9,4.8,12.8,5.6,13.2s5.7,1.7,10.9,2.9
				c50.2,11.5,89.2,48,102.4,95.9c4.2,15.2,5,21.9,4.9,39.1c-0.1,24.1-3.8,38.9-14.8,59.7c-6.1,11.6-13.6,21.2-25.7,32.8
				c-13.3,12.9-25.1,21.2-41.3,29c-22.5,10.9-39.4,15.3-62,16.2c-26.7,1-45-1.8-72.9-11.1c-34.8-11.6-72.8-31.9-123.6-66.1
				c-19.3-13-32.1-22-67.2-47.3l-5.9-4.2l-2.8,1.9c-1.5,1.1-10.4,7.7-19.9,14.8c-9.4,7-20.3,15-24.1,17.8c-3.9,2.7-6.9,5.3-6.8,5.7
				c0.1,0.3,8.1,6.4,17.7,13.5c66.3,49,116.7,81.6,160.5,103.8c22.8,11.6,31.9,15.5,51.5,22.3c18.4,6.4,18.9,6.5,39.7,11.2
				c19.3,4.4,51.6,5.6,72.8,2.6c25.8-3.6,47.2-10.5,72-23.1c16.6-8.3,23.4-12.5,34.5-20.8c42.4-32,71-74.2,80.5-118.8
				c5.6-25.9,5.7-50,0.5-77.4c-5.5-29.1-14.1-50.2-30.3-74.5c-32.3-48.5-81.7-80-141.7-90.5c-5.2-1-14.9-2-21.5-2.4
				C906.7,171,898.1,170.8,898.1,171.2L898.1,171.2z"/>
			<g>
				
					<linearGradient id="SVGID_00000082356045214973896190000011143313517054401700_" gradientUnits="userSpaceOnUse" x1="176.8608" y1="550.7224" x2="544.4108" y2="270.6324" gradientTransform="matrix(-1 0 0 1 1206.89 40.8686)">
					<stop  offset="0.2" style="stop-color:#704FC6"/>
					<stop  offset="0.21" style="stop-color:#7150C6"/>
					<stop  offset="0.34" style="stop-color:#7B5CCE"/>
					<stop  offset="0.46" style="stop-color:#7F60D1"/>
					<stop  offset="0.75" style="stop-color:#704FC6"/>
					<stop  offset="0.85" style="stop-color:#6E4EC4"/>
					<stop  offset="0.88" style="stop-color:#6B4BBD;stop-opacity:0.98"/>
					<stop  offset="0.91" style="stop-color:#6446B1;stop-opacity:0.95"/>
					<stop  offset="0.93" style="stop-color:#5A40A0;stop-opacity:0.91"/>
					<stop  offset="0.95" style="stop-color:#4E378A;stop-opacity:0.85"/>
					<stop  offset="0.96" style="stop-color:#3F2C6F;stop-opacity:0.78"/>
					<stop  offset="0.98" style="stop-color:#2C1F4E;stop-opacity:0.7"/>
					<stop  offset="0.99" style="stop-color:#18112A;stop-opacity:0.61"/>
					<stop  offset="1" style="stop-color:#000001;stop-opacity:0.5"/>
					<stop  offset="1" style="stop-color:#000000;stop-opacity:0.5"/>
				</linearGradient>
				<path style="fill:url(#SVGID_00000082356045214973896190000011143313517054401700_);" d="M1033.6,436.2
					c-6.1,11.6-13.6,21.2-25.7,32.8c-13.3,12.9-25.1,21.2-41.3,29c-22.5,10.9-39.4,15.3-62,16.2c-26.7,1-45-1.8-72.9-11.1
					c-34.8-11.6-72.8-31.9-123.6-66.1c-19.3-13-32.1-22-67.2-47.3l-5.9-4.2l-2.8,1.9c-1.5,1.1-10.4,7.7-19.9,14.8
					c-9.4,7-20.3,15-24.1,17.8c-3.9,2.7-6.9,5.3-6.8,5.7c0.1,0.3,8.1,6.4,17.7,13.5c66.3,49,116.7,81.6,160.5,103.8
					c22.8,11.6,31.9,15.5,51.5,22.3c18.4,6.4,18.9,6.5,39.7,11.2c19.3,4.4,51.6,5.6,72.8,2.6c25.8-3.6,47.2-10.5,72-23.1
					c16.6-8.3,23.4-12.5,34.5-20.8c27.1-20.4,48.5-45,63-71.8"/>
				
					<linearGradient id="SVGID_00000121242702156870412780000015832203644237024645_" gradientUnits="userSpaceOnUse" x1="113.4586" y1="240.8266" x2="260.9086" y2="294.4966" gradientTransform="matrix(-1 0 0 1 1206.89 40.8686)">
					<stop  offset="0" style="stop-color:#704FC6"/>
					<stop  offset="0.1" style="stop-color:#704FC6"/>
					<stop  offset="0.7" style="stop-color:#704FC6"/>
					<stop  offset="0.74" style="stop-color:#6C4CC0;stop-opacity:0.99"/>
					<stop  offset="0.78" style="stop-color:#6346B0;stop-opacity:0.95"/>
					<stop  offset="0.83" style="stop-color:#553C96;stop-opacity:0.88"/>
					<stop  offset="0.88" style="stop-color:#402D72;stop-opacity:0.79"/>
					<stop  offset="0.93" style="stop-color:#261A43;stop-opacity:0.67"/>
					<stop  offset="0.99" style="stop-color:#06040B;stop-opacity:0.53"/>
					<stop  offset="1" style="stop-color:#000000;stop-opacity:0.5"/>
				</linearGradient>
				<path style="fill:url(#SVGID_00000121242702156870412780000015832203644237024645_);" d="M1093.1,463.4
					c8.2-15.1,14.1-30.9,17.5-47c5.6-25.9,5.7-50,0.5-77.4c-5.5-29.1-14.1-50.2-30.3-74.5c-32.3-48.5-81.7-80-141.7-90.5
					c-5.2-1-14.9-2-21.5-2.4c-10.9-0.6-19.5-0.8-19.5-0.4c0,0,2.9,4.4,5.2,8.5c5.7,9.9,15.2,31.1,21.3,45.7
					c2.8,6.9,4.8,12.8,5.6,13.2s5.7,1.7,10.9,2.9c50.2,11.5,89.2,48,102.4,95.9c4.2,15.2,5,21.9,4.9,39.1
					c-0.1,24.1-3.8,38.9-14.8,59.7"/>
			</g>
		</g>
		
			<linearGradient id="SVGID_00000179635621879235559490000001268118857381858750_" gradientUnits="userSpaceOnUse" x1="315.6812" y1="215.8841" x2="800.361" y2="530.644" gradientTransform="matrix(1 0 0 -1 0 748.6614)">
			<stop  offset="0" style="stop-color:#000000;stop-opacity:0.5"/>
			<stop  offset="0" style="stop-color:#000001;stop-opacity:0.5"/>
			<stop  offset="1.000000e-02" style="stop-color:#18112A;stop-opacity:0.61"/>
			<stop  offset="2.000000e-02" style="stop-color:#2C1F4E;stop-opacity:0.7"/>
			<stop  offset="4.000000e-02" style="stop-color:#3F2C6F;stop-opacity:0.78"/>
			<stop  offset="5.000000e-02" style="stop-color:#4E378A;stop-opacity:0.85"/>
			<stop  offset="7.000000e-02" style="stop-color:#5A40A0;stop-opacity:0.91"/>
			<stop  offset="9.000000e-02" style="stop-color:#6446B1;stop-opacity:0.95"/>
			<stop  offset="0.12" style="stop-color:#6B4BBD;stop-opacity:0.98"/>
			<stop  offset="0.15" style="stop-color:#6E4EC4"/>
			<stop  offset="0.25" style="stop-color:#704FC6"/>
			<stop  offset="0.5" style="stop-color:#7F60D1"/>
			<stop  offset="0.75" style="stop-color:#704FC6"/>
			<stop  offset="0.85" style="stop-color:#6E4EC4"/>
			<stop  offset="0.88" style="stop-color:#6B4BBD;stop-opacity:0.98"/>
			<stop  offset="0.91" style="stop-color:#6446B1;stop-opacity:0.95"/>
			<stop  offset="0.93" style="stop-color:#5A40A0;stop-opacity:0.91"/>
			<stop  offset="0.95" style="stop-color:#4E378A;stop-opacity:0.85"/>
			<stop  offset="0.96" style="stop-color:#3F2C6F;stop-opacity:0.78"/>
			<stop  offset="0.98" style="stop-color:#2C1F4E;stop-opacity:0.7"/>
			<stop  offset="0.99" style="stop-color:#18112A;stop-opacity:0.61"/>
			<stop  offset="1" style="stop-color:#000001;stop-opacity:0.5"/>
			<stop  offset="1" style="stop-color:#000000;stop-opacity:0.5"/>
		</linearGradient>
		<path style="fill:url(#SVGID_00000179635621879235559490000001268118857381858750_);" d="M331.4,555c1,0,18.7-7.7,28.9-12.5
			c47.2-22.6,97-55,181.5-117.9c81-60.3,81.7-60.8,98-72.2c67.5-47.3,117.4-75.6,165.5-93.9c6.5-2.5,12.7-4.5,13.6-4.5
			c1.3,0,0.5-2.3-3.9-10.8c-7-13.6-13.4-24-22.8-36.9l-7.5-10.2l-4.2,1.9c-2.3,1-10.1,4.4-17.3,7.4
			c-62.3,26.1-135.3,72.7-249.9,159.6c-37.6,28.5-48.6,36.7-68,50.6c-51.3,36.7-97.2,64.1-136.1,79.4l-10.1,4.1l2,5.1
			c5.6,11.6,16.1,32.5,26,45.6C329.3,552.6,331.2,555,331.4,555L331.4,555z"/>
	</g>
</g>
</svg>
