<svg width="218" height="219" viewBox="0 0 218 219" fill="none" xmlns="http://www.w3.org/2000/svg">
<g clip-path="url(#clip0_687_2088)">
<path d="M107.799 136.273C99.4492 135.825 91.8894 131.62 86.9505 124.681C84.8216 121.69 83.1848 117.795 82.5259 114.167C81.8954 110.684 81.9399 106.889 82.6421 103.616C82.7435 103.154 82.9104 102.518 83.3369 100.921C83.3801 100.769 83.4741 100.574 83.4741 100.574C83.7349 100.531 84.0749 100.48 84.473 100.458C84.9292 100.436 85.2988 100.458 85.7835 100.501C87.3337 100.645 88.3326 101.072 88.3326 101.072C88.3326 101.072 88.2164 101.419 88.1015 101.78C87.4499 103.688 87.0803 105.343 86.9431 106.998C86.7984 108.71 86.7762 109.484 86.864 110.604C87.1174 113.906 87.7615 116.319 89.1523 119.146C92.2158 125.361 97.8285 129.696 104.686 131.15C106.561 131.539 109.618 131.691 111.479 131.475C115.273 131.042 118.243 130.023 121.271 128.122C122.776 127.176 123.993 126.185 125.355 124.797L126.144 123.995L127.383 124.465C128.657 124.87 129.679 125.065 130.591 125.224L131.113 125.318L130.844 125.65C129.78 126.98 127.702 129.126 126.63 130.007C123.9 132.24 120.801 133.953 117.542 135.015C115.594 135.65 112.988 136.157 111.169 136.243C109.264 136.33 108.881 136.337 107.801 136.272L107.799 136.273Z" fill="url(#paint0_linear_687_2088)"/>
<path d="M132.529 117.737C131.349 117.557 130.299 117.195 130.198 117.102C130.183 117.094 130.248 117.051 130.327 116.834C131.232 114.406 131.638 112.072 131.645 109.253C131.653 105.004 130.566 101.108 128.364 97.4737C126.684 94.6992 123.99 91.9962 121.086 90.1826C119.131 88.9613 116.56 87.9065 114.3 87.4007C112.374 86.9677 111.635 86.8949 109.209 86.9023C107.276 86.9023 106.827 86.9307 105.986 87.0614C103.315 87.4883 101.359 88.1027 99.2154 89.1784C96.8986 90.3418 95.1889 91.5631 93.3209 93.4063L92.3504 94.3673L91.1487 93.8331C90.1498 93.5074 90.0188 93.4569 88.4982 93.0966C88.0642 92.9955 87.5425 92.9671 87.5351 92.9597C87.4696 92.9017 88.6935 91.4632 89.7728 90.3147C90.3959 89.6497 91.9597 88.2914 92.9018 87.5907C94.1034 86.6876 94.7191 86.283 95.8132 85.6612C101.238 82.5659 107.604 81.4161 113.629 82.4499C117.518 83.1149 120.755 84.3794 124.087 86.5396C130.083 90.4269 134.398 96.7286 135.833 103.688C136.296 105.928 136.368 106.672 136.362 109.289C136.362 111.847 136.304 112.447 135.862 114.708C135.637 115.851 135.036 117.621 135.036 117.621C135.036 117.621 134.834 117.78 133.906 117.809C133.349 117.823 132.733 117.751 132.53 117.736L132.529 117.737Z" fill="url(#paint1_linear_687_2088)"/>
<path d="M132.602 123.916C131.249 123.838 129.771 123.562 128.38 123.122C124.825 121.98 120.95 120.138 116.815 117.601C115.084 116.546 110.123 113.193 110.123 113.085C110.123 113.049 112.31 111.401 113.404 110.621L114.071 110.151L114.823 110.679C120.348 114.56 125.332 117.205 129.531 118.506C131.349 119.062 132.565 119.236 133.616 119.257C134.761 119.279 135.318 119.105 136.079 118.91C139.33 118.079 141.902 116.048 143.349 113.18C143.711 112.457 143.965 111.698 144.16 110.773C144.355 109.855 144.37 108.12 144.196 107.195C143.53 103.683 141.053 100.901 137.562 99.7523C137.222 99.6363 136.773 99.5142 136.563 99.471L136.18 99.3921L135.688 98.1991C135.116 96.8038 134.899 96.3424 134.305 95.2864C134.066 94.8533 133.871 94.4919 133.871 94.4697C133.871 94.4043 134.971 94.4474 135.847 94.5486C140.424 95.0828 144.321 97.4823 146.84 101.328C147.89 102.932 148.637 104.789 148.969 106.654C149.331 108.669 149.136 111.192 148.462 113.208C147.391 116.402 145.11 119.322 142.097 121.345C141.445 121.779 139.685 122.711 139.272 122.842C139.148 122.878 138.787 123.001 138.468 123.117C136.796 123.731 134.637 124.028 132.602 123.919V123.916ZM84.5533 123.873C84.5533 123.873 84.3431 123.555 84.1762 123.259C83.7633 122.543 83.0759 121.011 82.6334 119.956C82.4306 119.458 82.286 119.031 82.2279 119.003C82.1698 118.974 81.8149 118.879 81.4391 118.793C77.8032 117.961 74.9796 115.324 74.024 111.862C73.7198 110.764 73.6617 110.279 73.6691 109.037C73.6766 107.295 73.9448 106.225 74.741 104.723C75.1823 103.885 75.7263 103.191 76.6016 102.353C77.5646 101.42 78.4189 100.821 79.5921 100.257C81.2215 99.4698 82.4454 99.1515 84.0823 99.0861C86.0158 99.0133 87.3411 99.2156 89.3612 99.888C91.8807 100.726 94.6326 102.194 98.3118 104.665C99.71 105.605 100.636 106.255 103.178 108.083L103.605 108.387L103.808 108.25C103.917 108.171 104.561 107.694 105.25 107.18C105.931 106.675 106.72 106.096 106.995 105.894C107.277 105.699 107.495 105.511 107.487 105.482C107.48 105.459 106.901 105.019 106.205 104.506C101.404 100.965 97.7542 98.6087 94.5819 97.0049C92.9303 96.1672 92.2713 95.8847 90.8521 95.3937C89.5194 94.9311 89.4835 94.9236 87.9765 94.5844C86.5783 94.2661 84.2393 94.1797 82.7051 94.3969C80.837 94.6572 79.2868 95.1556 77.4905 96.066C76.2888 96.6656 75.7955 96.9691 74.992 97.5687C71.9211 99.8806 69.8503 102.93 69.1629 106.154C68.7574 108.025 68.75 109.767 69.1271 111.747C69.5252 113.851 70.1482 115.376 71.3215 117.131C73.6605 120.636 77.2383 122.912 81.5825 123.671C81.9596 123.744 82.6618 123.815 83.139 123.845C83.9277 123.888 84.5508 123.903 84.5508 123.873H84.5533ZM92.8524 122.189C92.9253 122.189 94.2061 121.633 94.9454 121.286C98.3637 119.653 101.97 117.311 108.089 112.766C113.956 108.409 114.006 108.373 115.187 107.549C120.075 104.131 123.689 102.086 127.171 100.764C127.642 100.584 128.091 100.438 128.157 100.438C128.251 100.438 128.192 100.272 127.875 99.6573C127.368 98.6741 126.904 97.9227 126.223 96.9913L125.68 96.2548L125.376 96.3917C125.209 96.4645 124.644 96.71 124.124 96.9259C119.613 98.8122 114.326 102.18 106.027 108.46C103.305 110.519 102.508 111.112 101.103 112.116C97.3883 114.769 94.0639 116.749 91.2477 117.854L90.5158 118.15L90.6605 118.519C91.066 119.357 91.8263 120.868 92.5433 121.814C92.7028 122.017 92.84 122.191 92.8549 122.191L92.8524 122.189Z" fill="#EA698B"/>
</g>
<g clip-path="url(#clip1_687_2088)">
<path d="M20.3403 130.603C13.7457 130.249 7.77448 126.919 3.87407 121.428C2.19241 119.06 0.899904 115.978 0.380437 113.106C-0.117899 110.349 -0.0826806 107.346 0.472004 104.756C0.551245 104.39 0.683313 103.886 1.02141 102.624C1.05486 102.504 1.13058 102.349 1.13058 102.349C1.33661 102.316 1.60603 102.275 1.91947 102.257C2.28045 102.24 2.571 102.257 2.95488 102.291C4.17871 102.405 4.96759 102.743 4.96759 102.743C4.96759 102.743 4.87603 103.018 4.78446 103.303C4.27028 104.813 3.97797 106.123 3.86879 107.433C3.75433 108.789 3.73672 109.4 3.8054 110.287C4.00614 112.9 4.51504 114.811 5.61208 117.047C8.03157 121.965 12.4638 125.397 17.8803 126.547C19.3612 126.856 21.7754 126.977 23.2458 126.804C26.2428 126.461 28.5884 125.655 30.9779 124.151C32.1683 123.402 33.128 122.619 34.2039 121.52L34.8273 120.884L35.8046 121.256C36.8118 121.576 37.6183 121.731 38.3385 121.856L38.7505 121.93L38.5392 122.193C37.6993 123.246 36.0564 124.943 35.2111 125.642C33.0558 127.41 30.6064 128.764 28.0337 129.606C26.4947 130.11 24.4362 130.509 23.001 130.578C21.4972 130.647 21.1943 130.652 20.3421 130.601L20.3403 130.603Z" fill="#EA698B"/>
<path d="M39.8723 115.933C38.9408 115.79 38.1114 115.503 38.0304 115.429C38.0198 115.424 38.0709 115.389 38.1325 115.218C38.8474 113.297 39.1679 111.449 39.1732 109.218C39.1785 105.855 38.3209 102.773 36.5829 99.8961C35.2552 97.7003 33.128 95.5608 30.8353 94.1256C29.291 93.1589 27.2607 92.3242 25.4769 91.9245C23.9555 91.5811 23.3726 91.5248 21.4567 91.5301C19.93 91.5301 19.5743 91.5529 18.9122 91.6551C16.8027 91.9932 15.2583 92.4792 13.5644 93.3315C11.7348 94.2524 10.3842 95.2192 8.90852 96.6772L8.14253 97.4379L7.1934 97.0153C6.40452 96.7582 6.30062 96.7177 5.09969 96.4324C4.75631 96.3532 4.34426 96.3303 4.33898 96.3232C4.28791 96.2775 5.25465 95.1399 6.10692 94.2295C6.59822 93.703 7.83437 92.6289 8.57747 92.0742C9.5266 91.3592 10.0126 91.0388 10.8772 90.5475C15.1615 88.0998 20.1889 87.1894 24.9468 88.0082C28.0179 88.5348 30.5747 89.5349 33.2055 91.2448C37.9406 94.3211 41.3497 99.3097 42.4819 104.816C42.8482 106.589 42.9046 107.177 42.8993 109.248C42.8993 111.273 42.8535 111.747 42.5048 113.538C42.327 114.441 41.8533 115.843 41.8533 115.843C41.8533 115.843 41.6931 115.968 40.9605 115.991C40.5203 116.001 40.0343 115.945 39.874 115.934L39.8723 115.933Z" fill="#EA698B"/>
<path d="M20.7171 117.558C20.5252 117.489 20.0762 117.289 19.7169 117.113C18.9985 116.757 18.7168 116.642 18.1638 116.484C17.2165 116.215 16.2198 116.072 14.7811 115.998C13.8408 115.952 13.2086 115.964 11.291 116.075L10.9107 116.097L10.8702 115.991C10.8173 115.848 10.8138 102.777 10.8666 102.634C10.8878 102.582 10.9353 102.524 10.9723 102.508C11.041 102.483 13.1329 103.087 13.3301 103.194C13.3389 103.194 13.3513 105.728 13.3636 108.817L13.3847 114.434L14.4061 114.462C17.4137 114.54 19.5215 115.014 21.1398 115.973C21.2753 116.054 21.3035 116.06 21.3845 116.01C21.6222 115.859 22.3284 115.508 22.6189 115.389C24.0611 114.813 26.3168 114.454 28.4827 114.454C28.9247 114.454 29.136 114.438 29.1695 114.404C29.2065 114.367 29.2188 113.068 29.2188 108.812C29.2188 102.846 29.2065 103.182 29.4142 103.12C29.4512 103.108 29.946 102.962 30.5131 102.793C31.0765 102.622 31.5714 102.495 31.6083 102.508C31.6453 102.524 31.6946 102.582 31.714 102.634C31.7668 102.777 31.7633 115.848 31.7105 115.991C31.7105 116.003 31.7069 116.017 31.7034 116.033C31.6946 116.061 31.6805 116.082 31.67 116.097L31.2896 116.075C29.3737 115.964 28.7398 115.952 27.7995 115.998C26.3608 116.072 25.3642 116.215 24.4168 116.484C23.8656 116.642 23.5874 116.753 22.8232 117.13C21.6187 117.718 21.3405 117.776 20.7189 117.56L20.7171 117.558Z" fill="#4A0090"/>
<path d="M20.166 114.469C19.0056 113.996 17.1989 113.661 15.1862 113.554C14.7248 113.529 14.3445 113.489 14.3163 113.464C14.2423 113.402 14.2388 100.602 14.3128 100.528C14.3409 100.5 14.3938 100.479 14.436 100.479C14.5417 100.479 20.5693 102.886 20.6062 102.943C20.6221 102.971 20.6397 105.57 20.6397 108.72C20.6397 113.872 20.6309 114.452 20.5745 114.51C20.4935 114.591 20.4689 114.587 20.1695 114.469H20.166Z" fill="#4A0090"/>
<path d="M22.0079 114.51C21.9516 114.454 21.9427 113.872 21.9427 108.72C21.9427 105.57 21.9586 102.971 21.9762 102.943C22.0132 102.886 28.039 100.479 28.1464 100.479C28.1869 100.479 28.2397 100.5 28.2697 100.528C28.3436 100.602 28.3384 113.402 28.2662 113.464C28.238 113.489 27.8576 113.529 27.3963 113.554C25.4346 113.659 23.841 113.941 22.5591 114.417C22.3178 114.503 22.2403 114.575 22.0977 114.575C22.0836 114.575 22.0273 114.538 22.0114 114.51H22.0079Z" fill="#4A0090"/>
</g>
<g clip-path="url(#clip2_687_2088)">
<path d="M107.887 218.119C101.292 217.765 95.3209 214.436 91.4205 208.945C89.7388 206.577 88.4463 203.495 87.9268 200.623C87.4285 197.865 87.4637 194.863 88.0184 192.273C88.0976 191.906 88.2297 191.403 88.5678 190.14C88.6012 190.021 88.677 189.866 88.677 189.866C88.883 189.832 89.1524 189.792 89.4659 189.774C89.8268 189.756 90.1174 189.774 90.5013 189.807C91.7251 189.922 92.514 190.26 92.514 190.26C92.514 190.26 92.4224 190.535 92.3308 190.82C91.8167 192.329 91.5244 193.639 91.4152 194.949C91.3007 196.305 91.2831 196.916 91.3518 197.804C91.5525 200.417 92.0614 202.328 93.1585 204.564C95.578 209.482 100.01 212.914 105.427 214.064C106.908 214.372 109.322 214.494 110.792 214.321C113.789 213.978 116.135 213.171 118.524 211.667C119.715 210.919 120.674 210.135 121.75 209.037L122.374 208.401L123.351 208.772C124.358 209.093 125.165 209.248 125.885 209.373L126.297 209.447L126.086 209.709C125.246 210.762 123.603 212.46 122.758 213.159C120.602 214.927 118.153 216.281 115.58 217.123C114.041 217.626 111.983 218.026 110.547 218.095C109.044 218.163 108.741 218.169 107.888 218.118L107.887 218.119Z" fill="#EA698B"/>
<path d="M127.419 203.449C126.487 203.307 125.658 203.02 125.577 202.946C125.566 202.94 125.617 202.905 125.679 202.734C126.394 200.813 126.714 198.966 126.719 196.735C126.725 193.372 125.867 190.29 124.129 187.413C122.801 185.217 120.674 183.077 118.382 181.642C116.837 180.675 114.807 179.841 113.023 179.441C111.502 179.098 110.919 179.041 109.003 179.047C107.476 179.047 107.121 179.07 106.458 179.172C104.349 179.51 102.805 179.996 101.111 180.848C99.281 181.769 97.9304 182.736 96.4548 184.194L95.6888 184.954L94.7397 184.532C93.9508 184.275 93.8469 184.234 92.646 183.949C92.3026 183.87 91.8905 183.847 91.8852 183.84C91.8342 183.794 92.8009 182.656 93.6532 181.746C94.1445 181.22 95.3806 180.145 96.1237 179.591C97.0729 178.876 97.5589 178.555 98.4235 178.064C102.708 175.616 107.735 174.706 112.493 175.525C115.564 176.051 118.121 177.052 120.752 178.761C125.487 181.838 128.896 186.826 130.028 192.333C130.394 194.106 130.451 194.694 130.446 196.765C130.446 198.79 130.4 199.264 130.051 201.054C129.873 201.958 129.4 203.359 129.4 203.359C129.4 203.359 129.239 203.484 128.507 203.507C128.067 203.518 127.581 203.462 127.42 203.451L127.419 203.449Z" fill="#EA698B"/>
<path d="M110.944 189.825C112.252 189.089 113.134 187.687 113.136 186.081C113.132 184.486 112.262 183.095 110.972 182.355V185.798L108.834 187.03L106.696 185.794V182.354C105.404 183.095 104.536 184.486 104.536 186.083C104.536 187.754 105.494 189.205 106.89 189.917V189.936" fill="#4A0090"/>
<path d="M108.975 212.96C108.975 212.96 108.964 211.896 108.966 210.609C108.966 208.394 108.966 208.267 109.008 208.267C109.031 208.267 109.098 208.248 109.158 208.225C109.255 208.19 109.278 208.174 109.399 208.052C109.521 207.931 109.537 207.908 109.572 207.815C109.67 207.542 109.605 207.246 109.406 207.047C109.271 206.911 109.114 206.844 108.92 206.839C108.408 206.827 108.049 207.32 108.223 207.801C108.258 207.899 108.283 207.936 108.376 208.037C108.498 208.169 108.6 208.228 108.755 208.258L108.832 208.272V210.622C108.832 211.914 108.827 212.971 108.823 212.972C108.818 212.972 108.802 212.891 108.785 212.796C108.568 211.578 108.156 210.579 107.46 209.588C107.247 209.283 106.867 208.817 106.601 208.526L106.541 208.461L107.055 206.917L107.571 205.374H110.227L110.736 206.899C111.016 207.739 111.246 208.438 111.248 208.454C111.248 208.471 111.218 208.514 111.162 208.568C110.942 208.788 110.47 209.385 110.222 209.753C109.584 210.704 109.177 211.745 108.999 212.868C108.989 212.925 108.978 212.965 108.973 212.958L108.975 212.96Z" fill="#4A0090"/>
<path d="M108.897 205.229C107.735 205.229 106.781 205.226 106.775 205.221C106.772 205.217 106.768 205.108 106.768 204.981V204.75H111.026V204.981C111.026 205.108 111.023 205.217 111.017 205.221C111.014 205.224 110.058 205.228 108.897 205.228V205.229Z" fill="#4A0090"/>
<path d="M108.841 204.612C108.237 204.612 107.795 204.606 107.79 204.601C107.783 204.594 106.888 202.727 106.892 202.722C106.895 202.717 110.947 202.722 110.947 202.722C110.947 202.722 110.012 204.592 110.007 204.599C110.001 204.606 109.445 204.612 108.841 204.612Z" fill="#4A0090"/>
<path d="M110.947 202.722L110.942 189.369L106.892 189.505V202.722H110.947Z" fill="#4A0090"/>
</g>
<g clip-path="url(#clip3_687_2088)">
<path d="M195.42 130.687C188.812 130.332 182.83 126.997 178.923 121.497C177.238 119.124 175.943 116.037 175.422 113.16C174.923 110.398 174.959 107.39 175.514 104.795C175.593 104.429 175.726 103.923 176.064 102.657C176.097 102.537 176.173 102.381 176.173 102.381C176.38 102.348 176.649 102.307 176.964 102.289C177.324 102.272 177.616 102.289 178.002 102.323C179.229 102.438 180.019 102.775 180.019 102.775C180.019 102.775 179.927 103.051 179.835 103.338C179.319 104.851 179.027 106.163 178.917 107.475C178.803 108.833 178.785 109.447 178.854 110.334C179.054 112.953 179.565 114.866 180.664 117.106C183.089 122.034 187.528 125.471 192.955 126.624C194.438 126.934 196.857 127.054 198.33 126.882C201.332 126.539 203.682 125.731 206.076 124.223C207.268 123.472 208.23 122.687 209.308 121.587L209.933 120.95L210.912 121.323C211.92 121.643 212.728 121.799 213.451 121.925L213.863 121.999L213.651 122.262C212.809 123.316 211.165 125.019 210.316 125.717C208.156 127.487 205.703 128.845 203.125 129.688C201.583 130.192 199.522 130.594 198.082 130.663C196.576 130.732 196.272 130.737 195.418 130.686L195.42 130.687Z" fill="#EA698B"/>
<path d="M214.988 115.989C214.054 115.846 213.223 115.559 213.142 115.485C213.131 115.48 213.182 115.444 213.244 115.273C213.96 113.347 214.282 111.496 214.288 109.263C214.293 105.893 213.433 102.806 211.692 99.9236C210.362 97.724 208.232 95.581 205.933 94.1418C204.386 93.1728 202.353 92.3365 200.563 91.9351C199.039 91.5921 198.454 91.5337 196.535 91.539C195.006 91.539 194.65 91.562 193.986 91.6646C191.871 92.0023 190.324 92.4903 188.628 93.3443C186.795 94.2673 185.442 95.2345 183.964 96.6967L183.196 97.4588L182.245 97.0345C181.455 96.7763 181.35 96.7356 180.148 96.4492C179.805 96.3696 179.391 96.3467 179.386 96.3396C179.335 96.2936 180.304 95.1532 181.156 94.2426C181.649 93.7156 182.887 92.6388 183.631 92.0819C184.583 91.3658 185.069 91.044 185.935 90.5524C190.227 88.1 195.264 87.1894 200.031 88.0081C203.108 88.535 205.67 89.5375 208.306 91.2508C213.05 94.3327 216.466 99.3295 217.599 104.848C217.965 106.625 218.024 107.214 218.018 109.29C218.018 111.318 217.972 111.793 217.622 113.588C217.445 114.493 216.97 115.897 216.97 115.897C216.97 115.897 216.809 116.023 216.075 116.046C215.633 116.056 215.147 116 214.986 115.989H214.988Z" fill="#EA698B"/>
<path d="M188.508 118.109C188.895 116.472 189.171 114.673 189.243 113.361C189.279 112.666 189.249 111.662 189.18 111.377C189.005 110.642 188.589 109.44 188.234 108.649C187.792 107.666 187.652 106.936 187.684 105.831C187.71 105.037 187.765 104.681 187.969 104.064C188.586 102.167 190.182 100.588 192.048 100.021C193.043 99.7183 194.058 99.6688 195.176 99.8633C195.478 99.9128 195.542 99.9676 195.374 100.017C195.319 100.035 195.039 100.206 194.751 100.401C193.07 101.524 191.938 103.249 191.56 105.27C191.515 105.509 191.484 106.015 191.47 106.623L191.447 107.588L190.748 109.418C190.013 111.344 190 111.393 190.172 111.655C190.334 111.908 190.402 111.92 191.484 111.934L192.49 111.949L192.504 113.197L192.518 114.445L192.663 114.748C192.861 115.167 193.114 115.428 193.524 115.632C193.862 115.798 193.871 115.798 194.511 115.812C194.866 115.821 195.156 115.835 195.156 115.844C195.156 115.849 195.121 115.943 195.071 116.051C195.027 116.159 194.868 116.731 194.725 117.322L194.459 118.39H188.45L188.513 118.111L188.508 118.109Z" fill="#4A0090"/>
<path d="M198.021 117.32C197.876 116.73 197.718 116.157 197.674 116.049C197.624 115.941 197.589 115.846 197.589 115.842C197.589 115.833 197.877 115.819 198.234 115.81C198.843 115.796 198.889 115.793 199.177 115.653C199.596 115.455 199.858 115.202 200.061 114.792L200.227 114.449L200.241 113.201L200.255 111.947L201.262 111.933C202.344 111.919 202.411 111.906 202.574 111.653C202.745 111.392 202.731 111.342 201.997 109.417L201.299 107.587L201.276 106.621C201.253 105.597 201.203 105.193 200.996 104.48C200.478 102.691 199.175 101.027 197.601 100.152C197.426 100.053 197.276 99.9571 197.276 99.9447C197.276 99.9005 197.768 99.8192 198.335 99.7643C198.867 99.7148 199.269 99.7378 199.912 99.8404C202.397 100.245 204.389 102.18 204.962 104.74C205.075 105.24 205.102 106.494 205.012 107.026C204.913 107.594 204.75 108.117 204.503 108.672C204.165 109.417 203.737 110.642 203.583 111.287C203.438 111.904 203.461 113.455 203.633 114.813C203.755 115.77 203.993 117.071 204.237 118.109L204.301 118.388H198.291L198.026 117.32H198.021Z" fill="#4A0090"/>
<path d="M201.557 111.167C201.544 111.125 201.258 110.35 200.922 109.439L200.316 107.788L200.294 106.814C200.273 105.746 200.22 105.408 199.974 104.662C199.437 103.044 198.277 101.697 196.785 100.956C196.486 100.809 196.136 100.847 195.734 101.071C194.093 101.985 192.962 103.536 192.552 105.447C192.483 105.76 192.461 106.036 192.446 106.816L192.424 107.79L191.818 109.441C191.482 110.352 191.195 111.126 191.183 111.169C191.155 111.236 191.22 111.241 192.175 111.241C192.99 111.241 193.213 111.254 193.278 111.301C193.353 111.361 193.356 111.437 193.377 112.712C193.399 113.991 193.402 114.068 193.489 114.229C193.607 114.457 193.849 114.691 194.076 114.797C194.253 114.882 194.337 114.885 196.373 114.885C198.408 114.885 198.493 114.882 198.669 114.797C198.896 114.691 199.136 114.457 199.256 114.229C199.343 114.068 199.347 113.992 199.368 112.712C199.389 111.437 199.393 111.361 199.467 111.301C199.532 111.255 199.753 111.241 200.57 111.241C201.525 111.241 201.59 111.238 201.562 111.169L201.557 111.167Z" fill="#4A0090"/>
</g>
<g clip-path="url(#clip4_687_2088)">
<path d="M123.339 33.7327L122.361 33.3611L121.738 33.9951C120.664 35.0921 119.702 35.8757 118.514 36.6258C116.124 38.1297 113.779 38.9361 110.783 39.2795C109.315 39.4503 106.901 39.3306 105.42 39.0224C100.005 37.8726 95.5745 34.4423 93.155 29.5259C92.0579 27.2895 91.549 25.3807 91.3483 22.7675C91.2796 21.8818 91.2972 21.269 91.4117 19.9149C91.5209 18.6047 91.8114 17.2964 92.3273 15.7873C92.4189 15.502 92.5105 15.2273 92.5105 15.2273C92.5105 15.2273 91.7216 14.8892 90.4978 14.7748C90.1139 14.7413 89.8234 14.7237 89.4624 14.7413C89.1472 14.7589 88.8795 14.7977 88.6735 14.8329C88.6735 14.8329 88.5995 14.9879 88.5643 15.1076C88.2262 16.3719 88.0959 16.8738 88.0149 17.2401C87.4602 19.8303 87.4267 22.8327 87.9233 25.5885C88.4428 28.4588 89.7353 31.5404 91.417 33.907C95.3156 39.3958 101.285 42.7239 107.878 43.0778C108.73 43.1289 109.033 43.1236 110.537 43.0549C111.972 42.9862 114.031 42.5865 115.568 42.0829C118.14 41.2429 120.588 39.887 122.743 38.1209C123.59 37.4235 125.23 35.726 126.072 34.673L126.283 34.4106L125.871 34.3367C125.151 34.2116 124.344 34.0567 123.339 33.7362V33.7327Z" fill="#EA698B"/>
<path d="M92.6408 8.91283C93.8418 9.19809 93.9439 9.2386 94.7328 9.4957L95.6819 9.9183L96.4479 9.1576C97.9235 7.69957 99.2724 6.73283 101.102 5.81188C102.794 4.9596 104.339 4.47359 106.448 4.13726C107.112 4.03512 107.466 4.01223 108.993 4.01223C110.908 4.00694 111.491 4.0633 113.013 4.40668C114.797 4.8064 116.827 5.64107 118.369 6.60781C120.662 8.04295 122.789 10.1807 124.115 12.3765C125.853 15.2521 126.711 18.3337 126.706 21.697C126.7 23.9263 126.38 25.7735 125.665 27.6946C125.601 27.8654 125.55 27.9007 125.563 27.9059C125.642 27.9799 126.471 28.2669 127.405 28.4096C127.565 28.4201 128.051 28.4782 128.491 28.4659C129.224 28.443 129.384 28.318 129.384 28.318C129.384 28.318 129.859 26.9163 130.035 26.013C130.384 24.2239 130.43 23.7485 130.43 21.7252C130.435 19.6561 130.379 19.0662 130.013 17.2947C128.88 11.7884 125.473 6.80326 120.738 3.72696C118.107 2.01712 115.552 1.01693 112.481 0.490418C107.723 -0.326642 102.697 0.581993 98.4148 3.02965C97.552 3.52094 97.066 3.84142 96.1169 4.55635C95.3737 5.11104 94.1393 6.18519 93.6463 6.7117C92.794 7.62032 91.8273 8.75787 91.8801 8.80365C91.8854 8.80894 92.2974 8.83183 92.6408 8.91283Z" fill="#EA698B"/>
<path fill-rule="evenodd" clip-rule="evenodd" d="M110.132 12.9679C108.769 14.963 106.376 17.8773 101.076 19.8266L101.01 19.846C100.926 19.8653 100.861 19.9111 100.782 19.9499C100.743 19.9886 100.697 20.0538 100.658 20.1189L100.639 20.1576C99.57 20.5169 99.0875 21.6051 99.1069 22.8184C99.1069 23.3396 99.2108 23.8872 99.3816 24.3891C99.5313 24.9103 99.7796 25.3928 100.093 25.8366C100.829 26.8861 101.938 27.513 103.261 27.0745C103.345 27.1396 103.449 27.1396 103.536 27.0745L103.62 27.0551C103.874 26.9706 104.122 26.8861 104.376 26.8262C104.583 26.761 104.773 26.7223 104.943 26.6572L105.008 26.9706C105.215 28.0395 105.49 29.089 105.849 30.1385L105.934 30.392C106.142 30.9784 106.378 31.6106 106.71 32.0279C107.128 32.5491 107.695 32.7393 108.517 32.0666H108.537C108.621 31.9821 108.725 31.8976 108.831 31.8131C109.229 31.4539 109.646 31.1228 109.757 30.4889V30.4044C109.634 30.0716 109.398 29.9606 109.105 29.8373C108.813 29.7141 108.519 29.5838 108.584 28.9763L108.603 28.8266C108.642 28.5977 108.669 28.3828 108.623 28.1557C108.584 27.9866 108.473 27.881 108.264 27.6926L108.225 27.6538C108.075 27.4848 107.996 27.2559 108.017 27.0287C108.036 26.6695 108.121 26.2927 108.246 25.9598C111.558 25.5161 113.592 26.1095 115.209 26.5656C113.657 24.8892 112.379 22.4134 111.498 19.8953C110.637 17.4511 110.135 14.9137 110.135 12.9644L110.132 12.9679Z" fill="#4A0090"/>
<path fill-rule="evenodd" clip-rule="evenodd" d="M113.717 11.767C113.196 11.2458 112.687 10.9059 112.231 10.8214C112.081 10.7827 111.937 10.802 111.814 10.8408C111.748 10.8601 111.625 10.9059 111.5 11.0292C111.461 11.0679 111.435 11.1137 111.416 11.1525C110.972 12.4115 111.162 14.8028 111.833 17.3984L111.872 17.379C112.166 17.2293 112.902 17.2294 113.652 17.4829C115.478 18.108 116.207 20.8146 114.74 22.3659C114.446 22.6794 114.134 22.8484 113.899 22.8097C114.825 24.5512 115.932 26.0374 117.191 26.9425C117.225 26.9689 117.276 26.9689 117.315 26.9619C117.36 26.9619 117.399 26.9425 117.464 26.9231C117.588 26.8844 117.672 26.8192 117.758 26.7541L117.778 26.7347C118.137 26.3755 118.364 25.8543 118.468 25.2027C118.762 23.4418 118.193 20.7177 117.25 18.1151C116.318 15.5406 114.974 13.0683 113.715 11.7653L113.717 11.767Z" fill="#4A0090"/>
</g>
<line x1="47.0327" y1="130.681" x2="87.517" y2="171.165" stroke="url(#paint2_linear_687_2088)" stroke-width="6" stroke-linecap="round"/>
<line x1="134.55" y1="43.1641" x2="175.034" y2="83.6484" stroke="url(#paint3_linear_687_2088)" stroke-width="6" stroke-linecap="round"/>
<line x1="87.5086" y1="47.4067" x2="47.0326" y2="87.7233" stroke="url(#paint4_linear_687_2088)" stroke-width="6" stroke-linecap="round"/>
<line x1="175.042" y1="134.923" x2="134.726" y2="175.399" stroke="url(#paint5_linear_687_2088)" stroke-width="6" stroke-linecap="round"/>
<defs>
<linearGradient id="paint0_linear_687_2088" x1="106.598" y1="100.449" x2="106.598" y2="136.315" gradientUnits="userSpaceOnUse">
<stop offset="0.148958" stop-color="#3F1A93"/>
</linearGradient>
<linearGradient id="paint1_linear_687_2088" x1="111.947" y1="82.0796" x2="111.947" y2="117.811" gradientUnits="userSpaceOnUse">
<stop offset="0.148958" stop-color="#3F1A93"/>
</linearGradient>
<linearGradient id="paint2_linear_687_2088" x1="65.1535" y1="153.044" x2="64.4464" y2="153.751" gradientUnits="userSpaceOnUse">
<stop offset="0.148958" stop-color="#3F1A93"/>
</linearGradient>
<linearGradient id="paint3_linear_687_2088" x1="152.67" y1="65.5275" x2="151.963" y2="66.2347" gradientUnits="userSpaceOnUse">
<stop offset="0.148958" stop-color="#3F1A93"/>
</linearGradient>
<linearGradient id="paint4_linear_687_2088" x1="65.1535" y1="65.4395" x2="64.4478" y2="64.731" gradientUnits="userSpaceOnUse">
<stop offset="0.148958" stop-color="#3F1A93"/>
</linearGradient>
<linearGradient id="paint5_linear_687_2088" x1="152.758" y1="153.044" x2="152.05" y2="152.338" gradientUnits="userSpaceOnUse">
<stop offset="0.148958" stop-color="#3F1A93"/>
</linearGradient>
<clipPath id="clip0_687_2088">
<rect width="80.2973" height="54.2359" fill="white" transform="translate(68.8513 82.0796)"/>
</clipPath>
<clipPath id="clip1_687_2088">
<rect width="42.9661" height="42.9661" fill="white" transform="translate(0 87.7148)"/>
</clipPath>
<clipPath id="clip2_687_2088">
<rect width="42.9661" height="42.9661" fill="white" transform="translate(87.517 175.231)"/>
</clipPath>
<clipPath id="clip3_687_2088">
<rect width="42.9661" height="42.9661" fill="white" transform="translate(175.034 87.7148)"/>
</clipPath>
<clipPath id="clip4_687_2088">
<rect width="42.9661" height="42.9661" fill="white" transform="translate(87.517 0.197754)"/>
</clipPath>
</defs>
</svg>
