<?xml version="1.0" encoding="utf-8"?>
<!-- Generator: Adobe Illustrator 26.1.0, SVG Export Plug-In . SVG Version: 6.00 Build 0)  -->
<svg version="1.1" id="Layer_1" xmlns="http://www.w3.org/2000/svg" xmlns:xlink="http://www.w3.org/1999/xlink" x="0px" y="0px"
	 viewBox="0 0 514.9 501.1" style="enable-background:new 0 0 514.9 501.1;" xml:space="preserve">
<style type="text/css">
	.st0{fill:url(#SVGID_1_);}
	.st1{fill:url(#SVGID_00000067931562604309539100000007427145640793509025_);}
	.st2{fill:url(#SVGID_00000140727307472935082810000002438120853292378533_);}
	.st3{fill:url(#SVGID_00000091005479734377537650000006654380924483297928_);}
	.st4{fill:url(#SVGID_00000013192988353596417740000003660347018750120841_);}
	.st5{display:none;fill:url(#SVGID_00000121961085395069843640000003834566751779389080_);}
	.st6{fill:url(#SVGID_00000031192741612518563870000012555207522247088049_);}
	.st7{fill:url(#SVGID_00000044859972234379134940000013170587041215556278_);}
	.st8{fill:url(#SVGID_00000174588319931332787940000011883025051273463720_);}
	.st9{fill:url(#SVGID_00000159432771535241361010000003765458204814772409_);}
	.st10{fill:url(#SVGID_00000063600994252329169430000005825795112350860180_);}
	.st11{fill:url(#SVGID_00000105415420419431429110000014622476405068746903_);}
	.st12{fill:url(#SVGID_00000152967100654565455460000015495638146685496245_);}
	.st13{fill:url(#SVGID_00000027574700025677173430000013836042962744727990_);}
	.st14{fill-rule:evenodd;clip-rule:evenodd;fill:url(#SVGID_00000146481711255929611520000004384807807746491559_);}
	.st15{fill:url(#SVGID_00000009583202021544381710000000735503980825219227_);}
	.st16{fill:url(#SVGID_00000145019848379861836160000011293468535405570709_);}
	.st17{fill:url(#SVGID_00000034062896002237278680000016852059825918439049_);}
	.st18{fill:url(#SVGID_00000098941736884262528470000004258780318633135509_);}
	.st19{fill:url(#XMLID_00000059285552537148510470000004740364728458651062_);}
	.st20{fill:url(#XMLID_00000086658789655445358890000002885302260282630276_);}
	.st21{fill:url(#XMLID_00000113330373927946156300000016874430085759379879_);}
	.st22{fill:url(#XMLID_00000112634778227805740970000013060069963782563726_);}
	.st23{fill:url(#XMLID_00000100367340055945990280000002743497281040008884_);}
	.st24{fill:url(#XMLID_00000147214374660125559120000006579328431480910516_);}
	.st25{fill:url(#XMLID_00000077294150810071166480000003269326880036328100_);}
	.st26{fill:url(#XMLID_00000060749996793358949040000018337504849903200146_);}
	.st27{fill:url(#XMLID_00000082353162096907215430000014361650857423940271_);}
	.st28{fill:url(#XMLID_00000149348691717699388260000011125357833919045020_);}
	.st29{fill:url(#XMLID_00000176722263775697802700000014315425811640401333_);}
	.st30{fill:url(#XMLID_00000128449628848808457450000018112501647494079890_);}
	.st31{fill:url(#XMLID_00000013881490141294632690000003120243304104018060_);}
	.st32{fill:url(#XMLID_00000169526446083312763540000008468054497895531140_);}
	.st33{fill:url(#XMLID_00000150081852229100094980000011362787197773159345_);}
	.st34{fill:url(#SVGID_00000067198999772856212700000004739209666944022177_);}
	.st35{fill:url(#SVGID_00000179618309567864798440000014818072877964440218_);}
	.st36{fill:url(#SVGID_00000086688267167127208150000008467773011107036037_);}
	.st37{fill:url(#SVGID_00000061435125636609275100000018100796889220769155_);}
	.st38{fill:url(#XMLID_00000132792299748088615340000003494430815129943208_);}
	.st39{fill:url(#XMLID_00000019654984820803238530000000081021713221986438_);}
	.st40{fill:url(#XMLID_00000147205909205167044290000001635686492255255429_);}
	.st41{fill:url(#SVGID_00000072976335209520587570000008029046633485185461_);}
	.st42{fill:url(#SVGID_00000098198808650219929990000006783768045887543200_);}
	.st43{fill:url(#SVGID_00000034056576726869246160000008720200583981355138_);}
	.st44{fill:url(#SVGID_00000053510721454259820420000018304884848304208290_);}
	.st45{fill:#250B35;}
	.st46{fill:#704FC6;}
	.st47{fill:url(#SVGID_00000049902494535609473000000001036897921294748566_);}
	.st48{fill:url(#SVGID_00000155112661156042457610000009116663154438890385_);}
	.st49{fill:url(#SVGID_00000016756772400411884810000015300293321154846388_);}
	.st50{fill:url(#SVGID_00000023966779748157357200000005733281997422502580_);}
	.st51{fill:url(#SVGID_00000027571300795857415320000011726131824913839753_);}
</style>
<g>
	<linearGradient id="SVGID_1_" gradientUnits="userSpaceOnUse" x1="195.6031" y1="113.5605" x2="258.667" y2="139.0399">
		<stop  offset="1.598337e-07" style="stop-color:#8D72D1"/>
		<stop  offset="1" style="stop-color:#D4CAEE"/>
	</linearGradient>
	<path class="st0" d="M229.4,125.7l-0.4-1c-5.9-14.5-2.2-18.3,5.8-26.7c1-1,2-2.1,3.1-3.3l-1.5-1.4c-4.7,4.5-10.1,8.1-16.2,10.8
		c-0.5,0.2-1.1,0.5-1.8,0.8c-0.7,0.3-1.3,0.5-1.9,0.7c-6.2,2.3-12.7,3.4-19.1,3.4l-0.1,2c1.6,0.1,3.1,0.2,4.6,0.2
		c11.6,0.5,16.8,0.7,22.7,15.2l0.4,1c4,9.9,1,19.8-9.2,30.2l1.4,1.5c5.3-4.4,11.1-8,17.5-10.7c0.4-0.2,0.8-0.3,1.2-0.5l0.1,0
		c0.4-0.1,0.7-0.3,1.1-0.4c6.4-2.5,13.2-4,20-4.5l0-2C242.4,140.6,233.4,135.6,229.4,125.7z"/>
	
		<linearGradient id="SVGID_00000005966994933903991330000016183083458539990401_" gradientUnits="userSpaceOnUse" x1="415.9595" y1="166.1736" x2="370.7593" y2="195.527">
		<stop  offset="1.598337e-07" style="stop-color:#8D72D1"/>
		<stop  offset="1" style="stop-color:#D4CAEE"/>
	</linearGradient>
	<path style="fill:url(#SVGID_00000005966994933903991330000016183083458539990401_);" d="M370.3,189.6c0.1,0,0.2,0,0.3,0
		c1.6,0.1,4.7,0.4,7,0.8c2.8,0.5,5.5,1.2,8.2,2c1.8-3.6,4.5-6.6,8.2-8.8l0.9-0.6c13.3-8.3,17.7-5.4,27.3,1c1.2,0.8,2.5,1.6,3.8,2.5
		l1.2-1.7c-5.2-3.8-9.7-8.5-13.5-14c-0.3-0.5-0.7-1-1.1-1.6c-0.4-0.7-0.7-1.2-1-1.7c-3.3-5.7-5.6-11.9-6.7-18.2l-2,0.3
		c0.2,1.6,0.4,3.1,0.6,4.5c1.5,11.5,2.2,16.7-11,25l-0.9,0.6c-9.1,5.7-19.3,4.4-31.3-3.9l-1.2,1.6C363.2,180.9,367,185,370.3,189.6z
		"/>
	
		<linearGradient id="SVGID_00000108295610830166666050000001755614408125040293_" gradientUnits="userSpaceOnUse" x1="338.0223" y1="361.463" x2="400.1455" y2="347.1208">
		<stop  offset="1.598337e-07" style="stop-color:#8D72D1"/>
		<stop  offset="1" style="stop-color:#D4CAEE"/>
	</linearGradient>
	<path style="fill:url(#SVGID_00000108295610830166666050000001755614408125040293_);" d="M398.1,359.3c-11,3.7-16,5.4-26.6-6.1
		l-0.7-0.8c-7.3-7.8-8-18.1-2.2-31.5l-1.8-0.9c-3.3,6-7.5,11.5-12.5,16.3c-0.3,0.3-0.6,0.6-0.9,0.9l-0.1,0.1
		c-0.3,0.3-0.6,0.5-0.9,0.8c-5.1,4.6-10.9,8.4-17.1,11.3l0.8,1.9c13.7-4.9,24-3.4,31.3,4.4l0.7,0.8c10.7,11.4,8.6,16.3,4.2,27
		c-0.5,1.3-1.1,2.7-1.7,4.2l1.9,0.8c2.7-5.9,6.5-11.2,11.2-15.9c0.4-0.4,0.8-0.8,1.4-1.4c0.6-0.5,1-0.9,1.5-1.3
		c5-4.4,10.6-7.7,16.6-10.1l-0.7-1.9C400.8,358.3,399.4,358.8,398.1,359.3z"/>
	
		<linearGradient id="SVGID_00000160900488106567066590000010210797371242446484_" gradientUnits="userSpaceOnUse" x1="231.2118" y1="352.775" x2="205.2203" y2="401.6579">
		<stop  offset="1.598337e-07" style="stop-color:#8D72D1"/>
		<stop  offset="1" style="stop-color:#D4CAEE"/>
	</linearGradient>
	<path style="fill:url(#SVGID_00000160900488106567066590000010210797371242446484_);" d="M228.7,356.1l-0.1-0.1
		c-0.3-0.2-0.7-0.3-1-0.5c-6.1-3.1-11.8-7.1-16.7-11.9l-1.5,1.4c9.5,11.1,11.8,21.1,7.1,30.8l-0.5,1c-6.9,14.1-12.1,13.9-23.7,13.6
		c-1.4,0-2.9-0.1-4.6-0.1l-0.1,2c6.5,0.5,12.8,2.1,18.9,4.8c0.5,0.2,1.1,0.5,1.8,0.8c0.7,0.3,1.2,0.6,1.8,0.9
		c5.9,3.1,11,7.1,15.4,11.9l1.6-1.3c-1-1.3-2-2.4-2.9-3.5c-7.4-8.9-10.7-13-3.9-27l0.5-1c4.7-9.6,14.1-14,28.6-13.3l0.2-2
		c-6.8-1-13.4-2.9-19.7-5.8C229.5,356.5,229.1,356.3,228.7,356.1z"/>
	
		<linearGradient id="SVGID_00000181782332848948549150000004608531130452532145_" gradientUnits="userSpaceOnUse" x1="106.201" y1="259.7132" x2="119.8623" y2="240.2029">
		<stop  offset="1.598337e-07" style="stop-color:#8D72D1"/>
		<stop  offset="0.1775" style="stop-color:#A692DC"/>
		<stop  offset="0.3621" style="stop-color:#BAAAE4"/>
		<stop  offset="0.5555" style="stop-color:#C9BCE9"/>
		<stop  offset="0.7612" style="stop-color:#D1C7ED"/>
		<stop  offset="1" style="stop-color:#D4CAEE"/>
	</linearGradient>
	<path style="fill:url(#SVGID_00000181782332848948549150000004608531130452532145_);" d="M128.2,250.8c-0.7,0.2-1.4,0.3-2.2,0.3
		l-1,0c-7.9-0.2-11-6.1-17.3-19.5l-1.9,0.8c2.4,6,3.7,12.4,4,19c0,0.6,0,1.2,0,2c0,0.8,0,1.4,0,2c0,1.5-0.2,3-0.3,4.4
		c1.4,1.4,2.6,3,3.7,4.7c3.5-6,6.6-8.7,11.8-8.7c0,0,0,0,0,0h1.1c0,0,0,0,0,0c0.8,0,1.5,0.1,2.3,0.3
		C128.2,254.3,128.2,252.5,128.2,250.8z"/>
	
		<linearGradient id="SVGID_00000183232231876573778610000011492186893587056559_" gradientUnits="userSpaceOnUse" x1="212.3953" y1="347.1965" x2="343.4318" y2="160.0569">
		<stop  offset="8.524463e-08" style="stop-color:#704FC6"/>
		<stop  offset="1" style="stop-color:#A995DD"/>
	</linearGradient>
	<path style="display:none;fill:url(#SVGID_00000183232231876573778610000011492186893587056559_);" d="M184,189.5
		c20.3-30.4,54.8-50.4,94-50.4c39.3,0,74,20.2,94.2,50.9c-1-0.1-1.9-0.2-2.7-0.2c-3.8-0.2-6.6-0.3-9,0.4
		c-18.8-25.1-48.8-41.4-82.5-41.4c-33.2,0-62.8,15.8-81.7,40.3C192,188.8,187.6,188.9,184,189.5z M254.1,355.7
		c-23.8-5.6-44.5-19.6-58.8-38.6c-1.4,0.5-3,0.6-4.7,0.6c-1.3,0-2.7-0.1-4.3-0.2c-0.8,0-1.7-0.1-2.7-0.2
		c15.3,23.1,38.8,40.3,66.3,47.3L254.1,355.7z M359.6,318.2c-14.8,19.1-36.1,32.9-60.6,38.1l4.2,9.1c28.5-6.6,52.9-23.9,68.6-47.5
		c-2.5,0.4-5.4,0.5-8.4,0.5C362.2,318.3,360.9,318.3,359.6,318.2z"/>
	
		<linearGradient id="SVGID_00000142173235929348336400000009781564145218929052_" gradientUnits="userSpaceOnUse" x1="23.6358" y1="295.8955" x2="82.0688" y2="212.4446">
		<stop  offset="1.598337e-07" style="stop-color:#8D72D1"/>
		<stop  offset="1" style="stop-color:#D4CAEE"/>
	</linearGradient>
	<path style="fill:url(#SVGID_00000142173235929348336400000009781564145218929052_);" d="M52.2,202.7L52.2,202.7L52.2,202.7
		L52.2,202.7z M79.1,210.5c-8.1-5.1-18-7.6-26.9-7.7v0c0,0,0,0,0,0c-0.1,0-0.3,0-0.4,0c-0.2,0-0.4,0-0.6,0v0
		c-6.2,0.1-12.3,1.4-18,3.6c0.7,0.8,1.2,1.8,1.6,2.7c2.9-0.1,5.7,0.9,7.9,2.8c2.9-0.6,5.9-1,8.9-1c7.9,0.1,16.5,2.3,23.1,6.5
		c9.7,6.1,16.4,15.5,19,26.6c0.7,2.8,1,5.7,1.1,8.5c2.8,0.4,5.6,1.3,8.2,2.7C103.5,237.7,95,220.4,79.1,210.5z M18.1,227l0.2,0.5
		c0,0,0,0,0-0.1L18.1,227C18.1,227,18.1,227,18.1,227z M69.3,292.8c-5.3,2.3-11.2,3.6-17.3,3.6c-8,0-15.8-2.2-22.6-6.5
		c-9.7-6.1-16.4-15.5-19-26.6c-0.2-0.8-0.3-1.7-0.5-2.5c-2.3-1.3-4.1-3.3-5-5.7c-1.3,0-2.5-0.1-3.7-0.5c0.3,16.6,8.8,32.8,23.9,42.3
		c8.4,5.2,17.7,7.7,26.9,7.7c8,0,16-1.9,23.2-5.6C72.9,297.3,70.9,295.1,69.3,292.8z"/>
	<g>
		
			<radialGradient id="SVGID_00000075134633713037478420000014594083473230165424_" cx="100.5506" cy="284.0477" r="28.1562" gradientUnits="userSpaceOnUse">
			<stop  offset="1.704893e-07" style="stop-color:#250B35"/>
			<stop  offset="0.2715" style="stop-color:#260C38"/>
			<stop  offset="0.4348" style="stop-color:#2B1040"/>
			<stop  offset="0.5695" style="stop-color:#32174E"/>
			<stop  offset="0.6886" style="stop-color:#3D2062"/>
			<stop  offset="0.7974" style="stop-color:#4A2D7D"/>
			<stop  offset="0.8986" style="stop-color:#5B3C9D"/>
			<stop  offset="0.9924" style="stop-color:#6E4DC3"/>
			<stop  offset="1" style="stop-color:#704FC6"/>
		</radialGradient>
		<path style="fill:url(#SVGID_00000075134633713037478420000014594083473230165424_);" d="M83.2,263.8L83.2,263.8
			c-1.3,0.8-3.6,2.4-5.6,5.3c-2,3-2.5,5.9-2.7,7.4c0,0,0,0,0,0l0.1,0c-0.6,5.8,2,11.8,7.3,15.2c5,3.3,11.2,3.4,16.1,0.8l-10.8-7
			l0.5-9.3l8.2-4.2l10.8,7c0.3-5.6-2.3-11.1-7.3-14.4C94.8,261.5,88.2,261.2,83.2,263.8z"/>
		<g>
			
				<linearGradient id="SVGID_00000093175184254348877600000010160921957335169426_" gradientUnits="userSpaceOnUse" x1="1579.9246" y1="-864.8102" x2="1585.9435" y2="-864.8102" gradientTransform="matrix(0.5445 -0.8387 0.8387 0.5445 -84.7456 2058.4663)">
				<stop  offset="5.327789e-09" style="stop-color:#5E42A6"/>
				<stop  offset="1" style="stop-color:#7F60D1"/>
			</linearGradient>
			<path style="fill:url(#SVGID_00000093175184254348877600000010160921957335169426_);" d="M34.4,245c-1.7,2.1-3.4,3.4-4.5,4.3
				c16,10.4,24.5,15.9,40.6,26.3c0.2-1.3,0.8-3.4,2-5.9L34.4,245z"/>
			
				<linearGradient id="SVGID_00000164474522794056115470000008446236576439864506_" gradientUnits="userSpaceOnUse" x1="1591.6481" y1="-864.8102" x2="1597.667" y2="-864.8102" gradientTransform="matrix(0.5445 -0.8387 0.8387 0.5445 -84.7456 2058.4663)">
				<stop  offset="0" style="stop-color:#7F60D1"/>
				<stop  offset="1" style="stop-color:#5E42A6"/>
			</linearGradient>
			<path style="fill:url(#SVGID_00000164474522794056115470000008446236576439864506_);" d="M37.5,240.2l38.1,24.7
				c1.8-2.1,3.5-3.5,4.6-4.2c-16-10.4-24.5-15.9-40.6-26.3C39.3,235.7,38.7,237.8,37.5,240.2z"/>
		</g>
		
			<radialGradient id="SVGID_00000054954157783371996940000000090206181742664079_" cx="4.1878" cy="222.4036" r="36.0748" gradientUnits="userSpaceOnUse">
			<stop  offset="1.704893e-07" style="stop-color:#250B35"/>
			<stop  offset="0.2715" style="stop-color:#260C38"/>
			<stop  offset="0.4348" style="stop-color:#2B1040"/>
			<stop  offset="0.5695" style="stop-color:#32174E"/>
			<stop  offset="0.6886" style="stop-color:#3D2062"/>
			<stop  offset="0.7974" style="stop-color:#4A2D7D"/>
			<stop  offset="0.8986" style="stop-color:#5B3C9D"/>
			<stop  offset="0.9924" style="stop-color:#6E4DC3"/>
			<stop  offset="1" style="stop-color:#704FC6"/>
		</radialGradient>
		<path style="fill:url(#SVGID_00000054954157783371996940000000090206181742664079_);" d="M34.5,219.2l-4.3,1.7
			c-0.6-0.6-1.3-1.1-2-1.6c-0.7-0.5-1.5-0.9-2.3-1.2l-0.2-4.6c0-0.8-0.7-1.5-1.5-1.5l-6.5-0.3c-0.8,0-1.6,0.6-1.7,1.4l-0.7,4.6
			c-1.6,0.5-3.2,1.3-4.6,2.3l-4.1-2.1c-0.7-0.4-1.6-0.1-2.1,0.5l-3.6,5.5c-0.5,0.7-0.3,1.6,0.4,2.1l3.6,2.9
			c-0.4,1.7-0.5,3.5-0.3,5.2l-3.9,2.5c-0.7,0.4-0.9,1.4-0.6,2.1l3,5.8c0.4,0.7,1.3,1.1,2,0.8l4.3-1.7c0.6,0.6,1.3,1.1,2.1,1.6
			c0.7,0.5,1.5,0.9,2.3,1.2l0.2,4.6c0,0.8,0.7,1.5,1.5,1.5l6.5,0.3c0.8,0,1.6-0.6,1.7-1.4l0.7-4.6c3.3-1,6.3-3.2,8.3-6.3
			c2-3.1,2.8-6.7,2.4-10.1l3.9-2.5c0.7-0.4,0.9-1.4,0.6-2.1l-3-5.8C36.2,219.2,35.3,218.9,34.5,219.2z M25.1,224
			C25.1,224,25.1,224,25.1,224C25.1,224.1,25.1,224.1,25.1,224c0.2,0.1,0.3,0.2,0.5,0.3c0,0,0.1,0.1,0.1,0.1
			c0.1,0.1,0.2,0.2,0.4,0.3c0,0,0.1,0,0.1,0.1c0.9,0.8,1.7,1.8,2.3,2.9c0.3,0.6,0.5,1.1,0.7,1.7c0,0,0,0,0,0
			c0.1,0.4,0.2,0.8,0.3,1.2c0,0,0,0,0,0.1c0,0.2,0,0.4,0.1,0.5c0,0,0,0,0,0.1c0,0.4,0,0.8,0,1.2c0,0,0,0,0,0c0,0,0,0,0,0
			c-0.1,1.7-0.6,3.3-1.5,4.7c-0.9,1.4-2.2,2.6-3.7,3.3c0,0,0,0,0,0c0,0,0,0,0,0c0,0,0,0,0,0c-0.4,0.2-0.7,0.3-1.1,0.5c0,0,0,0,0,0
			c-0.2,0.1-0.4,0.1-0.6,0.2c0,0,0,0,0,0c-0.4,0.1-0.8,0.2-1.2,0.2c0,0,0,0,0,0c-0.6,0.1-1.2,0.1-1.8,0.1c-1.6-0.1-3.2-0.6-4.6-1.5
			c0,0,0,0-0.1,0c0,0,0,0,0,0c0,0,0,0,0,0c0,0,0,0,0,0c0,0,0,0,0,0c0,0,0,0,0,0c-0.2-0.1-0.3-0.2-0.5-0.3c0,0-0.1-0.1-0.1-0.1
			c-0.1-0.1-0.2-0.2-0.4-0.3c0,0-0.1-0.1-0.1-0.1c-0.9-0.8-1.7-1.8-2.3-2.9c0,0,0,0,0,0c-0.2-0.4-0.3-0.7-0.5-1.1c0,0,0-0.1,0-0.1
			c-0.1-0.1-0.1-0.3-0.1-0.5c0,0,0-0.1,0-0.1c0-0.2-0.1-0.4-0.1-0.5c0,0,0,0,0-0.1c0-0.2-0.1-0.3-0.1-0.5c0-0.1,0-0.1,0-0.2
			c0-0.1,0-0.3,0-0.4c0-0.1,0-0.1,0-0.2c0-0.2,0-0.4,0-0.5c0,0,0-0.1,0-0.1c0-0.2,0-0.3,0-0.5c0,0,0-0.1,0-0.1
			c0.1-1.2,0.4-2.4,0.9-3.5c0,0,0-0.1,0-0.1c0.1-0.1,0.1-0.3,0.2-0.4c0,0,0-0.1,0.1-0.1c0.1-0.2,0.2-0.3,0.3-0.5c0,0,0,0,0,0
			c0.1-0.2,0.2-0.3,0.3-0.5c0,0,0.1-0.1,0.1-0.1c0.1-0.1,0.2-0.2,0.3-0.4c0,0,0.1-0.1,0.1-0.1c0.4-0.5,0.8-0.9,1.3-1.2
			c0,0,0,0,0.1,0c0.2-0.1,0.3-0.2,0.5-0.3c0,0,0,0,0,0c0.2-0.1,0.3-0.2,0.5-0.3c0,0,0,0,0.1,0c0.1-0.1,0.3-0.2,0.4-0.2
			c0,0,0.1,0,0.1-0.1c0.1-0.1,0.3-0.1,0.5-0.2c0,0,0.1,0,0.1,0c0.2-0.1,0.3-0.1,0.5-0.2c0.1,0,0.1,0,0.2-0.1c0.1,0,0.2-0.1,0.4-0.1
			c0.1,0,0.1,0,0.2-0.1c0.2,0,0.3-0.1,0.5-0.1c0,0,0,0,0.1,0c0.2,0,0.4-0.1,0.5-0.1c0,0,0.1,0,0.1,0c0.2,0,0.3,0,0.5-0.1
			c0,0,0.1,0,0.1,0c0.4,0,0.8,0,1.2,0c0,0,0,0,0,0c1.2,0.1,2.5,0.4,3.6,0.9c0,0,0,0,0,0c0.2,0.1,0.3,0.2,0.5,0.3c0,0,0,0,0.1,0
			C24.7,223.8,24.9,223.9,25.1,224C25,224,25.1,224,25.1,224C25.1,224,25.1,224,25.1,224C25.1,224,25.1,224,25.1,224
			C25.1,224,25.1,224,25.1,224z"/>
	</g>
	
		<linearGradient id="SVGID_00000038397185031476945210000005902969240705829771_" gradientUnits="userSpaceOnUse" x1="155.0244" y1="492.1744" x2="213.4719" y2="408.7029">
		<stop  offset="1.598337e-07" style="stop-color:#8D72D1"/>
		<stop  offset="1" style="stop-color:#D4CAEE"/>
	</linearGradient>
	<path style="fill:url(#SVGID_00000038397185031476945210000005902969240705829771_);" d="M214,491.2c-1,0.7-2.1,1.5-3.1,2.1
		c-8.4,5.2-17.7,7.7-26.9,7.7c-17,0-33.6-8.5-43.2-24c-7.2-11.4-9.2-24.6-6.8-36.9c0.6,0.4,1.2,0.8,1.8,1.2c2.1,1.3,4,2.1,5.9,2.7
		c-1.4,9.6,0.5,19.8,6,28.7c7.9,12.6,21.4,20.1,36.3,20.1c3.9,0,7.7-0.5,11.4-1.6C201.3,492.7,208,492,214,491.2z M175.9,408.2
		c2.6-0.5,5.3-0.8,7.9-0.8h0c14.9,0,28.4,7.5,36.3,20.1c5.1,8.1,7.2,17.5,6.3,27c2.1,0.6,4.4,1.5,6.9,3c0.3,0.2,0.6,0.4,0.9,0.5
		c1.8-11.7-0.4-24-7.1-34.8c-9.7-15.5-26.3-24-43.2-24c-9.2,0-18.6,2.5-26.9,7.7c-0.3,0.2-0.6,0.4-0.9,0.6
		C162.4,406.7,169.7,406.1,175.9,408.2z"/>
	<g>
		
			<linearGradient id="SVGID_00000109021461538238263130000012479813703952153999_" gradientUnits="userSpaceOnUse" x1="174.0255" y1="449.9206" x2="237.3457" y2="489.4875">
			<stop  offset="0" style="stop-color:#704FC6"/>
			<stop  offset="9.036885e-02" style="stop-color:#6747B5"/>
			<stop  offset="0.3969" style="stop-color:#4B2D7E"/>
			<stop  offset="0.6617" style="stop-color:#361B56"/>
			<stop  offset="0.8714" style="stop-color:#2A0F3E"/>
			<stop  offset="1" style="stop-color:#250B35"/>
		</linearGradient>
		<path style="fill:url(#SVGID_00000109021461538238263130000012479813703952153999_);" d="M240.8,483.9c-5.5-3.3-16.1-4.2-23.3-3.2
			c-7.2,1-16.8,2.8-22.5,0.1c-4.9-2.3-20.2-20.2-24.2-25c-0.4-0.5,0-1.1,0.6-1.1c2.9,0.4,6.5,2.3,10.1,6.1
			c4.3,4.4,10.7,10,16.2,12.6c3.4,1.6,11.1,2,9.9-0.8c-1.7-4.1-15.3-7.8-17.6-13.2c-0.2-0.4,0.2-0.9,0.7-0.8
			c5.4,1.7,11.7,4,17.4,4.8c9.7,1.4,13.1-1.7,20.1,2.5C235.2,470.1,240.8,483.9,240.8,483.9z"/>
		
			<linearGradient id="SVGID_00000157289308616805481030000017138430488741118637_" gradientUnits="userSpaceOnUse" x1="131.6835" y1="409.4155" x2="195.0036" y2="448.9823">
			<stop  offset="1.704893e-07" style="stop-color:#250B35"/>
			<stop  offset="0.1286" style="stop-color:#2A0F3E"/>
			<stop  offset="0.3383" style="stop-color:#361B56"/>
			<stop  offset="0.6031" style="stop-color:#4B2D7E"/>
			<stop  offset="0.9096" style="stop-color:#6747B5"/>
			<stop  offset="1" style="stop-color:#704FC6"/>
		</linearGradient>
		<path style="fill:url(#SVGID_00000157289308616805481030000017138430488741118637_);" d="M128.2,415c5.5,3.3,16.1,4.2,23.3,3.2
			c7.2-1,16.8-2.8,22.5-0.1c4.9,2.3,20.2,20.2,24.2,25c0.4,0.5,0,1.1-0.6,1.1c-2.9-0.4-6.5-2.3-10.1-6.1c-4.3-4.4-10.7-10-16.2-12.6
			c-3.4-1.6-11.1-2-9.9,0.8c1.7,4.1,15.3,7.8,17.6,13.2c0.2,0.4-0.2,0.9-0.7,0.8c-5.4-1.7-11.7-4-17.4-4.8
			c-9.7-1.4-13.1,1.7-20.1-2.5C133.9,428.8,128.2,415,128.2,415z"/>
		
			<linearGradient id="SVGID_00000132776880424663385330000010940276168029393553_" gradientUnits="userSpaceOnUse" x1="-366.5669" y1="-1865.9357" x2="-336.608" y2="-1865.9357" gradientTransform="matrix(0.5588 -0.8293 0.8293 0.5588 1928.8745 1200.6346)">
			<stop  offset="0" style="stop-color:#6446B0"/>
			<stop  offset="0.2035" style="stop-color:#704FC6"/>
			<stop  offset="0.214" style="stop-color:#7150C7"/>
			<stop  offset="0.3361" style="stop-color:#7C5CCE"/>
			<stop  offset="0.4612" style="stop-color:#7F60D1"/>
			<stop  offset="0.75" style="stop-color:#704FC6"/>
			<stop  offset="0.813" style="stop-color:#6D4DC1"/>
			<stop  offset="0.887" style="stop-color:#6547B3"/>
			<stop  offset="0.9664" style="stop-color:#583E9B"/>
			<stop  offset="1" style="stop-color:#51398F"/>
		</linearGradient>
		<path style="fill-rule:evenodd;clip-rule:evenodd;fill:url(#SVGID_00000132776880424663385330000010940276168029393553_);" d="
			M190.6,454c-2.6,3.2-7.3,3.7-10.5,1.1c-3.2-2.6-3.7-7.3-1.1-10.5c2.6-3.2,7.3-3.7,10.5-1.1C192.7,446.1,193.2,450.8,190.6,454
			 M166.1,441.5c-2.8-0.2-5-0.3-7.7,0.6c-2.8,1-4.7,2.7-5.8,3.7c2.7-0.2,7-0.3,12.1,1.2c4.7,1.4,8.1,3.6,10.1,5.2
			c-0.3-0.7-1-2.4-0.8-4.5c0.2-2.1,1.2-3.6,1.6-4.2C171.8,442.1,168.4,441.7,166.1,441.5z M203.8,457.7c2.8,0.2,5,0.3,7.7-0.6
			c2.8-1,4.7-2.7,5.8-3.7c-2.7,0.2-7,0.3-12.1-1.2c-4.7-1.4-8.1-3.6-10.1-5.2c0.3,0.7,1,2.4,0.8,4.5c-0.2,2.1-1.2,3.6-1.6,4.2
			C198.1,457.1,201.5,457.5,203.8,457.7z"/>
	</g>
	
		<linearGradient id="SVGID_00000130632971416806219860000017696172098381381551_" gradientUnits="userSpaceOnUse" x1="395.182" y1="454.0403" x2="453.6142" y2="370.5905">
		<stop  offset="1.598337e-07" style="stop-color:#8D72D1"/>
		<stop  offset="1" style="stop-color:#D4CAEE"/>
	</linearGradient>
	<path style="fill:url(#SVGID_00000130632971416806219860000017696172098381381551_);" d="M399.2,368.8c4.8-2.8,10.2-4.9,16-6.1
		c3.3-0.6,6.6-0.9,9.8-0.9c23.9,0,45.2,16.9,49.9,41.2c0.8,4.2,1.1,8.3,0.9,12.4c-2.4-2.3-5.3-3.9-8.2-5c-0.1-1.9-0.3-3.9-0.7-5.8
		c-3.9-20-21.5-34.6-41.9-34.6h0h0c-2.7,0-5.5,0.3-8.2,0.8c-3.4,0.7-6.7,1.7-9.7,3.1L399.2,368.8z M440.1,452.7
		c-2.2,0.8-4.6,1.5-7,2c-2.7,0.5-5.5,0.8-8.2,0.8c-20.4,0-38-14.6-41.9-34.6c-0.5-2.7-0.8-5.5-0.8-8.2l-7.9-5.1c0,0,0,0-0.1,0
		c-0.5,4.9-0.3,9.9,0.7,14.9c4.7,24.3,26.1,41.2,49.9,41.2c3.2,0,6.5-0.3,9.8-0.9c4.8-0.9,9.2-2.5,13.3-4.6
		C445.3,457,442.7,455.3,440.1,452.7z"/>
	<g>
		
			<radialGradient id="SVGID_00000005237863311348176050000000012049789834992564_" cx="468.6132" cy="440.1703" r="32.4288" gradientUnits="userSpaceOnUse">
			<stop  offset="1.704893e-07" style="stop-color:#250B35"/>
			<stop  offset="0.2715" style="stop-color:#260C38"/>
			<stop  offset="0.4348" style="stop-color:#2B1040"/>
			<stop  offset="0.5695" style="stop-color:#32174E"/>
			<stop  offset="0.6886" style="stop-color:#3D2062"/>
			<stop  offset="0.7974" style="stop-color:#4A2D7D"/>
			<stop  offset="0.8986" style="stop-color:#5B3C9D"/>
			<stop  offset="0.9924" style="stop-color:#6E4DC3"/>
			<stop  offset="1" style="stop-color:#704FC6"/>
		</radialGradient>
		<path style="fill:url(#SVGID_00000005237863311348176050000000012049789834992564_);" d="M461.8,439.3c-0.6,0.3-1.2,0.4-2,0.4
			c-1.8-0.1-3.3-1.2-3.9-2.9c-0.8-2.4,0.6-5.1,3.2-5.6c1.8-0.4,3.7,0.5,4.6,2.1c0.4,0.7,0.6,1.4,0.6,2.2c0,0.3,0.2,0.6,0.4,0.8
			l14.9,9.9c0.6,0.4,1.4,0,1.5-0.7c0.3-2.6-1.6-4.5-2.8-6.2c-1.6-2.3-4.6-9-7.6-14.4c-3-5.4-11.7-6.6-15.7-7.5
			c-4-0.8-10.5,2.3-13.1,6.6c-2.2,3.7-3.6,8.9,1.8,17.4c5.4,8.5,9.7,8.8,16.9,8.8s11.2,1.7,13.6,1.7c1.8,0,2.1,0.4,3.5-1
			c0.4-0.4,0.3-1.2-0.2-1.5l-14.9-9.9C462.5,439.2,462.1,439.2,461.8,439.3z"/>
		
			<linearGradient id="SVGID_00000130632891817468737530000017853550420729400207_" gradientUnits="userSpaceOnUse" x1="1559.7466" y1="-2385.0911" x2="1560.989" y2="-2312.73" gradientTransform="matrix(0.5444 -0.8388 0.8388 0.5444 1531.7675 2991.5103)">
			<stop  offset="0" style="stop-color:#6446B0"/>
			<stop  offset="0.2035" style="stop-color:#704FC6"/>
			<stop  offset="0.2359" style="stop-color:#7150C7"/>
			<stop  offset="0.6132" style="stop-color:#7C5CCE"/>
			<stop  offset="1" style="stop-color:#7F60D1"/>
		</linearGradient>
		<path style="fill:url(#SVGID_00000130632891817468737530000017853550420729400207_);" d="M393.4,376.8l19.1,12.4
			c-0.8-0.5-2-0.4-2.5,0.4c-0.6,0.9-0.4,2,0.5,2.6l3.7,2.4c0.9,0.6,1.2,1.8,0.6,2.8c-0.6,1-1.9,1.2-2.9,0.6c-1.8-1.2-5.9-3.8-7.6-5
			c-0.9-0.6-2.1-0.4-2.7,0.5c-0.7,0.9-0.4,2.2,0.5,2.8l14.6,9.5c0.8,0.5,1.1,1.6,0.6,2.5c-0.5,0.9-1.7,1.2-2.6,0.6l-6.8-4.4
			c-0.8-0.5-1.9-0.3-2.5,0.5c-0.5,0.8-0.3,1.8,0.5,2.4l3.3,2.1c0.8,0.5,1,1.6,0.5,2.3c-0.5,0.8-1.6,1-2.3,0.5l-6.5-4.2
			c-0.9-0.6-2.2-0.4-2.8,0.6c-0.7,1-0.3,2.3,0.6,2.9l-19.1-12.4c-1-0.6-1.3-2-0.6-2.9c0.6-0.9,1.9-1.2,2.8-0.6l6.5,4.2
			c0.8,0.5,1.8,0.3,2.3-0.5c0.5-0.8,0.3-1.8-0.5-2.3L387,395c-0.8-0.5-1-1.6-0.5-2.4c0.5-0.8,1.6-1,2.5-0.5l6.8,4.4
			c0.9,0.6,2.1,0.3,2.6-0.6c0.5-0.9,0.2-2-0.6-2.5l-14.6-9.5c-0.9-0.6-1.2-1.9-0.5-2.8c0.6-0.9,1.8-1,2.7-0.5c1.8,1.2,5.9,3.8,7.6,5
			c0.9,0.6,2.3,0.4,2.9-0.6c0.6-0.9,0.3-2.2-0.6-2.8l-3.7-2.4c-0.9-0.6-1.1-1.8-0.5-2.6C391.5,376.5,392.6,376.3,393.4,376.8z
			 M411.4,417.3c0.6-0.9,1.9-1.2,2.8-0.6l6.5,4.2c0.8,0.5,1.8,0.3,2.3-0.5c0.5-0.8,0.3-1.8-0.5-2.3l-3.3-2.1c-0.8-0.5-1-1.6-0.5-2.4
			c0.5-0.8,1.6-1,2.5-0.5l6.8,4.4c0.9,0.6,2.1,0.3,2.6-0.6c0.5-0.9,0.2-2-0.6-2.5l-7.5-4.9c0.8,0.5,1.1,1.6,0.6,2.5
			c-0.5,0.9-1.7,1.2-2.6,0.6l-6.8-4.4c-0.8-0.5-1.9-0.3-2.5,0.5c-0.5,0.8-0.3,1.8,0.5,2.4l3.3,2.1c0.8,0.5,1,1.6,0.5,2.3
			c-0.5,0.8-1.6,1-2.3,0.5l-6.5-4.2c-0.9-0.6-2.2-0.4-2.8,0.6c-0.7,1-0.3,2.3,0.6,2.9l7.5,4.9C411,419.6,410.7,418.2,411.4,417.3z
			 M414.7,402.1c0.6-0.9,1.8-1,2.7-0.5c-1.8-1.2-5.8-3.8-7.5-4.9c-0.9-0.6-2.1-0.4-2.7,0.5c-0.7,0.9-0.4,2.2,0.5,2.8l7.5,4.9
			C414.3,404.3,414.1,403,414.7,402.1z M415.6,393.3c-0.6,0.9-0.4,2,0.5,2.6l3.7,2.4c0.9,0.6,1.2,1.8,0.6,2.8
			c-0.6,1-1.9,1.2-2.9,0.6c1.8,1.2,5.8,3.8,7.5,4.9c0.9,0.6,2.3,0.4,2.9-0.6c0.6-0.9,0.3-2.2-0.6-2.8l-3.7-2.4
			c-0.9-0.6-1.1-1.8-0.5-2.6c0.6-0.8,1.7-1,2.5-0.4l-7.5-4.9C417.3,392.4,416.2,392.5,415.6,393.3z M428.6,401.8
			c-0.6,0.9-0.4,2,0.5,2.6l3.7,2.4c0.9,0.6,1.2,1.8,0.6,2.8c-0.6,1-1.9,1.2-2.9,0.6c-1.8-1.2-5.9-3.8-7.6-5
			c-0.9-0.6-2.1-0.4-2.7,0.5c-0.7,0.9-0.4,2.2,0.5,2.8l0.4,0.3l14.2,9.2c0.8,0.5,1.1,1.6,0.6,2.5c-0.5,0.9-1.7,1.2-2.6,0.6l-6.8-4.4
			c-0.8-0.5-1.9-0.3-2.5,0.5c-0.5,0.8-0.3,1.8,0.5,2.4l3.3,2.1c0.8,0.5,1,1.6,0.5,2.3c-0.5,0.8-1.6,1-2.3,0.5l-6.5-4.2
			c-0.9-0.6-2.2-0.4-2.8,0.6c-0.7,1-0.3,2.3,0.6,2.9l15.5,10.1c0.1,0,0.4,0.3,0.8,0.2c0.4-0.1,0.7-0.4,0.7-0.5
			c-0.1-0.3-0.2-0.8-0.3-1.5c-0.4-2.4,0-4.3,0.2-5.4c0.9-4.4,3.4-7.7,4-8.4c0,0,3.5-4.4,7.3-5.3c0.5-0.1,1.9-0.1,2-0.1c0,0,0,0,0,0
			c0.1,0,0.2,0,0.3-0.1l0.1-0.1c0.1-0.1,0-0.3-0.1-0.4l-16.9-10.9C430.3,400.8,429.2,401,428.6,401.8z M384.2,389.1l-1.5-1
			c-0.8-0.5-1.9-0.3-2.4,0.5l0,0c-0.5,0.8-0.3,1.9,0.5,2.4l1.5,1c0.8,0.5,1.9,0.3,2.4-0.5l0,0C385.2,390.7,385,389.7,384.2,389.1z"
			/>
	</g>
	
		<linearGradient id="SVGID_00000070811823749638453730000018002405678523289521_" gradientUnits="userSpaceOnUse" x1="430.956" y1="177.629" x2="489.3919" y2="94.1738">
		<stop  offset="1.598337e-07" style="stop-color:#8D72D1"/>
		<stop  offset="1" style="stop-color:#D4CAEE"/>
	</linearGradient>
	<path style="fill:url(#SVGID_00000070811823749638453730000018002405678523289521_);" d="M441.9,90.1c6.1-2.6,12.8-4,19.8-4
		c25.6,0,46.7,18.8,50.4,43.3c-0.2-0.2-0.5-0.4-0.7-0.5c-2.5-1.6-5.3-2.4-8.2-2.3c-4.7-18.5-21.5-32.3-41.4-32.3
		c-5.3,0-10.3,1-15,2.7C445.5,94.5,443.9,92.1,441.9,90.1z M474.5,185.7c-2.5-1.6-4.4-3.9-5.4-6.5c-2.4,0.4-4.8,0.6-7.3,0.6
		c-23.1,0-41.9-18.4-42.7-41.3c-2.8-0.2-5.6-0.8-8.2-1.8c0,0.1,0,0.2,0,0.3c0,28.1,22.8,50.9,50.9,50.9c4.7,0,9.3-0.7,13.6-1.8
		C475.1,186,474.8,185.8,474.5,185.7z"/>
	<g>
		<g id="XMLID_00000031195477539968245290000006620408918610557626_">
			
				<linearGradient id="XMLID_00000050625868534218551590000003977040813170104984_" gradientUnits="userSpaceOnUse" x1="427.6833" y1="96.1352" x2="428.9919" y2="96.9529">
				<stop  offset="1.704893e-07" style="stop-color:#250B35"/>
				<stop  offset="0.1286" style="stop-color:#2A0F3E"/>
				<stop  offset="0.3383" style="stop-color:#361B56"/>
				<stop  offset="0.6031" style="stop-color:#4B2D7E"/>
				<stop  offset="0.9096" style="stop-color:#6747B5"/>
				<stop  offset="1" style="stop-color:#704FC6"/>
			</linearGradient>
			
				<path id="XMLID_00000174591068513283536250000004002304133499130019_" style="fill:url(#XMLID_00000050625868534218551590000003977040813170104984_);" d="
				M427.7,96.1c-0.2,0.4-0.1,0.8,0.2,1.1s0.8,0.1,1.1-0.2c0.2-0.4,0.1-0.8-0.2-1.1C428.4,95.7,427.9,95.8,427.7,96.1z"/>
			
				<linearGradient id="XMLID_00000014594337400711264870000005652034983253265294_" gradientUnits="userSpaceOnUse" x1="436.0592" y1="109.2963" x2="437.3679" y2="110.114">
				<stop  offset="1.704893e-07" style="stop-color:#250B35"/>
				<stop  offset="0.1286" style="stop-color:#2A0F3E"/>
				<stop  offset="0.3383" style="stop-color:#361B56"/>
				<stop  offset="0.6031" style="stop-color:#4B2D7E"/>
				<stop  offset="0.9096" style="stop-color:#6747B5"/>
				<stop  offset="1" style="stop-color:#704FC6"/>
			</linearGradient>
			
				<path id="XMLID_00000169523035074316409060000016226094028088846985_" style="fill:url(#XMLID_00000014594337400711264870000005652034983253265294_);" d="
				M436.3,110.4c0.4,0.2,0.8,0.1,1.1-0.2c0.2-0.4,0.1-0.8-0.2-1.1c-0.4-0.2-0.8-0.1-1.1,0.2C435.8,109.6,435.9,110.1,436.3,110.4z"
				/>
			
				<linearGradient id="XMLID_00000036937965494673439980000014682640489086096055_" gradientUnits="userSpaceOnUse" x1="436.2307" y1="105.1555" x2="437.5394" y2="105.9732">
				<stop  offset="1.704893e-07" style="stop-color:#250B35"/>
				<stop  offset="0.1286" style="stop-color:#2A0F3E"/>
				<stop  offset="0.3383" style="stop-color:#361B56"/>
				<stop  offset="0.6031" style="stop-color:#4B2D7E"/>
				<stop  offset="0.9096" style="stop-color:#6747B5"/>
				<stop  offset="1" style="stop-color:#704FC6"/>
			</linearGradient>
			
				<path id="XMLID_00000046334879725793570610000005246963944050989242_" style="fill:url(#XMLID_00000036937965494673439980000014682640489086096055_);" d="
				M436.2,105.1c-0.2,0.4-0.1,0.8,0.2,1.1s0.8,0.1,1.1-0.2c0.2-0.4,0.1-0.8-0.2-1.1S436.5,104.8,436.2,105.1z"/>
			
				<linearGradient id="XMLID_00000157293874427488996070000012871539953658501811_" gradientUnits="userSpaceOnUse" x1="431.1877" y1="106.1299" x2="432.4963" y2="106.9477">
				<stop  offset="1.704893e-07" style="stop-color:#250B35"/>
				<stop  offset="0.1286" style="stop-color:#2A0F3E"/>
				<stop  offset="0.3383" style="stop-color:#361B56"/>
				<stop  offset="0.6031" style="stop-color:#4B2D7E"/>
				<stop  offset="0.9096" style="stop-color:#6747B5"/>
				<stop  offset="1" style="stop-color:#704FC6"/>
			</linearGradient>
			
				<path id="XMLID_00000182526493479442291980000016551402192716857480_" style="fill:url(#XMLID_00000157293874427488996070000012871539953658501811_);" d="
				M432.3,105.9c-0.4-0.2-0.8-0.1-1.1,0.2c-0.2,0.4-0.1,0.8,0.2,1.1c0.4,0.2,0.8,0.1,1.1-0.2C432.7,106.6,432.6,106.1,432.3,105.9z"
				/>
			
				<linearGradient id="XMLID_00000020391047499378304880000003790776927525981604_" gradientUnits="userSpaceOnUse" x1="421.723" y1="120.6918" x2="423.0317" y2="121.5095">
				<stop  offset="1.704893e-07" style="stop-color:#250B35"/>
				<stop  offset="0.1286" style="stop-color:#2A0F3E"/>
				<stop  offset="0.3383" style="stop-color:#361B56"/>
				<stop  offset="0.6031" style="stop-color:#4B2D7E"/>
				<stop  offset="0.9096" style="stop-color:#6747B5"/>
				<stop  offset="1" style="stop-color:#704FC6"/>
			</linearGradient>
			
				<circle id="XMLID_00000010298389139356987280000009748264271963062155_" style="fill:url(#XMLID_00000020391047499378304880000003790776927525981604_);" cx="422.4" cy="121.1" r="0.8"/>
			
				<linearGradient id="XMLID_00000009588309986931060860000016631005367924503214_" gradientUnits="userSpaceOnUse" x1="426.5946" y1="123.8581" x2="427.9032" y2="124.6758">
				<stop  offset="1.704893e-07" style="stop-color:#250B35"/>
				<stop  offset="0.1286" style="stop-color:#2A0F3E"/>
				<stop  offset="0.3383" style="stop-color:#361B56"/>
				<stop  offset="0.6031" style="stop-color:#4B2D7E"/>
				<stop  offset="0.9096" style="stop-color:#6747B5"/>
				<stop  offset="1" style="stop-color:#704FC6"/>
			</linearGradient>
			
				<circle id="XMLID_00000073681875738908291170000015071680906300112274_" style="fill:url(#XMLID_00000009588309986931060860000016631005367924503214_);" cx="427.2" cy="124.3" r="0.8"/>
			
				<linearGradient id="XMLID_00000074443895809394169270000000134235096867194554_" gradientUnits="userSpaceOnUse" x1="422.8801" y1="125.6961" x2="424.1888" y2="126.5138">
				<stop  offset="1.704893e-07" style="stop-color:#250B35"/>
				<stop  offset="0.1286" style="stop-color:#2A0F3E"/>
				<stop  offset="0.3383" style="stop-color:#361B56"/>
				<stop  offset="0.6031" style="stop-color:#4B2D7E"/>
				<stop  offset="0.9096" style="stop-color:#6747B5"/>
				<stop  offset="1" style="stop-color:#704FC6"/>
			</linearGradient>
			
				<circle id="XMLID_00000085937561321597521450000011173551034957180840_" style="fill:url(#XMLID_00000074443895809394169270000000134235096867194554_);" cx="423.5" cy="126.1" r="0.8"/>
			
				<linearGradient id="XMLID_00000094615327839659701030000006339024288053404300_" gradientUnits="userSpaceOnUse" x1="411.1663" y1="121.5473" x2="412.475" y2="122.3651">
				<stop  offset="1.704893e-07" style="stop-color:#250B35"/>
				<stop  offset="0.1286" style="stop-color:#2A0F3E"/>
				<stop  offset="0.3383" style="stop-color:#361B56"/>
				<stop  offset="0.6031" style="stop-color:#4B2D7E"/>
				<stop  offset="0.9096" style="stop-color:#6747B5"/>
				<stop  offset="1" style="stop-color:#704FC6"/>
			</linearGradient>
			
				<circle id="XMLID_00000070805219555333352110000014201990551031160213_" style="fill:url(#XMLID_00000094615327839659701030000006339024288053404300_);" cx="411.8" cy="122" r="0.8"/>
			
				<linearGradient id="XMLID_00000150072410648639455720000003567166778688533652_" gradientUnits="userSpaceOnUse" x1="405.0981" y1="99.8714" x2="446.0101" y2="125.436">
				<stop  offset="1.704893e-07" style="stop-color:#250B35"/>
				<stop  offset="0.1286" style="stop-color:#2A0F3E"/>
				<stop  offset="0.3383" style="stop-color:#361B56"/>
				<stop  offset="0.6031" style="stop-color:#4B2D7E"/>
				<stop  offset="0.9096" style="stop-color:#6747B5"/>
				<stop  offset="1" style="stop-color:#704FC6"/>
			</linearGradient>
			
				<path id="XMLID_00000137820798719625881800000002708494227999420333_" style="fill:url(#XMLID_00000150072410648639455720000003567166778688533652_);" d="
				M405.3,99.6c-5.7,8.7-3.2,20.3,5.5,26c6.3,4.1,14.2,3.9,20.2,0.2l8.7,5.6c0.9,0.6,2,0.4,2.6-0.5l1-1.6l-17.9-11.6l-7.6,1.6
				c0,0.2-0.1,0.4-0.2,0.5c-0.4,0.7-1.3,0.9-2,0.4c-0.7-0.4-0.9-1.3-0.4-2s1.3-0.8,2-0.4c0.1,0,0.2,0.1,0.2,0.1l6.4-1.4l-3.8-2.5
				l-4.2,0.9c0,0.2-0.1,0.5-0.3,0.7c-0.6,0.9-1.7,1.1-2.6,0.6c-0.9-0.6-1.1-1.7-0.6-2.6c0.6-0.9,1.7-1.1,2.6-0.5
				c0.2,0.1,0.4,0.3,0.5,0.5l4.4-1c0.2,0,0.4,0,0.5,0.1l23.6,15.3l0.5-0.8l-27.5-17.9l-3.6,0.8c0,0.3-0.2,0.6-0.3,0.9
				c-0.7,1-2,1.3-3,0.7c-1-0.7-1.3-2-0.6-3c0.7-1,2-1.3,3-0.6c0.3,0.2,0.6,0.5,0.7,0.8l3.8-0.8c0.2,0,0.4,0,0.5,0.1l27.8,18l0.5-0.8
				l-27.8-18c-0.2-0.1-0.3-0.3-0.3-0.4l-0.8-3.8c-0.3,0-0.7-0.1-1-0.3c-1-0.7-1.3-2-0.6-3c0.7-1,2-1.3,3-0.6c1,0.7,1.3,2,0.6,3
				c-0.2,0.3-0.4,0.5-0.7,0.7l0.8,3.6l27.5,17.9l0.5-0.8l-23.6-15.3c-0.2-0.1-0.3-0.3-0.3-0.4l-0.9-4.5c-0.2,0-0.5-0.1-0.7-0.3
				c-0.9-0.6-1.1-1.7-0.5-2.6c0.6-0.9,1.7-1.1,2.6-0.6c0.9,0.6,1.1,1.7,0.5,2.6c-0.1,0.2-0.3,0.4-0.5,0.5l0.9,4.1l3.8,2.5l-1.4-6.3
				c-0.1,0-0.2-0.1-0.2-0.1c-0.7-0.4-0.9-1.3-0.4-2c0.4-0.7,1.3-0.8,2-0.4c0.7,0.4,0.8,1.3,0.4,2c-0.1,0.2-0.2,0.3-0.4,0.4l1.6,7.6
				l17.9,11.6l0.9-1.4c0.6-0.9,0.5-2.2-0.5-2.8l-8.7-5.6c0.9-7-2.1-14.2-8.4-18.3C422.6,88.4,410.9,90.9,405.3,99.6z M421.6,122.3
				c-0.7-0.4-0.9-1.3-0.4-2c0.4-0.7,1.3-0.9,2-0.4c0.5,0.3,0.7,0.8,0.7,1.3l2.7,1.8c0.5-0.3,1-0.2,1.5,0.1c0.7,0.4,0.8,1.3,0.4,2
				c-0.4,0.7-1.3,0.8-2,0.4c-0.5-0.3-0.8-0.9-0.6-1.6l-2.6-1.7C422.8,122.6,422.1,122.6,421.6,122.3z M424.3,124.9
				c0.7,0.4,0.9,1.3,0.4,2c-0.4,0.7-1.3,0.9-2,0.4c-0.1-0.1-0.2-0.2-0.3-0.2l-2.8,0.6c-0.1,0-0.3,0-0.4-0.1l-6.7-4.4
				c-0.4,0.2-1,0.3-1.5,0c-0.7-0.4-0.9-1.3-0.4-2c0.4-0.7,1.3-0.8,2-0.4c0.5,0.3,0.8,0.9,0.6,1.6l6.5,4.2l2.4-0.5
				c0-0.2,0.1-0.5,0.2-0.7C422.8,124.7,423.7,124.5,424.3,124.9z M437.5,108.5c0.7,0.4,0.9,1.3,0.4,2c-0.4,0.7-1.3,0.9-2,0.4
				c-0.5-0.3-0.7-0.9-0.7-1.3l-2.7-1.8c-0.4,0.2-1,0.2-1.5-0.1c-0.7-0.4-0.8-1.3-0.4-2c0.4-0.7,1.3-0.8,2-0.4
				c0.5,0.3,0.8,0.9,0.6,1.6l2.6,1.7C436.3,108.2,437,108.2,437.5,108.5z M429.8,96.7l6.7,4.4c0.1,0.1,0.2,0.2,0.2,0.3l0.6,2.8
				c0.1,0,0.2,0.1,0.4,0.2c0.7,0.4,0.9,1.3,0.4,2c-0.4,0.7-1.3,0.8-2,0.4c-0.7-0.4-0.9-1.3-0.4-2c0.1-0.2,0.3-0.4,0.5-0.5l-0.5-2.5
				l-6.5-4.2c-0.5,0.4-1.1,0.4-1.7,0.1c-0.7-0.4-0.9-1.3-0.4-2c0.4-0.7,1.3-0.8,2-0.4C429.6,95.6,429.8,96.1,429.8,96.7z"/>
			
				<linearGradient id="XMLID_00000180368711853321219720000015197713677480272771_" gradientUnits="userSpaceOnUse" x1="416.1782" y1="100.3208" x2="418.2212" y2="101.5974">
				<stop  offset="1.704893e-07" style="stop-color:#250B35"/>
				<stop  offset="0.1286" style="stop-color:#2A0F3E"/>
				<stop  offset="0.3383" style="stop-color:#361B56"/>
				<stop  offset="0.6031" style="stop-color:#4B2D7E"/>
				<stop  offset="0.9096" style="stop-color:#6747B5"/>
				<stop  offset="1" style="stop-color:#704FC6"/>
			</linearGradient>
			
				<path id="XMLID_00000130642319260393720600000004166816134173228434_" style="fill:url(#XMLID_00000180368711853321219720000015197713677480272771_);" d="
				M418.2,101.6c0.4-0.6,0.2-1.3-0.4-1.7c-0.6-0.4-1.3-0.2-1.7,0.4c-0.4,0.6-0.2,1.3,0.4,1.7c0.2,0.2,0.5,0.2,0.8,0.2l0.3-0.1
				C417.8,102,418.1,101.8,418.2,101.6z"/>
			
				<linearGradient id="XMLID_00000012447157335549364100000005995606522426653058_" gradientUnits="userSpaceOnUse" x1="410.3117" y1="109.3468" x2="412.3547" y2="110.6234">
				<stop  offset="1.704893e-07" style="stop-color:#250B35"/>
				<stop  offset="0.1286" style="stop-color:#2A0F3E"/>
				<stop  offset="0.3383" style="stop-color:#361B56"/>
				<stop  offset="0.6031" style="stop-color:#4B2D7E"/>
				<stop  offset="0.9096" style="stop-color:#6747B5"/>
				<stop  offset="1" style="stop-color:#704FC6"/>
			</linearGradient>
			
				<path id="XMLID_00000044155918215737489630000016395514472639008694_" style="fill:url(#XMLID_00000012447157335549364100000005995606522426653058_);" d="
				M410.7,111c0.6,0.4,1.3,0.2,1.7-0.4c0.1-0.2,0.2-0.4,0.2-0.7l-0.1-0.4c-0.1-0.2-0.2-0.4-0.5-0.5c-0.6-0.4-1.3-0.2-1.7,0.4
				C410,109.9,410.1,110.6,410.7,111z"/>
			
				<linearGradient id="XMLID_00000013156374184510146430000006522298702099304068_" gradientUnits="userSpaceOnUse" x1="415.7665" y1="118.7101" x2="417.0751" y2="119.5279">
				<stop  offset="1.704893e-07" style="stop-color:#250B35"/>
				<stop  offset="0.1286" style="stop-color:#2A0F3E"/>
				<stop  offset="0.3383" style="stop-color:#361B56"/>
				<stop  offset="0.6031" style="stop-color:#4B2D7E"/>
				<stop  offset="0.9096" style="stop-color:#6747B5"/>
				<stop  offset="1" style="stop-color:#704FC6"/>
			</linearGradient>
			
				<circle id="XMLID_00000175315779961132057360000002590623079195875505_" style="fill:url(#XMLID_00000013156374184510146430000006522298702099304068_);" cx="416.4" cy="119.1" r="0.8"/>
			
				<linearGradient id="XMLID_00000021834859327454560180000006636061521541496735_" gradientUnits="userSpaceOnUse" x1="413.0183" y1="114.2532" x2="414.8519" y2="115.399">
				<stop  offset="1.704893e-07" style="stop-color:#250B35"/>
				<stop  offset="0.1286" style="stop-color:#2A0F3E"/>
				<stop  offset="0.3383" style="stop-color:#361B56"/>
				<stop  offset="0.6031" style="stop-color:#4B2D7E"/>
				<stop  offset="0.9096" style="stop-color:#6747B5"/>
				<stop  offset="1" style="stop-color:#704FC6"/>
			</linearGradient>
			
				<path id="XMLID_00000168094008665853422280000011497636850999851149_" style="fill:url(#XMLID_00000021834859327454560180000006636061521541496735_);" d="
				M413.3,115.7c0.5,0.3,1.2,0.2,1.5-0.3c0.3-0.5,0.2-1.2-0.3-1.5c-0.5-0.3-1.2-0.2-1.5,0.3C412.7,114.7,412.8,115.4,413.3,115.7z"
				/>
			
				<linearGradient id="XMLID_00000137092648244852361820000007065117313899261849_" gradientUnits="userSpaceOnUse" x1="426.9582" y1="101.4911" x2="428.2669" y2="102.3088">
				<stop  offset="1.704893e-07" style="stop-color:#250B35"/>
				<stop  offset="0.1286" style="stop-color:#2A0F3E"/>
				<stop  offset="0.3383" style="stop-color:#361B56"/>
				<stop  offset="0.6031" style="stop-color:#4B2D7E"/>
				<stop  offset="0.9096" style="stop-color:#6747B5"/>
				<stop  offset="1" style="stop-color:#704FC6"/>
			</linearGradient>
			
				<path id="XMLID_00000170970711863095258620000003542720930300027320_" style="fill:url(#XMLID_00000137092648244852361820000007065117313899261849_);" d="
				M428,101.3c-0.4-0.2-0.8-0.1-1.1,0.2c-0.2,0.4-0.1,0.8,0.2,1.1c0.4,0.2,0.8,0.1,1.1-0.2C428.5,102,428.4,101.5,428,101.3z"/>
			
				<linearGradient id="XMLID_00000169523197023130729740000011283885495091332774_" gradientUnits="userSpaceOnUse" x1="421.7633" y1="100.7985" x2="423.597" y2="101.9443">
				<stop  offset="1.704893e-07" style="stop-color:#250B35"/>
				<stop  offset="0.1286" style="stop-color:#2A0F3E"/>
				<stop  offset="0.3383" style="stop-color:#361B56"/>
				<stop  offset="0.6031" style="stop-color:#4B2D7E"/>
				<stop  offset="0.9096" style="stop-color:#6747B5"/>
				<stop  offset="1" style="stop-color:#704FC6"/>
			</linearGradient>
			
				<path id="XMLID_00000016773364216926580800000013994348368684531610_" style="fill:url(#XMLID_00000169523197023130729740000011283885495091332774_);" d="
				M423.6,102c0.3-0.5,0.2-1.2-0.3-1.5s-1.2-0.2-1.5,0.3c-0.3,0.5-0.2,1.2,0.3,1.5C422.6,102.6,423.3,102.5,423.6,102z"/>
		</g>
		<g>
			<g>
				
					<linearGradient id="SVGID_00000076562936055557245540000011911215285748809618_" gradientUnits="userSpaceOnUse" x1="1937.3024" y1="-1592.5913" x2="1937.9934" y2="-1553.8657" gradientTransform="matrix(0.545 -0.8385 0.8385 0.545 735.259 2644.0083)">
					<stop  offset="0" style="stop-color:#7F60D1"/>
					<stop  offset="0.5176" style="stop-color:#704FC6"/>
					<stop  offset="0.6392" style="stop-color:#6D4DC1"/>
					<stop  offset="0.782" style="stop-color:#6547B3"/>
					<stop  offset="0.9351" style="stop-color:#583E9B"/>
					<stop  offset="1" style="stop-color:#51398F"/>
				</linearGradient>
				<path style="fill:url(#SVGID_00000076562936055557245540000011911215285748809618_);" d="M468.7,153.6l9.2,6l2.1,10.1
					c-0.5,0.3-1,0.8-1.3,1.4c-1.4,2.1-0.8,4.9,1.3,6.3c2.1,1.4,4.9,0.8,6.3-1.3c1.4-2.1,0.8-4.9-1.3-6.3c-0.5-0.3-1.1-0.6-1.7-0.7
					l-2.2-10.8c-0.1-0.4-0.3-0.9-0.7-1.1l-19.9-12.9l-1.8,2.8l6.1,3.9 M484.6,175c-0.8,1.2-2.4,1.6-3.6,0.8
					c-1.2-0.8-1.6-2.4-0.8-3.6c0.8-1.2,2.4-1.6,3.6-0.8C485,172.1,485.4,173.8,484.6,175z"/>
				
					<linearGradient id="SVGID_00000170239983596260821130000009345423196701392265_" gradientUnits="userSpaceOnUse" x1="1962.2231" y1="-1593.3373" x2="1963.1427" y2="-1541.807" gradientTransform="matrix(0.545 -0.8385 0.8385 0.545 735.259 2644.0083)">
					<stop  offset="0" style="stop-color:#7F60D1"/>
					<stop  offset="0.5176" style="stop-color:#704FC6"/>
					<stop  offset="0.6392" style="stop-color:#6D4DC1"/>
					<stop  offset="0.782" style="stop-color:#6547B3"/>
					<stop  offset="0.9351" style="stop-color:#583E9B"/>
					<stop  offset="1" style="stop-color:#51398F"/>
				</linearGradient>
				<path style="fill:url(#SVGID_00000170239983596260821130000009345423196701392265_);" d="M495.7,156.8l9.2-2
					c0.4,0.7,1,1.4,1.8,1.9c2.5,1.6,5.7,0.9,7.3-1.6c1.6-2.5,0.9-5.7-1.6-7.3c-2.5-1.6-5.7-0.9-7.3,1.6c-0.4,0.7-0.7,1.4-0.8,2.2
					l-8.7,1.9l-29.3-19.1l-1.8,2.8l29.9,19.4C494.8,156.8,495.2,156.9,495.7,156.8z M506.8,153.2l-0.2-0.7c-0.1-0.6,0.1-1.3,0.5-1.8
					c0.9-1.3,2.7-1.7,4-0.9c1.3,0.9,1.7,2.7,0.9,4c-0.9,1.3-2.7,1.7-4,0.9C507.4,154.3,507,153.8,506.8,153.2z"/>
				
					<linearGradient id="SVGID_00000156568983631689364520000003615309267533365941_" gradientUnits="userSpaceOnUse" x1="1967.8616" y1="-1592.8325" x2="1968.5596" y2="-1553.719" gradientTransform="matrix(0.545 -0.8385 0.8385 0.545 735.259 2644.0083)">
					<stop  offset="0" style="stop-color:#7F60D1"/>
					<stop  offset="0.5176" style="stop-color:#704FC6"/>
					<stop  offset="0.6392" style="stop-color:#6D4DC1"/>
					<stop  offset="0.782" style="stop-color:#6547B3"/>
					<stop  offset="0.9351" style="stop-color:#583E9B"/>
					<stop  offset="1" style="stop-color:#51398F"/>
				</linearGradient>
				<path style="fill:url(#SVGID_00000156568983631689364520000003615309267533365941_);" d="M475.9,133.8l-6-3.9l-1.9,3l19.9,12.9
					c0.4,0.2,0.8,0.3,1.3,0.2l10.8-2.3c0.3,0.5,0.8,0.9,1.3,1.2c2.1,1.4,4.9,0.8,6.3-1.3c1.4-2.1,0.8-4.9-1.3-6.3
					c-2.1-1.4-4.9-0.8-6.3,1.3c-0.4,0.6-0.5,1.1-0.6,1.7l-10,2.1l-9.3-6 M501.4,139.6c0.8-1.2,2.4-1.6,3.6-0.8
					c1.2,0.8,1.6,2.4,0.8,3.6c-0.8,1.2-2.4,1.6-3.6,0.8C500.9,142.4,500.6,140.8,501.4,139.6z"/>
				
					<linearGradient id="SVGID_00000044142984230652017630000012844569583055711630_" gradientUnits="userSpaceOnUse" x1="1942.7433" y1="-1592.9657" x2="1943.6564" y2="-1541.8004" gradientTransform="matrix(0.545 -0.8385 0.8385 0.545 735.259 2644.0083)">
					<stop  offset="0" style="stop-color:#7F60D1"/>
					<stop  offset="0.5176" style="stop-color:#704FC6"/>
					<stop  offset="0.6392" style="stop-color:#6D4DC1"/>
					<stop  offset="0.782" style="stop-color:#6547B3"/>
					<stop  offset="0.9351" style="stop-color:#583E9B"/>
					<stop  offset="1" style="stop-color:#51398F"/>
				</linearGradient>
				<path style="fill:url(#SVGID_00000044142984230652017630000012844569583055711630_);" d="M492.5,169.9c-0.6,0.4-1.2,1-1.6,1.6
					c-1.6,2.5-0.9,5.8,1.5,7.4c2.5,1.6,5.7,0.9,7.3-1.6c1.6-2.5,0.9-5.7-1.6-7.3c-0.8-0.5-1.6-0.8-2.5-0.8l-1.9-9.2
					c-0.1-0.4-0.3-0.9-0.7-1.1l-29.9-19.4l-1.8,2.8l29.3,19.1L492.5,169.9z M497.7,176c-0.9,1.3-2.7,1.7-4,0.9
					c-1.3-0.9-1.7-2.7-0.9-4c0.3-0.5,0.8-0.9,1.3-1.1l1.1-0.2c0.6,0,1.1,0.1,1.6,0.5C498.2,172.9,498.6,174.7,497.7,176z"/>
			</g>
			<g>
				
					<linearGradient id="XMLID_00000054246518585194385970000018138325923177376187_" gradientUnits="userSpaceOnUse" x1="1953.1379" y1="-2616.8247" x2="1953.2156" y2="-2610.354" gradientTransform="matrix(0.545 -0.8385 0.5639 0.3665 865.8103 2728.8618)">
					<stop  offset="0" style="stop-color:#7F60D1"/>
					<stop  offset="0.5176" style="stop-color:#704FC6"/>
					<stop  offset="0.6392" style="stop-color:#6D4DC1"/>
					<stop  offset="0.782" style="stop-color:#6547B3"/>
					<stop  offset="0.9351" style="stop-color:#583E9B"/>
					<stop  offset="1" style="stop-color:#51398F"/>
				</linearGradient>
				
					<path id="XMLID_00000091701916852655924250000002965289461622832061_" style="fill:url(#XMLID_00000054246518585194385970000018138325923177376187_);" d="
					M466.8,120.8l-17.6,27.1c-0.6,0.9-1.9,1.2-2.8,0.6l0,0c-0.9-0.6-1.2-1.9-0.6-2.8l17.6-27.1c0.6-0.9,1.9-1.2,2.8-0.6l0,0
					C467.2,118.5,467.5,119.8,466.8,120.8z"/>
				
					<linearGradient id="XMLID_00000045604406684862734900000002361754117272977563_" gradientUnits="userSpaceOnUse" x1="1953.1364" y1="-2508.0837" x2="1953.217" y2="-2501.6003" gradientTransform="matrix(0.545 -0.8385 0.585 0.3802 850.6305 2718.9954)">
					<stop  offset="0" style="stop-color:#7F60D1"/>
					<stop  offset="0.5176" style="stop-color:#704FC6"/>
					<stop  offset="0.6392" style="stop-color:#6D4DC1"/>
					<stop  offset="0.782" style="stop-color:#6547B3"/>
					<stop  offset="0.9351" style="stop-color:#583E9B"/>
					<stop  offset="1" style="stop-color:#51398F"/>
				</linearGradient>
				
					<path id="XMLID_00000023964841493366071000000013981747956030986896_" style="fill:url(#XMLID_00000045604406684862734900000002361754117272977563_);" d="
					M460.4,116.6l-17.6,27c-0.6,1-2,1.3-2.9,0.6l0,0c-1-0.6-1.3-2-0.6-2.9l17.6-27c0.6-1,2-1.3,2.9-0.6l0,0
					C460.7,114.4,461,115.7,460.4,116.6z"/>
				
					<linearGradient id="XMLID_00000081619229170376437730000013349195501535041213_" gradientUnits="userSpaceOnUse" x1="1953.1376" y1="-2515.3037" x2="1953.2159" y2="-2508.9832" gradientTransform="matrix(0.545 -0.8385 0.5827 0.3787 862.243 2726.5432)">
					<stop  offset="0" style="stop-color:#7F60D1"/>
					<stop  offset="0.5176" style="stop-color:#704FC6"/>
					<stop  offset="0.6392" style="stop-color:#6D4DC1"/>
					<stop  offset="0.782" style="stop-color:#6547B3"/>
					<stop  offset="0.9351" style="stop-color:#583E9B"/>
					<stop  offset="1" style="stop-color:#51398F"/>
				</linearGradient>
				
					<path id="XMLID_00000181067457125812665930000017048142763450481805_" style="fill:url(#XMLID_00000081619229170376437730000013349195501535041213_);" d="
					M469.8,130.5l-10.5,16.1c-0.6,1-1.9,1.3-2.9,0.6l0,0c-1-0.6-1.3-1.9-0.6-2.9l10.5-16.1c0.6-1,1.9-1.3,2.9-0.6v0
					C470.2,128.3,470.5,129.6,469.8,130.5z"/>
			</g>
		</g>
	</g>
	
		<linearGradient id="SVGID_00000098900485870861006280000004908672886108776374_" gradientUnits="userSpaceOnUse" x1="168.5974" y1="93.9514" x2="227.0413" y2="10.485">
		<stop  offset="1.598337e-07" style="stop-color:#8D72D1"/>
		<stop  offset="1" style="stop-color:#D4CAEE"/>
	</linearGradient>
	<path style="fill:url(#SVGID_00000098900485870861006280000004908672886108776374_);" d="M216.9,97.4c-6.4,2.9-13.5,4.5-20.9,4.5
		c-2.9,0-5.9-0.3-8.9-0.8c-21.7-3.8-37.8-20.9-41.3-41.4c0.6-0.4,1.2-0.8,1.7-1.4l2.7-2.7l3.7,2.4c2.9,17.3,16.4,31.8,34.7,35
		c2.5,0.4,5,0.7,7.5,0.7c3.9,0,7.7-0.5,11.3-1.5l4.6,3C213.5,96.1,215.2,96.9,216.9,97.4z M181.7,5.3l-1,2.8l3,1.9
		c3.9-1.2,8.1-1.8,12.3-1.8h0c2.5,0,5,0.2,7.5,0.7c11.2,2,21,8.2,27.6,17.6c4.1,5.9,6.7,12.6,7.5,19.6l3.7,2.4
		c1.8,1.2,3.4,2.7,4.7,4.4c1-25-16.7-47.6-42-52.1c-3-0.5-6-0.8-8.9-0.8c-4.7,0-9.2,0.7-13.6,1.9C182.3,3,182.1,4.2,181.7,5.3z"/>
	<g>
		
			<linearGradient id="SVGID_00000096767745848112184690000013002243880426688699_" gradientUnits="userSpaceOnUse" x1="167.0095" y1="32.837" x2="244.9494" y2="83.4518">
			<stop  offset="0" style="stop-color:#704FC6"/>
			<stop  offset="7.579564e-03" style="stop-color:#6E4DC3"/>
			<stop  offset="0.1014" style="stop-color:#5B3C9D"/>
			<stop  offset="0.2026" style="stop-color:#4A2D7D"/>
			<stop  offset="0.3114" style="stop-color:#3D2062"/>
			<stop  offset="0.4305" style="stop-color:#32174E"/>
			<stop  offset="0.5652" style="stop-color:#2B1040"/>
			<stop  offset="0.7285" style="stop-color:#260C38"/>
			<stop  offset="1" style="stop-color:#250B35"/>
		</linearGradient>
		<path style="fill:url(#SVGID_00000096767745848112184690000013002243880426688699_);" d="M242.4,85c2.3-0.4,3.8-2.7,3.2-5
			l-5.3-18.6c-0.5-1.9-1.8-3.6-3.4-4.7l-60.1-38.9l-7.2,16.7l-12.2,13.4l60.1,38.9c1.7,1.1,3.7,1.5,5.8,1.2L242.4,85z M178.9,26.4
			l0.4-1l53,34.3l-3,4.6l-52.2-33.8L178.9,26.4z M173.7,37.2C173.7,37.2,173.8,37.2,173.7,37.2l0.9-2.3l51.9,33.6l-2.8,4.3
			l-51.9-33.6L173.7,37.2z M218.4,81.1l-0.4-0.2l-52.9-34.3l3.4-3.4L221,77.1L218.4,81.1z M234.6,81.9l-10.9,1.3l12.7-19.5l3,10.9
			L234.6,81.9z"/>
		
			<linearGradient id="SVGID_00000089538303765252388530000014003162774865764252_" gradientUnits="userSpaceOnUse" x1="525.8613" y1="-1010.8538" x2="526.8539" y2="-991.4468" gradientTransform="matrix(0.5436 -0.8394 0.8394 0.5436 712.0521 1013.3893)">
			<stop  offset="0" style="stop-color:#6446B0"/>
			<stop  offset="0.5057" style="stop-color:#704FC6"/>
			<stop  offset="0.5258" style="stop-color:#7150C7"/>
			<stop  offset="0.76" style="stop-color:#7C5CCE"/>
			<stop  offset="1" style="stop-color:#7F60D1"/>
		</linearGradient>
		<path style="fill:url(#SVGID_00000089538303765252388530000014003162774865764252_);" d="M171.2,1.1l-21,20.3
			c-0.1,0.1-0.1,0.2-0.2,0.3l-10.7,29c-0.1,0.3,0,0.7,0.3,0.8c0.3,0.2,0.7,0.1,0.9-0.1l8.4-8.4l4.9,3.2l12.5-13.7l7.4-17.1l-5-3.3
			l3.8-10.2c0.1-0.3,0-0.7-0.3-0.8C171.8,0.8,171.4,0.8,171.2,1.1z"/>
	</g>
	
		<linearGradient id="SVGID_00000072969086479079818500000016324123423196651955_" gradientUnits="userSpaceOnUse" x1="212.6743" y1="347.7809" x2="344.1379" y2="160.0315">
		<stop  offset="1.598337e-07" style="stop-color:#8D72D1"/>
		<stop  offset="1" style="stop-color:#D4CAEE"/>
	</linearGradient>
	<path style="fill:url(#SVGID_00000072969086479079818500000016324123423196651955_);" d="M183.6,189.5
		c20.6-30.3,55.4-50.3,94.8-50.3c39.5,0,74.4,20.1,95,50.5c-1.1-0.1-2.1-0.2-2.8-0.2c-2.9-0.2-5.5-0.3-7.8,0.1
		c-19.4-25.4-50-41.9-84.4-41.9c-34,0-64.4,16.1-83.8,41.1c-3.5-0.1-7,0.1-10,0.5C184.3,189.4,183.9,189.5,183.6,189.5z
		 M373.2,317.9c-2.6,0.4-5.6,0.5-8.7,0.5c-0.6,0-1.3,0-1.9,0c-19.4,25.3-49.9,41.6-84.2,41.6c-34.6,0-65.3-16.6-84.7-42.3
		c-0.7,0.1-1.4,0.1-2.1,0.1c-1.4,0-2.8-0.1-4.4-0.2c-1-0.1-2.6-0.2-4.3-0.4c20.6,30.9,55.7,51.2,95.5,51.2
		c39.6,0,74.5-20.1,95.1-50.7C373.4,317.8,373.3,317.9,373.2,317.9z"/>
	<g>
		<g>
			<path id="Circle_Top_-_Black_00000071524710771540893480000011776070842145078435_" class="st45" d="M360.2,283.6
				c-4.1-0.6-7.8-1.9-8.1-2.2c-0.1,0,0.2-0.2,0.5-0.9c3.2-8.5,4.6-16.6,4.6-26.5c0-14.9-3.8-28.5-11.4-41.2
				c-5.9-9.7-15.3-19.2-25.4-25.5c-6.8-4.3-15.8-8-23.7-9.7c-6.7-1.5-9.3-1.8-17.8-1.7c-6.7,0-8.3,0.1-11.2,0.6
				c-9.3,1.5-16.1,3.6-23.6,7.4c-8.1,4.1-14,8.3-20.6,14.8l-3.4,3.4l-4.2-1.9c-3.5-1.1-3.9-1.3-9.2-2.6c-1.5-0.4-3.3-0.5-3.4-0.5
				c-0.2-0.2,4-5.2,7.8-9.2c2.2-2.3,7.6-7.1,10.9-9.5c4.2-3.2,6.3-4.6,10.2-6.7c18.9-10.8,41.1-14.8,62.1-11.2
				c13.6,2.3,24.9,6.7,36.5,14.3c20.9,13.6,36,35.6,41,60c1.6,7.8,1.9,10.4,1.8,19.6c0,8.9-0.2,11-1.7,18.9
				c-0.8,4-2.9,10.2-2.9,10.2s-0.7,0.6-3.9,0.7C363.1,283.9,360.9,283.7,360.2,283.6z"/>
			<path id="Circle_Top_-_Black_00000129169741564428918900000003399578541908089783_" class="st45" d="M197.6,223.6
				c4.1,0.6,7.8,1.9,8.1,2.2c0.1,0-0.2,0.2-0.5,0.9c-3.2,8.5-4.6,16.6-4.6,26.5c0,14.9,3.8,28.5,11.4,41.2
				c5.9,9.7,15.3,19.2,25.4,25.5c6.8,4.3,15.8,8,23.7,9.7c6.7,1.5,9.3,1.8,17.8,1.7c6.7,0,8.3-0.1,11.2-0.6
				c9.3-1.5,16.1-3.6,23.6-7.4c8.1-4.1,14-8.3,20.6-14.8l3.4-3.4l4.2,1.9c3.5,1.1,3.9,1.3,9.2,2.6c1.5,0.4,3.3,0.5,3.4,0.5
				c0.2,0.2-4,5.2-7.8,9.2c-2.2,2.3-7.6,7.1-10.9,9.5c-4.2,3.2-6.3,4.6-10.2,6.7c-18.9,10.8-41.1,14.8-62.1,11.2
				c-13.6-2.3-24.9-6.7-36.5-14.3c-20.9-13.6-36-35.6-41-60c-1.6-7.8-1.9-10.4-1.8-19.6c0-8.9,0.2-11,1.7-18.9
				c0.8-4,2.9-10.2,2.9-10.2s0.7-0.6,3.9-0.7C194.7,223.3,196.9,223.6,197.6,223.6z"/>
		</g>
		<g>
			<path class="st46" d="M221.8,299.2c0.3,0,4.7-1.9,7.3-3.2c11.9-5.7,24.5-13.9,45.9-29.8c20.5-15.2,20.6-15.4,24.8-18.2
				c17.1-11.9,29.7-19.1,41.8-23.7c1.6-0.6,3.2-1.1,3.4-1.1c0.3,0,0.1-0.6-1-2.7c-1.8-3.4-3.4-6.1-5.8-9.3l-1.9-2.6l-1.1,0.5
				c-0.6,0.3-2.6,1.1-4.4,1.9c-15.7,6.6-34.2,18.4-63.1,40.3c-9.5,7.2-12.3,9.3-17.2,12.8c-13,9.3-24.6,16.2-34.4,20.1l-2.6,1
				l0.5,1.3c1.4,2.9,4.1,8.2,6.6,11.5C221.3,298.6,221.8,299.2,221.8,299.2z"/>
			<g>
				<path class="st46" d="M192.9,305.1c0,0-0.7-1.1-1.3-2.1c-1.4-2.5-3.8-7.9-5.4-11.5c-0.7-1.7-1.2-3.2-1.4-3.3s-1.4-0.4-2.8-0.7
					c-12.7-2.9-22.5-12.1-25.9-24.2c-1.1-3.8-1.3-5.5-1.2-9.9c0-6.1,1-9.8,3.7-15.1c1.5-2.9,3.4-5.4,6.5-8.3
					c3.4-3.3,6.3-5.4,10.4-7.3c5.7-2.8,10-3.9,15.7-4.1c6.7-0.3,11.4,0.5,18.4,2.8c8.8,2.9,18.4,8.1,31.2,16.7
					c4.9,3.3,8.1,5.6,17,11.9l1.5,1.1l0.7-0.5c0.4-0.3,2.6-1.9,5-3.7c2.4-1.8,5.1-3.8,6.1-4.5c1-0.7,1.7-1.3,1.7-1.4
					c0-0.1-2-1.6-4.5-3.4c-16.8-12.4-29.5-20.6-40.5-26.2c-5.8-2.9-8.1-3.9-13-5.6c-4.6-1.6-4.8-1.6-10-2.8
					c-4.9-1.1-13-1.4-18.4-0.7c-6.5,0.9-11.9,2.7-18.2,5.8c-4.2,2.1-5.9,3.2-8.7,5.3c-10.7,8.1-17.9,18.7-20.3,30
					c-1.4,6.5-1.4,12.6-0.1,19.6c1.4,7.4,3.6,12.7,7.7,18.8c8.2,12.3,20.6,20.2,35.8,22.9c1.3,0.3,3.8,0.5,5.4,0.6
					C190.7,305.1,192.9,305.2,192.9,305.1z"/>
				<g>
					
						<linearGradient id="SVGID_00000111891507855347988990000015513689829902312610_" gradientUnits="userSpaceOnUse" x1="159.5166" y1="198.8479" x2="252.3751" y2="269.6094">
						<stop  offset="0.2035" style="stop-color:#704FC6"/>
						<stop  offset="0.214" style="stop-color:#7150C7"/>
						<stop  offset="0.3361" style="stop-color:#7C5CCE"/>
						<stop  offset="0.4612" style="stop-color:#7F60D1"/>
						<stop  offset="0.75" style="stop-color:#704FC6"/>
						<stop  offset="0.848" style="stop-color:#6F4EC4;stop-opacity:0.804"/>
						<stop  offset="0.8833" style="stop-color:#6B4CBD;stop-opacity:0.7334"/>
						<stop  offset="0.9085" style="stop-color:#6447B2;stop-opacity:0.683"/>
						<stop  offset="0.9289" style="stop-color:#5B40A1;stop-opacity:0.6423"/>
						<stop  offset="0.9463" style="stop-color:#4E378B;stop-opacity:0.6074"/>
						<stop  offset="0.9617" style="stop-color:#3F2C6F;stop-opacity:0.5765"/>
						<stop  offset="0.9757" style="stop-color:#2D204F;stop-opacity:0.5486"/>
						<stop  offset="0.9881" style="stop-color:#18112B;stop-opacity:0.5238"/>
						<stop  offset="0.9996" style="stop-color:#010102;stop-opacity:0.5008"/>
						<stop  offset="1" style="stop-color:#000000;stop-opacity:0.5"/>
					</linearGradient>
					<path style="fill:url(#SVGID_00000111891507855347988990000015513689829902312610_);" d="M158.6,238.1c1.5-2.9,3.4-5.4,6.5-8.3
						c3.4-3.3,6.3-5.4,10.4-7.3c5.7-2.8,10-3.9,15.7-4.1c6.7-0.3,11.4,0.5,18.4,2.8c8.8,2.9,18.4,8.1,31.2,16.7
						c4.9,3.3,8.1,5.6,17,11.9l1.5,1.1l0.7-0.5c0.4-0.3,2.6-1.9,5-3.7c2.4-1.8,5.1-3.8,6.1-4.5c1-0.7,1.7-1.3,1.7-1.4
						c0-0.1-2-1.6-4.5-3.4c-16.8-12.4-29.5-20.6-40.5-26.2c-5.8-2.9-8.1-3.9-13-5.6c-4.6-1.6-4.8-1.6-10-2.8
						c-4.9-1.1-13-1.4-18.4-0.7c-6.5,0.9-11.9,2.7-18.2,5.8c-4.2,2.1-5.9,3.2-8.7,5.3c-6.8,5.2-12.3,11.4-15.9,18.1"/>
					
						<linearGradient id="SVGID_00000079457143636126199480000006043215289299853716_" gradientUnits="userSpaceOnUse" x1="143.5001" y1="277.1409" x2="180.7516" y2="263.5824">
						<stop  offset="0" style="stop-color:#704FC6"/>
						<stop  offset="9.951232e-02" style="stop-color:#704FC6"/>
						<stop  offset="0.7041" style="stop-color:#704FC6"/>
						<stop  offset="0.7377" style="stop-color:#6D4DC0;stop-opacity:0.9432"/>
						<stop  offset="0.7805" style="stop-color:#6446B1;stop-opacity:0.8709"/>
						<stop  offset="0.8282" style="stop-color:#553C97;stop-opacity:0.7902"/>
						<stop  offset="0.8796" style="stop-color:#412E72;stop-opacity:0.7034"/>
						<stop  offset="0.9339" style="stop-color:#261B43;stop-opacity:0.6117"/>
						<stop  offset="0.9897" style="stop-color:#06040B;stop-opacity:0.5173"/>
						<stop  offset="1" style="stop-color:#000000;stop-opacity:0.5"/>
					</linearGradient>
					<path style="fill:url(#SVGID_00000079457143636126199480000006043215289299853716_);" d="M143.6,231.2
						c-2.1,3.8-3.6,7.8-4.4,11.9c-1.4,6.5-1.4,12.6-0.1,19.6c1.4,7.4,3.6,12.7,7.7,18.8c8.2,12.3,20.6,20.2,35.8,22.9
						c1.3,0.3,3.8,0.5,5.4,0.6c2.8,0.2,4.9,0.2,4.9,0.1c0,0-0.7-1.1-1.3-2.1c-1.4-2.5-3.8-7.9-5.4-11.5c-0.7-1.7-1.2-3.2-1.4-3.3
						s-1.4-0.4-2.8-0.7c-12.7-2.9-22.5-12.1-25.9-24.2c-1.1-3.8-1.3-5.5-1.2-9.9c0-6.1,1-9.8,3.7-15.1"/>
				</g>
			</g>
			<g>
				<path class="st46" d="M365,202.2c0,0,0.7,1.1,1.3,2.1c1.4,2.5,3.8,7.9,5.4,11.5c0.7,1.7,1.2,3.2,1.4,3.3
					c0.2,0.1,1.4,0.4,2.8,0.7c12.7,2.9,22.5,12.1,25.9,24.2c1.1,3.8,1.3,5.5,1.2,9.9c0,6.1-1,9.8-3.7,15.1c-1.5,2.9-3.4,5.4-6.5,8.3
					c-3.4,3.3-6.3,5.4-10.4,7.3c-5.7,2.8-10,3.9-15.7,4.1c-6.7,0.3-11.4-0.5-18.4-2.8c-8.8-2.9-18.4-8.1-31.2-16.7
					c-4.9-3.3-8.1-5.6-17-11.9l-1.5-1.1l-0.7,0.5c-0.4,0.3-2.6,1.9-5,3.7c-2.4,1.8-5.1,3.8-6.1,4.5c-1,0.7-1.7,1.3-1.7,1.4
					c0,0.1,2,1.6,4.5,3.4c16.8,12.4,29.5,20.6,40.5,26.2c5.8,2.9,8.1,3.9,13,5.6c4.6,1.6,4.8,1.6,10,2.8c4.9,1.1,13,1.4,18.4,0.7
					c6.5-0.9,11.9-2.7,18.2-5.8c4.2-2.1,5.9-3.2,8.7-5.3c10.7-8.1,17.9-18.7,20.3-30c1.4-6.5,1.4-12.6,0.1-19.6
					c-1.4-7.4-3.6-12.7-7.7-18.8c-8.2-12.3-20.6-20.2-35.8-22.9c-1.3-0.3-3.8-0.5-5.4-0.6C367.1,202.1,365,202.1,365,202.2z"/>
				<g>
					
						<linearGradient id="SVGID_00000116949069848846605960000002301515267649061790_" gradientUnits="userSpaceOnUse" x1="122.7752" y1="-94.3215" x2="215.6336" y2="-23.5601" gradientTransform="matrix(-1 0 0 -1 521.0818 214.0851)">
						<stop  offset="0.2035" style="stop-color:#704FC6"/>
						<stop  offset="0.214" style="stop-color:#7150C7"/>
						<stop  offset="0.3361" style="stop-color:#7C5CCE"/>
						<stop  offset="0.4612" style="stop-color:#7F60D1"/>
						<stop  offset="0.75" style="stop-color:#704FC6"/>
						<stop  offset="0.848" style="stop-color:#6F4EC4;stop-opacity:0.804"/>
						<stop  offset="0.8833" style="stop-color:#6B4CBD;stop-opacity:0.7334"/>
						<stop  offset="0.9085" style="stop-color:#6447B2;stop-opacity:0.683"/>
						<stop  offset="0.9289" style="stop-color:#5B40A1;stop-opacity:0.6423"/>
						<stop  offset="0.9463" style="stop-color:#4E378B;stop-opacity:0.6074"/>
						<stop  offset="0.9617" style="stop-color:#3F2C6F;stop-opacity:0.5765"/>
						<stop  offset="0.9757" style="stop-color:#2D204F;stop-opacity:0.5486"/>
						<stop  offset="0.9881" style="stop-color:#18112B;stop-opacity:0.5238"/>
						<stop  offset="0.9996" style="stop-color:#010102;stop-opacity:0.5008"/>
						<stop  offset="1" style="stop-color:#000000;stop-opacity:0.5"/>
					</linearGradient>
					<path style="fill:url(#SVGID_00000116949069848846605960000002301515267649061790_);" d="M399.2,269.2
						c-1.5,2.9-3.4,5.4-6.5,8.3c-3.4,3.3-6.3,5.4-10.4,7.3c-5.7,2.8-10,3.9-15.7,4.1c-6.7,0.3-11.4-0.5-18.4-2.8
						c-8.8-2.9-18.4-8.1-31.2-16.7c-4.9-3.3-8.1-5.6-17-11.9l-1.5-1.1l-0.7,0.5c-0.4,0.3-2.6,1.9-5,3.7c-2.4,1.8-5.1,3.8-6.1,4.5
						c-1,0.7-1.7,1.3-1.7,1.4c0,0.1,2,1.6,4.5,3.4c16.8,12.4,29.5,20.6,40.5,26.2c5.8,2.9,8.1,3.9,13,5.6c4.6,1.6,4.8,1.6,10,2.8
						c4.9,1.1,13,1.4,18.4,0.7c6.5-0.9,11.9-2.7,18.2-5.8c4.2-2.1,5.9-3.2,8.7-5.3c6.8-5.2,12.3-11.4,15.9-18.1"/>
					
						<linearGradient id="SVGID_00000060018036334274071230000013376738003612125058_" gradientUnits="userSpaceOnUse" x1="106.7587" y1="-16.0286" x2="144.0102" y2="-29.587" gradientTransform="matrix(-1 0 0 -1 521.0818 214.0851)">
						<stop  offset="0" style="stop-color:#704FC6"/>
						<stop  offset="9.951232e-02" style="stop-color:#704FC6"/>
						<stop  offset="0.7041" style="stop-color:#704FC6"/>
						<stop  offset="0.7377" style="stop-color:#6D4DC0;stop-opacity:0.9432"/>
						<stop  offset="0.7805" style="stop-color:#6446B1;stop-opacity:0.8709"/>
						<stop  offset="0.8282" style="stop-color:#553C97;stop-opacity:0.7902"/>
						<stop  offset="0.8796" style="stop-color:#412E72;stop-opacity:0.7034"/>
						<stop  offset="0.9339" style="stop-color:#261B43;stop-opacity:0.6117"/>
						<stop  offset="0.9897" style="stop-color:#06040B;stop-opacity:0.5173"/>
						<stop  offset="1" style="stop-color:#000000;stop-opacity:0.5"/>
					</linearGradient>
					<path style="fill:url(#SVGID_00000060018036334274071230000013376738003612125058_);" d="M414.2,276c2.1-3.8,3.6-7.8,4.4-11.9
						c1.4-6.5,1.4-12.6,0.1-19.6c-1.4-7.4-3.6-12.7-7.7-18.8c-8.2-12.3-20.6-20.2-35.8-22.9c-1.3-0.3-3.8-0.5-5.4-0.6
						c-2.8-0.2-4.9-0.2-4.9-0.1c0,0,0.7,1.1,1.3,2.1c1.4,2.5,3.8,7.9,5.4,11.5c0.7,1.7,1.2,3.2,1.4,3.3c0.2,0.1,1.4,0.4,2.8,0.7
						c12.7,2.9,22.5,12.1,25.9,24.2c1.1,3.8,1.3,5.5,1.2,9.9c0,6.1-1,9.8-3.7,15.1"/>
				</g>
			</g>
			
				<linearGradient id="SVGID_00000062906140754215674590000007334275479230682777_" gradientUnits="userSpaceOnUse" x1="217.8327" y1="293.5475" x2="340.2834" y2="214.0271">
				<stop  offset="1.438503e-07" style="stop-color:#080807;stop-opacity:0.5"/>
				<stop  offset="1.017818e-02" style="stop-color:#1C162B;stop-opacity:0.5204"/>
				<stop  offset="2.267442e-02" style="stop-color:#2F234F;stop-opacity:0.5453"/>
				<stop  offset="3.672958e-02" style="stop-color:#412F6F;stop-opacity:0.5735"/>
				<stop  offset="5.228507e-02" style="stop-color:#50398B;stop-opacity:0.6046"/>
				<stop  offset="6.984951e-02" style="stop-color:#5C41A1;stop-opacity:0.6397"/>
				<stop  offset="9.035903e-02" style="stop-color:#6547B2;stop-opacity:0.6807"/>
				<stop  offset="0.1157" style="stop-color:#6B4CBD;stop-opacity:0.7314"/>
				<stop  offset="0.1513" style="stop-color:#6F4EC4;stop-opacity:0.8026"/>
				<stop  offset="0.25" style="stop-color:#704FC6"/>
				<stop  offset="0.5" style="stop-color:#7F60D1"/>
				<stop  offset="0.75" style="stop-color:#704FC6"/>
				<stop  offset="0.848" style="stop-color:#6F4EC4;stop-opacity:0.804"/>
				<stop  offset="0.8833" style="stop-color:#6B4CBD;stop-opacity:0.7334"/>
				<stop  offset="0.9085" style="stop-color:#6447B2;stop-opacity:0.683"/>
				<stop  offset="0.9289" style="stop-color:#5B40A1;stop-opacity:0.6423"/>
				<stop  offset="0.9463" style="stop-color:#4E378B;stop-opacity:0.6074"/>
				<stop  offset="0.9617" style="stop-color:#3F2C6F;stop-opacity:0.5765"/>
				<stop  offset="0.9757" style="stop-color:#2D204F;stop-opacity:0.5486"/>
				<stop  offset="0.9881" style="stop-color:#18112B;stop-opacity:0.5238"/>
				<stop  offset="0.9996" style="stop-color:#010102;stop-opacity:0.5008"/>
				<stop  offset="1" style="stop-color:#000000;stop-opacity:0.5"/>
			</linearGradient>
			<path style="fill:url(#SVGID_00000062906140754215674590000007334275479230682777_);" d="M221.8,299.2c0.3,0,4.7-1.9,7.3-3.2
				c11.9-5.7,24.5-13.9,45.9-29.8c20.5-15.2,20.6-15.4,24.8-18.2c17.1-11.9,29.7-19.1,41.8-23.7c1.6-0.6,3.2-1.1,3.4-1.1
				c0.3,0,0.1-0.6-1-2.7c-1.8-3.4-3.4-6.1-5.8-9.3l-1.9-2.6l-1.1,0.5c-0.6,0.3-2.6,1.1-4.4,1.9c-15.7,6.6-34.2,18.4-63.1,40.3
				c-9.5,7.2-12.3,9.3-17.2,12.8c-13,9.3-24.6,16.2-34.4,20.1l-2.6,1l0.5,1.3c1.4,2.9,4.1,8.2,6.6,11.5
				C221.3,298.6,221.8,299.2,221.8,299.2z"/>
		</g>
	</g>
</g>
</svg>
