<svg width="122" height="185" viewBox="0 0 122 185" fill="none" xmlns="http://www.w3.org/2000/svg">
<path d="M61 143.973C50.0275 143.973 41.1324 135.057 41.1324 124.059C41.1324 113.062 50.0275 104.146 61 104.146" stroke="#4A009E"/>
<path d="M61 147.955C47.833 147.955 37.1589 137.257 37.1589 124.059C37.1589 110.862 47.833 100.163 61 100.163" stroke="#4A009E"/>
<path d="M61 151.938C45.6384 151.938 33.1854 139.457 33.1854 124.059C33.1854 108.662 45.6384 96.1807 61 96.1807" stroke="#4A009E"/>
<path d="M61 155.921C43.4438 155.921 29.2119 141.656 29.2119 124.059C29.2119 106.463 43.4438 92.1978 61 92.1978" stroke="#4A009E"/>
<path d="M61 159.903C41.2493 159.903 25.2384 143.855 25.2384 124.059C25.2384 104.263 41.2493 88.2148 61 88.2148" stroke="#4A009E"/>
<path d="M61 163.886C39.0549 163.886 21.2649 146.055 21.2649 124.059C21.2649 102.064 39.0549 84.2324 61 84.2324" stroke="#4A009E"/>
<path d="M61 167.869C36.8604 167.869 17.2914 148.254 17.2914 124.059C17.2914 99.8638 36.8604 80.2495 61 80.2495" stroke="#4A009E"/>
<path d="M61 171.852C34.6659 171.852 13.3179 150.454 13.3179 124.059C13.3179 97.6645 34.6659 76.2671 61 76.2671" stroke="#4A009E"/>
<path d="M61 175.834C32.4714 175.834 9.34436 152.654 9.34436 124.059C9.34436 95.4646 32.4714 72.2842 61 72.2842" stroke="#4A009E"/>
<path d="M61 179.817C30.2769 179.817 5.37085 154.853 5.37085 124.059C5.37085 93.2652 30.2769 68.3018 61 68.3018" stroke="#4A009E"/>
<path d="M61 183.799C28.0824 183.799 1.39734 157.053 1.39734 124.059C1.39734 91.0654 28.0824 64.3188 61 64.3188" stroke="#4A009E"/>
<path d="M61 139.99C52.2221 139.99 45.106 132.857 45.106 124.059C45.106 115.261 52.2221 108.128 61 108.128" stroke="#4A009E"/>
<path d="M61 136.007C54.4163 136.007 49.0795 130.658 49.0795 124.059C49.0795 117.46 54.4163 112.111 61 112.111" stroke="#4A009E"/>
<path d="M61 132.024C56.6109 132.024 53.053 128.458 53.053 124.059C53.053 119.66 56.6109 116.094 61 116.094" stroke="#4A009E"/>
<path d="M61 128.042C58.8054 128.042 57.0265 126.259 57.0265 124.059C57.0265 121.86 58.8054 120.077 61 120.077" stroke="#4A009E"/>
<path d="M61 80.2497C71.9725 80.2497 80.8675 71.3341 80.8675 60.3363C80.8675 49.3385 71.9725 40.4229 61 40.4229" stroke="#4A009E"/>
<path d="M61 84.2322C74.167 84.2322 84.8411 73.5335 84.8411 60.336C84.8411 47.1386 74.167 36.4399 61 36.4399" stroke="#4A009E"/>
<path d="M61 88.2151C76.3616 88.2151 88.8146 75.7334 88.8146 60.3363C88.8146 44.9393 76.3616 32.4575 61 32.4575" stroke="#4A009E"/>
<path d="M61 92.1976C78.5562 92.1976 92.7881 77.9328 92.7881 60.3361C92.7881 42.7394 78.5562 28.4746 61 28.4746" stroke="#4A009E"/>
<path d="M61 96.1805C80.7507 96.1805 96.7616 80.1327 96.7616 60.3363C96.7616 40.54 80.7507 24.4922 61 24.4922" stroke="#4A009E"/>
<path d="M61 100.163C82.9449 100.163 100.735 82.3317 100.735 60.3361C100.735 38.3404 82.9449 20.5093 61 20.5093" stroke="#4A009E"/>
<path d="M61 104.146C85.1395 104.146 104.709 84.5316 104.709 60.3364C104.709 36.1411 85.1395 16.5269 61 16.5269" stroke="#4A009E"/>
<path d="M61 108.128C87.334 108.128 108.682 86.731 108.682 60.3362C108.682 33.9412 87.334 12.5439 61 12.5439" stroke="#4A009E"/>
<path d="M61 112.111C89.5286 112.111 112.656 88.9309 112.656 60.3364C112.656 31.7419 89.5286 8.56152 61 8.56152" stroke="#4A009E"/>
<path d="M61 116.094C91.7232 116.094 116.629 91.1303 116.629 60.3362C116.629 29.5421 91.7232 4.57861 61 4.57861" stroke="#4A009E"/>
<path d="M61 120.077C93.9177 120.077 120.603 93.3302 120.603 60.3365C120.603 27.3428 93.9177 0.596191 61 0.596191" stroke="#4A009E"/>
<path d="M61 76.2672C69.7779 76.2672 76.894 69.1346 76.894 60.3365C76.894 51.5384 69.7779 44.4058 61 44.4058" stroke="#4A009E"/>
<path d="M61 72.2843C67.5837 72.2843 72.9205 66.9351 72.9205 60.3362C72.9205 53.7373 67.5837 48.3882 61 48.3882" stroke="#4A009E"/>
<path d="M61 68.3018C65.3891 68.3018 68.947 64.7357 68.947 60.3365C68.947 55.9372 65.3891 52.3711 61 52.3711" stroke="#4A009E"/>
<path d="M61 64.3189C63.1946 64.3189 64.9735 62.5358 64.9735 60.3362C64.9735 58.1366 63.1946 56.3535 61 56.3535" stroke="#4A009E"/>
<path d="M61 143.972C71.9725 143.972 80.8675 135.057 80.8675 124.059C80.8675 121.607 80.4253 119.259 79.6167 117.089" stroke="#4A009E"/>
<path d="M61 147.956C74.167 147.956 84.8411 137.257 84.8411 124.059C84.8411 121.117 84.3106 118.299 83.3399 115.696" stroke="#4A009E"/>
<path d="M61 151.938C76.3616 151.938 88.8146 139.456 88.8146 124.059C88.8146 120.551 88.1681 117.195 86.9883 114.103" stroke="#4A009E"/>
<path d="M61 155.921C78.5562 155.921 92.7881 141.656 92.7881 124.059C92.7881 119.91 91.9966 115.946 90.557 112.311" stroke="#4A009E"/>
<path d="M61 159.903C80.7507 159.903 96.7616 143.855 96.7616 124.059C96.7616 119.115 95.763 114.405 93.9567 110.12" stroke="#4A009E"/>
<path d="M61 163.886C82.9449 163.886 100.735 146.055 100.735 124.059C100.735 118.241 99.4902 112.713 97.2527 107.73" stroke="#4A009E"/>
<path d="M100.435 105.142C103.174 110.868 104.709 117.284 104.709 124.059C104.709 148.255 85.1395 167.869 61 167.869C36.8604 167.869 17.2914 148.255 17.2914 124.059C17.2914 99.8642 36.8604 80.2499 61 80.2499C71.9724 80.2499 80.8675 71.3342 80.8675 60.3365C80.8675 49.3387 71.9724 40.423 61 40.423M61 143.973C50.0275 143.973 41.1324 135.057 41.1324 124.059C41.1324 113.062 50.0275 104.146 61 104.146C85.1395 104.146 104.709 84.5317 104.709 60.3365C104.709 36.1411 85.1395 16.5269 61 16.5269M61 147.956C47.833 147.956 37.1589 137.257 37.1589 124.059C37.1589 110.862 47.833 100.163 61 100.163C82.9449 100.163 100.735 82.332 100.735 60.3365C100.735 38.3407 82.9449 20.5096 61 20.5096M61 151.938C45.6384 151.938 33.1854 139.456 33.1854 124.059C33.1854 108.662 45.6384 96.1806 61 96.1806C80.7507 96.1806 96.7616 80.1328 96.7616 60.3365C96.7616 40.5401 80.7507 24.4923 61 24.4923M61 155.921C43.4438 155.921 29.2119 141.656 29.2119 124.059C29.2119 106.463 43.4438 92.1979 61 92.1979C78.5561 92.1979 92.7881 77.9331 92.7881 60.3365C92.7881 42.7398 78.5561 28.475 61 28.475M61 159.904C41.2493 159.904 25.2384 143.856 25.2384 124.059C25.2384 104.263 41.2493 88.2152 61 88.2152C76.3616 88.2152 88.8146 75.7335 88.8146 60.3365C88.8146 44.9394 76.3616 32.4577 61 32.4577M61 163.886C39.0549 163.886 21.2649 146.055 21.2649 124.059C21.2649 102.064 39.0549 84.2326 61 84.2326C74.167 84.2326 84.841 73.5339 84.841 60.3365C84.841 47.139 74.167 36.4404 61 36.4404M61 171.852C34.6659 171.852 13.3179 150.454 13.3179 124.059C13.3179 97.6646 34.6659 76.2672 61 76.2672C69.7779 76.2672 76.894 69.1346 76.894 60.3365C76.894 51.5383 69.7779 44.4057 61 44.4057M61 175.834C32.4714 175.834 9.34436 152.654 9.34436 124.059C9.34436 95.4649 32.4714 72.2845 61 72.2845C67.5837 72.2845 72.9205 66.9354 72.9205 60.3365C72.9205 53.7375 67.5837 48.3884 61 48.3884M61 179.817C30.2768 179.817 5.37085 154.854 5.37085 124.059C5.37085 93.2653 30.2768 68.3018 61 68.3018C65.3891 68.3018 68.947 64.7357 68.947 60.3365C68.947 55.9372 65.3891 52.3711 61 52.3711M61 183.8C28.0824 183.8 1.39734 157.053 1.39734 124.059C1.39734 91.0657 28.0824 64.3191 61 64.3191C63.1946 64.3191 64.9735 62.5361 64.9735 60.3365C64.9735 58.1368 63.1946 56.3538 61 56.3538M61 139.99C52.2221 139.99 45.1059 132.858 45.1059 124.059C45.1059 115.261 52.2221 108.129 61 108.129C87.334 108.129 108.682 86.7313 108.682 60.3365C108.682 33.9415 87.334 12.5442 61 12.5442M61 136.007C54.4163 136.007 49.0795 130.658 49.0795 124.059C49.0795 117.46 54.4163 112.111 61 112.111C89.5286 112.111 112.656 88.9309 112.656 60.3365C112.656 31.742 89.5286 8.56156 61 8.56156M61 132.025C56.6108 132.025 53.053 128.459 53.053 124.059C53.053 119.66 56.6108 116.094 61 116.094C91.7232 116.094 116.629 91.1306 116.629 60.3365C116.629 29.5424 91.7232 4.57888 61 4.57888M61 128.042C58.8054 128.042 57.0265 126.259 57.0265 124.059C57.0265 121.86 58.8054 120.077 61 120.077C93.9177 120.077 120.603 93.3302 120.603 60.3365C120.603 27.3428 93.9177 0.596191 61 0.596191" stroke="#4A009E"/>
<path d="M61 171.851C87.334 171.851 108.682 150.454 108.682 124.059C108.682 116.244 106.811 108.867 103.492 102.354" stroke="#4A009E"/>
<path d="M61 175.834C89.5286 175.834 112.656 152.654 112.656 124.059C112.656 115.037 110.353 106.554 106.305 99.1675" stroke="#4A009E"/>
<path d="M61 179.817C91.7232 179.817 116.629 154.853 116.629 124.059C116.629 113.739 113.831 104.073 108.955 95.7822" stroke="#4A009E"/>
<path d="M61 183.799C93.9178 183.799 120.603 157.053 120.603 124.059C120.603 112.345 117.239 101.419 111.427 92.1978" stroke="#4A009E"/>
<path d="M61 139.99C69.7779 139.99 76.894 132.857 76.894 124.059C76.894 122.022 76.5126 120.075 75.8176 118.284" stroke="#4A009E"/>
<path d="M61 136.007C67.5837 136.007 72.9205 130.658 72.9205 124.059C72.9205 122.283 72.5335 120.596 71.8397 119.081" stroke="#4A009E"/>
<path d="M61 132.025C65.3891 132.025 68.947 128.458 68.947 124.059C68.947 122.441 68.4654 120.935 67.6381 119.678" stroke="#4A009E"/>
<path d="M61 128.042C63.1946 128.042 64.9735 126.259 64.9735 124.059C64.9735 121.86 63.1946 120.077 61 120.077" stroke="#4A009E"/>
<path d="M61 40.4229C50.0275 40.4229 41.1324 49.3385 41.1324 60.3363C41.1324 62.7884 41.5747 65.1366 42.3833 67.306" stroke="#4A009E"/>
<path d="M61 36.4399C47.833 36.4399 37.1589 47.1386 37.1589 60.336C37.1589 63.2785 37.6895 66.0966 38.66 68.6997" stroke="#4A009E"/>
<path d="M61 32.4575C45.6384 32.4575 33.1854 44.9393 33.1854 60.3363C33.1854 63.8443 33.8318 67.2009 35.0118 70.293" stroke="#4A009E"/>
<path d="M61 28.4746C43.4438 28.4746 29.2119 42.7394 29.2119 60.3361C29.2119 64.4852 30.0033 68.4496 31.4429 72.085" stroke="#4A009E"/>
<path d="M61 24.4922C41.2493 24.4922 25.2384 40.54 25.2384 60.3363C25.2384 65.2805 26.2371 69.9908 28.0433 74.2757" stroke="#4A009E"/>
<path d="M61 20.5093C39.0549 20.5093 21.2649 38.3404 21.2649 60.3361C21.2649 66.1548 22.5099 71.6824 24.7474 76.6651" stroke="#4A009E"/>
<path d="M61 16.5269C36.8604 16.5269 17.2914 36.1411 17.2914 60.3364C17.2914 67.1117 18.8258 73.5274 21.5653 79.2541" stroke="#4A009E"/>
<path d="M61 12.5439C34.6659 12.5439 13.3179 33.9412 13.3179 60.3361C13.3179 68.1514 15.1894 75.5285 18.5078 82.0418" stroke="#4A009E"/>
<path d="M61 8.56152C32.4714 8.56152 9.34436 31.7419 9.34436 60.3364C9.34436 69.3588 11.6468 77.8419 15.6949 85.2282" stroke="#4A009E"/>
<path d="M61 4.57861C30.2769 4.57861 5.37085 29.5421 5.37085 60.3362C5.37085 70.6569 8.16848 80.3225 13.0451 88.6133" stroke="#4A009E"/>
<path d="M61 0.596191C28.0824 0.596191 1.39734 27.3428 1.39734 60.3364C1.39734 72.0256 4.74688 82.931 10.5364 92.1402" stroke="#4A009E"/>
<path d="M61 44.4058C52.2221 44.4058 45.106 51.5384 45.106 60.3365C45.106 62.3732 45.4874 64.3208 46.1824 66.1114" stroke="#4A009E"/>
<path d="M61 48.3882C54.4163 48.3882 49.0795 53.7373 49.0795 60.3362C49.0795 62.0356 49.4335 63.6518 50.0713 65.1155" stroke="#4A009E"/>
<path d="M61 52.3711C56.6109 52.3711 53.053 55.9372 53.053 60.3365C53.053 61.955 53.5346 63.4605 54.3619 64.7174" stroke="#4A009E"/>
<path d="M61 64.3189C58.8054 64.3189 57.0265 62.5358 57.0265 60.3362C57.0265 58.1366 58.8054 56.3535 61 56.3535" stroke="#4A009E"/>
</svg>
