<?xml version="1.0" encoding="utf-8"?>
<!-- Generator: Adobe Illustrator 26.1.0, SVG Export Plug-In . SVG Version: 6.00 Build 0)  -->
<svg version="1.1" id="Layer_1" xmlns="http://www.w3.org/2000/svg" xmlns:xlink="http://www.w3.org/1999/xlink" x="0px" y="0px"
	 viewBox="0 0 224.2 224.2" style="enable-background:new 0 0 224.2 224.2;" xml:space="preserve">
<style type="text/css">
	.st0{fill:url(#SVGID_1_);}
	.st1{fill:url(#SVGID_00000178203013516325907890000012407427708369387394_);}
	.st2{fill:url(#SVGID_00000132787818420143303520000015833008767688693419_);}
	.st3{fill:url(#SVGID_00000068635089796116939820000009742654522667014308_);}
	.st4{fill:url(#SVGID_00000082356414575760470430000009589604738282702514_);}
	.st5{fill:url(#SVGID_00000090994164815527645970000015365843896713897361_);}
	.st6{fill:url(#SVGID_00000042737227480867247200000014280295393215401102_);}
	.st7{fill:url(#SVGID_00000004506722663037437090000000533512932093401760_);}
	.st8{fill:url(#SVGID_00000093891332576807797850000001883191972986137780_);}
	.st9{fill:url(#SVGID_00000142160152056783369400000012150435747248386993_);}
	.st10{fill:url(#SVGID_00000134220375098242294510000018025120760426959497_);}
	.st11{fill:url(#SVGID_00000163755221334934896900000002355780789783864709_);}
	.st12{fill:url(#SVGID_00000075865490500263668630000010149896111163934376_);}
	.st13{fill:url(#SVGID_00000021815794356105701670000009034058382693867429_);}
	.st14{fill:url(#SVGID_00000176004033144203683050000002801099791103003308_);}
	.st15{fill:url(#SVGID_00000112594162781728367200000017550115744405819014_);}
	.st16{fill:url(#SVGID_00000028304169789287159640000018329924367873763215_);}
	.st17{fill:url(#SVGID_00000036211365632166751710000010835105137363833518_);}
	.st18{fill:url(#SVGID_00000158743842675780950100000001530592181640383396_);}
	.st19{fill:url(#SVGID_00000181080761547638676320000013241755777825879468_);}
	.st20{fill:url(#SVGID_00000033336781713974817430000005585056962029777556_);}
	.st21{fill:url(#SVGID_00000033328500672374130510000005553182167646403761_);}
	.st22{fill:url(#SVGID_00000091729106347480124110000010289841781527291327_);}
	.st23{fill:url(#SVGID_00000134967217181868449590000002031689249401430695_);}
	.st24{fill:url(#SVGID_00000036227938969185185010000010948065443315261587_);}
</style>
<g>
	<linearGradient id="SVGID_1_" gradientUnits="userSpaceOnUse" x1="56.7422" y1="191.0645" x2="167.408" y2="33.0174">
		<stop  offset="2.663895e-08" style="stop-color:#704FC6"/>
		<stop  offset="1" style="stop-color:#D4CAEE"/>
	</linearGradient>
	<path class="st0" d="M112.6,15.6c-0.2,0-0.3,0-0.5,0c-25.6,0-49.6,9.9-67.8,28c-18.3,18.2-28.5,42.3-28.6,68.1s9.8,50,28,68.3
		c18.2,18.3,42.3,28.5,68.1,28.6c0.2,0,0.3,0,0.5,0c53,0,96.2-43,96.5-96c0.1-25.7-9.8-50-28-68.3C162.5,25.9,138.3,15.7,112.6,15.6
		z M112.1,200.8c-0.1,0-0.3,0-0.4,0c-48.9-0.2-88.6-40.3-88.3-89.2c0.1-23.7,9.5-45.9,26.3-62.6c16.8-16.6,38.9-25.7,62.4-25.7
		c0.1,0,0.3,0,0.4,0c23.7,0.1,45.9,9.5,62.6,26.3c16.7,16.9,25.8,39.2,25.7,62.9C200.6,161.3,160.8,200.8,112.1,200.8z"/>
	<g>
		
			<linearGradient id="SVGID_00000013175884142240441910000014455194076561495440_" gradientUnits="userSpaceOnUse" x1="15.8241" y1="75.636" x2="66.113" y2="3.816">
			<stop  offset="2.663895e-08" style="stop-color:#704FC6"/>
			<stop  offset="1" style="stop-color:#D4CAEE"/>
		</linearGradient>
		<path style="fill:url(#SVGID_00000013175884142240441910000014455194076561495440_);" d="M74.6,10.6L74.6,10.6
			c-0.8-2.1-3.2-3.2-5.3-2.3C42.4,19.4,20.9,40.4,9.2,67.1c-0.9,2.1,0.1,4.5,2.2,5.3l0,0c2,0.8,4.2-0.2,5.1-2.1
			c10.9-24.8,30.9-44.4,55.9-54.6C74.3,14.8,75.3,12.6,74.6,10.6z"/>
		
			<linearGradient id="SVGID_00000134229514407857289100000015588596415406718338_" gradientUnits="userSpaceOnUse" x1="56.7035" y1="210.1333" x2="185.3265" y2="26.4407">
			<stop  offset="2.663895e-08" style="stop-color:#704FC6"/>
			<stop  offset="1" style="stop-color:#D4CAEE"/>
		</linearGradient>
		<path style="fill:url(#SVGID_00000134229514407857289100000015588596415406718338_);" d="M111.5,224.2c0.2,0,0.4,0,0.6,0
			c29.7,0,57.7-11.5,78.9-32.5c21.3-21.1,33.1-49.2,33.3-79.1s-11.4-58.1-32.5-79.4c-20-20.2-46.4-31.9-74.6-33.2
			c-2.2-0.1-4.1,1.7-4.1,3.9v0c0,2.1,1.6,3.8,3.7,3.9c55.6,2.5,100,48.6,99.7,104.8c-0.3,57.4-47,103.8-104.4,103.9
			c-0.2,0-0.3,0-0.5,0c-27.8-0.1-54-11.1-73.6-31C19.3,166.6,8.7,142,7.8,115.7c-0.1-2.1-1.8-3.7-3.9-3.8h0c-2.2,0-4,1.8-3.9,4
			C2.1,175.8,51.2,223.9,111.5,224.2z"/>
	</g>
	<g>
		
			<linearGradient id="SVGID_00000148641070183377879990000016574343648125203629_" gradientUnits="userSpaceOnUse" x1="-47.2608" y1="19.7219" x2="124.2685" y2="191.2512">
			<stop  offset="0" style="stop-color:#8D72D1"/>
			<stop  offset="0.16" style="stop-color:#8066BF"/>
			<stop  offset="0.4841" style="stop-color:#60468E"/>
			<stop  offset="0.9393" style="stop-color:#2C1240"/>
			<stop  offset="1" style="stop-color:#250B35"/>
		</linearGradient>
		<path style="fill:url(#SVGID_00000148641070183377879990000016574343648125203629_);" d="M56.8,135.9c-1.1,0-2.2-0.7-2.7-1.8
			c-3.2-7.6-4.9-15.8-4.9-24.1c0-1.6,1.3-2.9,2.9-2.9c1.6,0,2.9,1.3,2.9,2.9c0,7.6,1.5,14.9,4.4,21.9c0.6,1.5-0.1,3.2-1.6,3.8
			C57.6,135.8,57.2,135.9,56.8,135.9z"/>
		
			<linearGradient id="SVGID_00000046323223402416086050000005059714456168751003_" gradientUnits="userSpaceOnUse" x1="-867.439" y1="423.642" x2="-695.9066" y2="595.1744" gradientTransform="matrix(0.9908 -0.1352 0.1352 0.9908 919.5045 -443.3531)">
			<stop  offset="0" style="stop-color:#8D72D1"/>
			<stop  offset="0.16" style="stop-color:#8066BF"/>
			<stop  offset="0.4841" style="stop-color:#60468E"/>
			<stop  offset="0.9393" style="stop-color:#2C1240"/>
			<stop  offset="1" style="stop-color:#250B35"/>
		</linearGradient>
		<path style="fill:url(#SVGID_00000046323223402416086050000005059714456168751003_);" d="M163.9,142.8c-0.4,0-0.8-0.1-1.2-0.3
			c-1.5-0.7-2.1-2.4-1.4-3.9c2.5-5.3,4.1-11,4.9-16.8c0.2-1.6,1.7-2.7,3.3-2.5c1.6,0.2,2.7,1.7,2.5,3.3c-0.8,6.4-2.6,12.7-5.4,18.6
			C166.1,142.2,165,142.8,163.9,142.8z"/>
		
			<linearGradient id="SVGID_00000149383407670279115840000005780235588332314536_" gradientUnits="userSpaceOnUse" x1="22.5392" y1="-50.0775" x2="194.0677" y2="121.4511">
			<stop  offset="0" style="stop-color:#8D72D1"/>
			<stop  offset="0.16" style="stop-color:#8066BF"/>
			<stop  offset="0.4841" style="stop-color:#60468E"/>
			<stop  offset="0.9393" style="stop-color:#2C1240"/>
			<stop  offset="1" style="stop-color:#250B35"/>
		</linearGradient>
		<path style="fill:url(#SVGID_00000149383407670279115840000005780235588332314536_);" d="M170.3,112.9c-1.6,0-2.9-1.3-2.9-2.9
			c0-22.6-13.5-42.9-34.3-51.7c-1.5-0.6-2.2-2.3-1.6-3.8c0.6-1.5,2.3-2.2,3.8-1.6c23,9.7,37.9,32.2,37.9,57.1
			C173.3,111.6,172,112.9,170.3,112.9z"/>
		
			<linearGradient id="SVGID_00000120552251123962728250000006924315964354738574_" gradientUnits="userSpaceOnUse" x1="-7.4578" y1="-20.0796" x2="164.0692" y2="151.4474">
			<stop  offset="0" style="stop-color:#8D72D1"/>
			<stop  offset="0.16" style="stop-color:#8066BF"/>
			<stop  offset="0.4841" style="stop-color:#60468E"/>
			<stop  offset="0.9393" style="stop-color:#2C1240"/>
			<stop  offset="1" style="stop-color:#250B35"/>
		</linearGradient>
		<path style="fill:url(#SVGID_00000120552251123962728250000006924315964354738574_);" d="M55.4,93.5c-0.3,0-0.6-0.1-1-0.2
			c-1.5-0.5-2.3-2.2-1.8-3.7C61.3,64.7,84.9,48,111.3,48c1.6,0,2.9,1.3,2.9,2.9s-1.3,2.9-2.9,2.9c-23.9,0-45.2,15.1-53.1,37.7
			C57.8,92.7,56.7,93.5,55.4,93.5z"/>
		
			<linearGradient id="SVGID_00000128480587558823338640000018410945926803747727_" gradientUnits="userSpaceOnUse" x1="-22.0181" y1="-5.5241" x2="149.5136" y2="166.0076">
			<stop  offset="0" style="stop-color:#8D72D1"/>
			<stop  offset="0.16" style="stop-color:#8066BF"/>
			<stop  offset="0.4841" style="stop-color:#60468E"/>
			<stop  offset="0.9393" style="stop-color:#2C1240"/>
			<stop  offset="1" style="stop-color:#250B35"/>
		</linearGradient>
		<path style="fill:url(#SVGID_00000128480587558823338640000018410945926803747727_);" d="M64.3,118.7c-1.5,0-2.7-1.1-2.9-2.6
			c-0.2-2-0.4-4.1-0.4-6.1c0-17.8,9.6-34.4,25-43.4c1.4-0.8,3.2-0.3,4,1.1c0.8,1.4,0.3,3.2-1.1,4C75.4,79.6,66.9,94.3,66.9,110
			c0,1.8,0.1,3.6,0.3,5.4c0.2,1.6-0.9,3.1-2.6,3.3C64.6,118.7,64.5,118.7,64.3,118.7z"/>
		
			<linearGradient id="SVGID_00000145774334137376672160000010826726940647045552_" gradientUnits="userSpaceOnUse" x1="13.439" y1="-40.9779" x2="184.9681" y2="130.5512">
			<stop  offset="0" style="stop-color:#8D72D1"/>
			<stop  offset="0.16" style="stop-color:#8066BF"/>
			<stop  offset="0.4841" style="stop-color:#60468E"/>
			<stop  offset="0.9393" style="stop-color:#2C1240"/>
			<stop  offset="1" style="stop-color:#250B35"/>
		</linearGradient>
		<path style="fill:url(#SVGID_00000145774334137376672160000010826726940647045552_);" d="M140.3,75.6c-0.6,0-1.3-0.2-1.8-0.6
			c-7.8-6.1-17.3-9.4-27.2-9.4c-2.1,0-4.3,0.2-6.4,0.5c-1.6,0.2-3.1-0.9-3.3-2.5c-0.2-1.6,0.9-3.1,2.5-3.3c2.4-0.3,4.8-0.5,7.3-0.5
			c11.3,0,22,3.7,30.8,10.6c1.3,1,1.5,2.8,0.5,4.1C142,75.2,141.2,75.6,140.3,75.6z"/>
		
			<linearGradient id="SVGID_00000040539257428396766590000001010306585544397226_" gradientUnits="userSpaceOnUse" x1="-6939.4507" y1="-952.595" x2="-6767.9233" y2="-781.0681" gradientTransform="matrix(-1 0 0 1 -5717.9365 0)">
			<stop  offset="0" style="stop-color:#8D72D1"/>
			<stop  offset="0.16" style="stop-color:#8066BF"/>
			<stop  offset="0.4841" style="stop-color:#60468E"/>
			<stop  offset="0.9393" style="stop-color:#2C1240"/>
			<stop  offset="1" style="stop-color:#250B35"/>
		</linearGradient>
		<path style="fill:url(#SVGID_00000040539257428396766590000001010306585544397226_);" d="M142.3,163.2c-0.7,0-1.3-0.2-1.9-0.7
			c-1.3-1-1.4-2.9-0.4-4.1c15.2-18.6,22.5-50.7,8.4-72.5c-0.9-1.4-0.5-3.2,0.9-4c1.4-0.9,3.2-0.5,4,0.9c7.2,11.1,10,25.7,7.8,41
			c-2,14-8,28-16.6,38.4C144,162.8,143.2,163.2,142.3,163.2z"/>
		
			<linearGradient id="SVGID_00000036214520811380785940000008442514771247706796_" gradientUnits="userSpaceOnUse" x1="-7174.8306" y1="-1090.4791" x2="-7003.2998" y2="-918.9483" gradientTransform="matrix(-0.9993 -3.630000e-02 -3.630000e-02 0.9993 -5965.833 -102.6471)">
			<stop  offset="0" style="stop-color:#8D72D1"/>
			<stop  offset="0.16" style="stop-color:#8066BF"/>
			<stop  offset="0.4841" style="stop-color:#60468E"/>
			<stop  offset="0.9393" style="stop-color:#2C1240"/>
			<stop  offset="1" style="stop-color:#250B35"/>
		</linearGradient>
		<path style="fill:url(#SVGID_00000036214520811380785940000008442514771247706796_);" d="M114.3,130.7c-1.6,0-2.9-1.2-2.9-2.8
			c-0.2-5.6-1-11.1-2.4-16.2c-0.4-1.6,0.5-3.2,2.1-3.6c1.6-0.4,3.2,0.5,3.6,2.1c1.5,5.6,2.4,11.4,2.6,17.5c0.1,1.6-1.2,3-2.8,3
			C114.4,130.7,114.3,130.7,114.3,130.7z"/>
		
			<linearGradient id="SVGID_00000124147823123229745870000017401137794454712486_" gradientUnits="userSpaceOnUse" x1="-6937.3496" y1="-954.7336" x2="-6765.8198" y2="-783.2038" gradientTransform="matrix(-1 0 0 1 -5717.9365 0)">
			<stop  offset="0" style="stop-color:#8D72D1"/>
			<stop  offset="0.16" style="stop-color:#8066BF"/>
			<stop  offset="0.4841" style="stop-color:#60468E"/>
			<stop  offset="0.9393" style="stop-color:#2C1240"/>
			<stop  offset="1" style="stop-color:#250B35"/>
		</linearGradient>
		<path style="fill:url(#SVGID_00000124147823123229745870000017401137794454712486_);" d="M107.5,172c-0.4,0-0.7-0.1-1.1-0.2
			c-1.5-0.6-2.2-2.3-1.6-3.8c3.9-9.7,6.3-20.1,7-30.1c0.1-1.6,1.5-2.8,3.1-2.7c1.6,0.1,2.8,1.5,2.7,3.1c-0.7,10.6-3.3,21.6-7.4,31.9
			C109.8,171.3,108.7,172,107.5,172z"/>
		
			<linearGradient id="SVGID_00000006667992265070235210000012309151125677385379_" gradientUnits="userSpaceOnUse" x1="-49.5261" y1="21.9914" x2="121.9994" y2="193.5169">
			<stop  offset="0" style="stop-color:#8D72D1"/>
			<stop  offset="0.16" style="stop-color:#8066BF"/>
			<stop  offset="0.4841" style="stop-color:#60468E"/>
			<stop  offset="0.9393" style="stop-color:#2C1240"/>
			<stop  offset="1" style="stop-color:#250B35"/>
		</linearGradient>
		<path style="fill:url(#SVGID_00000006667992265070235210000012309151125677385379_);" d="M65,149.7c-0.3,0-0.5,0-0.8-0.1
			c-1.6-0.4-2.5-2.1-2-3.6c1.6-5.6,2.1-11.8,1.3-17.9c-0.2-1.6,0.9-3.1,2.5-3.3c1.6-0.2,3.1,0.9,3.3,2.5c0.8,6.9,0.3,13.8-1.5,20.2
			C67.5,148.9,66.3,149.7,65,149.7z"/>
		
			<linearGradient id="SVGID_00000007397007680464085760000015488436858201796510_" gradientUnits="userSpaceOnUse" x1="8.4813" y1="-36.0153" x2="180.0068" y2="135.5102">
			<stop  offset="0" style="stop-color:#8D72D1"/>
			<stop  offset="0.16" style="stop-color:#8066BF"/>
			<stop  offset="0.4841" style="stop-color:#60468E"/>
			<stop  offset="0.9393" style="stop-color:#2C1240"/>
			<stop  offset="1" style="stop-color:#250B35"/>
		</linearGradient>
		<path style="fill:url(#SVGID_00000007397007680464085760000015488436858201796510_);" d="M147.1,112.9c-1.6,0-2.9-1.3-2.9-2.9
			c0-10.8-5.3-21-14.3-27.1c-1.3-0.9-1.7-2.7-0.8-4.1c0.9-1.3,2.7-1.7,4.1-0.8c10.5,7.2,16.8,19.2,16.8,32
			C150,111.6,148.7,112.9,147.1,112.9z"/>
		
			<linearGradient id="SVGID_00000178194498417671981080000004341867763177432985_" gradientUnits="userSpaceOnUse" x1="-12.255" y1="-15.2794" x2="159.271" y2="156.2466">
			<stop  offset="0" style="stop-color:#8D72D1"/>
			<stop  offset="0.16" style="stop-color:#8066BF"/>
			<stop  offset="0.4841" style="stop-color:#60468E"/>
			<stop  offset="0.9393" style="stop-color:#2C1240"/>
			<stop  offset="1" style="stop-color:#250B35"/>
		</linearGradient>
		<path style="fill:url(#SVGID_00000178194498417671981080000004341867763177432985_);" d="M75.5,112.9c-1.6,0-2.9-1.3-2.9-2.9
			c0-21.4,17.4-38.7,38.7-38.7c1.3,0,2.7,0.1,4,0.2c1.6,0.2,2.8,1.6,2.6,3.2c-0.2,1.6-1.6,2.8-3.2,2.6c-1.1-0.1-2.3-0.2-3.4-0.2
			c-18.1,0-32.9,14.7-32.9,32.9C78.4,111.6,77.1,112.9,75.5,112.9z"/>
		
			<linearGradient id="SVGID_00000129898973125159074460000015348780512936727452_" gradientUnits="userSpaceOnUse" x1="-45.4021" y1="17.8641" x2="126.1266" y2="189.3928">
			<stop  offset="0" style="stop-color:#8D72D1"/>
			<stop  offset="0.16" style="stop-color:#8066BF"/>
			<stop  offset="0.4841" style="stop-color:#60468E"/>
			<stop  offset="0.9393" style="stop-color:#2C1240"/>
			<stop  offset="1" style="stop-color:#250B35"/>
		</linearGradient>
		<path style="fill:url(#SVGID_00000129898973125159074460000015348780512936727452_);" d="M74.5,159.2c-0.3,0-0.7-0.1-1-0.2
			c-1.5-0.6-2.3-2.3-1.7-3.8c2.4-6.3,3.6-13,3.6-19.9c0-4.5-0.5-8.9-1.6-13.2c-0.4-1.6,0.6-3.2,2.2-3.5c1.6-0.4,3.2,0.6,3.5,2.2
			c1.1,4.7,1.7,9.7,1.7,14.6c0,7.5-1.3,14.9-4,21.9C76.8,158.5,75.7,159.2,74.5,159.2z"/>
		
			<linearGradient id="SVGID_00000176032527233942338960000001255818141335156882_" gradientUnits="userSpaceOnUse" x1="-278.6229" y1="149.7355" x2="-107.122" y2="321.2364" gradientTransform="matrix(0.9992 -4.120000e-02 4.120000e-02 0.9992 280.4327 -129.6346)">
			<stop  offset="0" style="stop-color:#8D72D1"/>
			<stop  offset="0.16" style="stop-color:#8066BF"/>
			<stop  offset="0.4841" style="stop-color:#60468E"/>
			<stop  offset="0.9393" style="stop-color:#2C1240"/>
			<stop  offset="1" style="stop-color:#250B35"/>
		</linearGradient>
		<path style="fill:url(#SVGID_00000176032527233942338960000001255818141335156882_);" d="M119,172.2c-0.9,0-1.8-0.4-2.4-1.3
			c-0.9-1.3-0.6-3.2,0.8-4.1c14.8-10.2,24.2-25.7,26.7-43.8c0.2-1.6,1.7-2.7,3.3-2.5c1.6,0.2,2.7,1.7,2.5,3.3
			c-2.7,19.7-13,36.7-29.2,47.8C120.2,172,119.6,172.2,119,172.2z"/>
		
			<linearGradient id="SVGID_00000150802631836763553750000013707263441523355037_" gradientUnits="userSpaceOnUse" x1="-7.2659" y1="-20.2704" x2="164.2613" y2="151.2568">
			<stop  offset="0" style="stop-color:#8D72D1"/>
			<stop  offset="0.16" style="stop-color:#8066BF"/>
			<stop  offset="0.4841" style="stop-color:#60468E"/>
			<stop  offset="0.9393" style="stop-color:#2C1240"/>
			<stop  offset="1" style="stop-color:#250B35"/>
		</linearGradient>
		<path style="fill:url(#SVGID_00000150802631836763553750000013707263441523355037_);" d="M90.2,101.9c-0.5,0-0.9-0.1-1.4-0.3
			c-1.4-0.7-2-2.5-1.2-3.9c4.6-8.8,13.7-14.3,23.7-14.3c6.7,0,13,2.5,18,6.9c1.2,1.1,1.3,2.9,0.2,4.1c-1.1,1.2-2.9,1.3-4.1,0.2
			c-3.8-3.5-8.8-5.4-14-5.4c-7.8,0-14.9,4.3-18.5,11.2C92.3,101.4,91.3,101.9,90.2,101.9z"/>
		
			<linearGradient id="SVGID_00000078028998144521028080000006913995831283628948_" gradientUnits="userSpaceOnUse" x1="452.8614" y1="-324.8532" x2="624.3943" y2="-153.3203" gradientTransform="matrix(0.9968 7.930000e-02 -7.930000e-02 0.9968 -564.6533 205.8249)">
			<stop  offset="0" style="stop-color:#8D72D1"/>
			<stop  offset="0.16" style="stop-color:#8066BF"/>
			<stop  offset="0.4841" style="stop-color:#60468E"/>
			<stop  offset="0.9393" style="stop-color:#2C1240"/>
			<stop  offset="1" style="stop-color:#250B35"/>
		</linearGradient>
		<path style="fill:url(#SVGID_00000078028998144521028080000006913995831283628948_);" d="M91.3,141.2c-1.6,0-2.9-1.3-2.9-2.9
			c0-8.4-1.2-16.7-3.4-24.7c-0.4-1.6,0.5-3.2,2-3.6c1.6-0.4,3.2,0.5,3.6,2c2.4,8.5,3.6,17.4,3.6,26.3
			C94.2,139.9,92.9,141.2,91.3,141.2C91.3,141.2,91.3,141.2,91.3,141.2z"/>
		
			<linearGradient id="SVGID_00000023253718979258393710000015655461082176945343_" gradientUnits="userSpaceOnUse" x1="-508.381" y1="284.0098" x2="-336.8449" y2="455.5459" gradientTransform="matrix(0.9973 -7.280000e-02 7.280000e-02 0.9973 499.3012 -228.7193)">
			<stop  offset="0" style="stop-color:#8D72D1"/>
			<stop  offset="0.16" style="stop-color:#8066BF"/>
			<stop  offset="0.4841" style="stop-color:#60468E"/>
			<stop  offset="0.9393" style="stop-color:#2C1240"/>
			<stop  offset="1" style="stop-color:#250B35"/>
		</linearGradient>
		<path style="fill:url(#SVGID_00000023253718979258393710000015655461082176945343_);" d="M85.7,166.1c-0.4,0-0.8-0.1-1.2-0.3
			c-1.5-0.7-2.1-2.4-1.5-3.9c1.9-4.2,3.3-8.7,4-13.2c0.3-1.6,1.8-2.7,3.4-2.4c1.6,0.3,2.7,1.8,2.4,3.4c-0.8,5.1-2.3,10-4.5,14.7
			C87.9,165.5,86.8,166.1,85.7,166.1z"/>
		
			<linearGradient id="SVGID_00000090973731187569745100000003105672926619909269_" gradientUnits="userSpaceOnUse" x1="384.1774" y1="-281.7067" x2="555.7083" y2="-110.1759" gradientTransform="matrix(0.998 6.300000e-02 -6.300000e-02 0.998 -447.4781 164.5232)">
			<stop  offset="0" style="stop-color:#8D72D1"/>
			<stop  offset="0.16" style="stop-color:#8066BF"/>
			<stop  offset="0.4841" style="stop-color:#60468E"/>
			<stop  offset="0.9393" style="stop-color:#2C1240"/>
			<stop  offset="1" style="stop-color:#250B35"/>
		</linearGradient>
		<path style="fill:url(#SVGID_00000090973731187569745100000003105672926619909269_);" d="M137.5,128.1c-0.1,0-0.1,0-0.2,0
			c-1.6-0.1-2.8-1.5-2.7-3.1c0.4-6.9-0.5-13.7-2.8-20.1c-0.5-1.5,0.3-3.2,1.8-3.7c1.5-0.5,3.2,0.3,3.7,1.8
			c2.5,7.2,3.6,14.7,3.1,22.4C140.3,126.9,139,128.1,137.5,128.1z"/>
		
			<linearGradient id="SVGID_00000007388267101730289630000015100239233796244670_" gradientUnits="userSpaceOnUse" x1="-45.9203" y1="18.3796" x2="125.6098" y2="189.9097">
			<stop  offset="0" style="stop-color:#8D72D1"/>
			<stop  offset="0.16" style="stop-color:#8066BF"/>
			<stop  offset="0.4841" style="stop-color:#60468E"/>
			<stop  offset="0.9393" style="stop-color:#2C1240"/>
			<stop  offset="1" style="stop-color:#250B35"/>
		</linearGradient>
		<path style="fill:url(#SVGID_00000007388267101730289630000015100239233796244670_);" d="M96,170c-0.4,0-0.8-0.1-1.2-0.3
			c-1.5-0.7-2.1-2.4-1.5-3.9c1.4-3.1,2.5-6.3,3.5-9.5c0.4-1.6,2.1-2.4,3.6-2c1.6,0.4,2.4,2.1,2,3.6c-1,3.5-2.3,7-3.8,10.3
			C98.2,169.4,97.1,170,96,170z"/>
		
			<linearGradient id="SVGID_00000119819890624694796730000017537274139697554845_" gradientUnits="userSpaceOnUse" x1="-431.1038" y1="234.1816" x2="-259.5712" y2="405.7142" gradientTransform="matrix(0.998 -6.320000e-02 6.320000e-02 0.998 435.8148 -195.1337)">
			<stop  offset="0" style="stop-color:#8D72D1"/>
			<stop  offset="0.16" style="stop-color:#8066BF"/>
			<stop  offset="0.4841" style="stop-color:#60468E"/>
			<stop  offset="0.9393" style="stop-color:#2C1240"/>
			<stop  offset="1" style="stop-color:#250B35"/>
		</linearGradient>
		<path style="fill:url(#SVGID_00000119819890624694796730000017537274139697554845_);" d="M101.5,150.9c-0.1,0-0.3,0-0.4,0
			c-1.6-0.2-2.7-1.7-2.5-3.3c0.7-4.6,0.9-9.3,0.6-13.9c-0.1-2.2-0.4-4.5-0.8-6.6c-0.3-1.6,0.8-3.1,2.4-3.4c1.6-0.3,3.1,0.8,3.4,2.4
			c0.4,2.4,0.7,4.8,0.8,7.2c0.3,5.1,0.1,10.2-0.7,15.2C104.2,149.9,103,150.9,101.5,150.9z"/>
		
			<linearGradient id="SVGID_00000154404057664916760020000005152612553733154946_" gradientUnits="userSpaceOnUse" x1="-12.1452" y1="-15.3935" x2="159.3837" y2="156.1354">
			<stop  offset="0" style="stop-color:#8D72D1"/>
			<stop  offset="0.16" style="stop-color:#8066BF"/>
			<stop  offset="0.4841" style="stop-color:#60468E"/>
			<stop  offset="0.9393" style="stop-color:#2C1240"/>
			<stop  offset="1" style="stop-color:#250B35"/>
		</linearGradient>
		<path style="fill:url(#SVGID_00000154404057664916760020000005152612553733154946_);" d="M127.2,131.8c-1.6,0-2.9-1.3-2.9-2.9
			c0-9.8-2.7-28.4-13.1-28.4c-5.2,0-9.5,4.3-9.5,9.5c0,0.2,0,0.4,0,0.5c0.1,1.6-1.1,3-2.8,3.1c-1.6,0.1-3-1.1-3.1-2.8
			c0-0.3,0-0.6,0-0.9c0-8.5,6.9-15.3,15.3-15.3c14,0,18.9,18.4,18.9,34.2C130.2,130.5,128.9,131.8,127.2,131.8z"/>
		
			<linearGradient id="SVGID_00000119101465119036852940000001498917190203278750_" gradientUnits="userSpaceOnUse" x1="-25.2662" y1="-2.28" x2="146.2658" y2="169.252">
			<stop  offset="0" style="stop-color:#8D72D1"/>
			<stop  offset="0.16" style="stop-color:#8066BF"/>
			<stop  offset="0.4841" style="stop-color:#60468E"/>
			<stop  offset="0.9393" style="stop-color:#2C1240"/>
			<stop  offset="1" style="stop-color:#250B35"/>
		</linearGradient>
		<path style="fill:url(#SVGID_00000119101465119036852940000001498917190203278750_);" d="M121.7,158.2c-0.4,0-0.8-0.1-1.2-0.3
			c-1.5-0.7-2.1-2.4-1.5-3.9c2.2-5,3.8-10.2,4.6-15.6c0.2-1.6,1.7-2.7,3.3-2.4c1.6,0.2,2.7,1.7,2.4,3.3c-0.9,5.9-2.6,11.7-5,17.1
			C123.9,157.5,122.8,158.2,121.7,158.2z"/>
	</g>
</g>
</svg>
