<svg width="24" height="25" viewBox="0 0 24 25" fill="none" xmlns="http://www.w3.org/2000/svg">
<g clip-path="url(#clip0_716_1323)">
<path d="M12 2.85918C15.2063 2.85918 15.5859 2.87324 16.8469 2.92949C18.0188 2.98105 18.6516 3.17793 19.0734 3.34199C19.6313 3.55762 20.0344 3.82012 20.4516 4.2373C20.8734 4.65918 21.1313 5.05762 21.3469 5.61543C21.5109 6.0373 21.7078 6.6748 21.7594 7.84199C21.8156 9.10762 21.8297 9.4873 21.8297 12.6889C21.8297 15.8951 21.8156 16.2748 21.7594 17.5357C21.7078 18.7076 21.5109 19.3404 21.3469 19.7623C21.1313 20.3201 20.8688 20.7232 20.4516 21.1404C20.0297 21.5623 19.6313 21.8201 19.0734 22.0357C18.6516 22.1998 18.0141 22.3967 16.8469 22.4482C15.5813 22.5045 15.2016 22.5186 12 22.5186C8.79375 22.5186 8.41406 22.5045 7.15313 22.4482C5.98125 22.3967 5.34844 22.1998 4.92656 22.0357C4.36875 21.8201 3.96563 21.5576 3.54844 21.1404C3.12656 20.7186 2.86875 20.3201 2.65313 19.7623C2.48906 19.3404 2.29219 18.7029 2.24063 17.5357C2.18438 16.2701 2.17031 15.8904 2.17031 12.6889C2.17031 9.48262 2.18438 9.10293 2.24063 7.84199C2.29219 6.67012 2.48906 6.0373 2.65313 5.61543C2.86875 5.05762 3.13125 4.65449 3.54844 4.2373C3.97031 3.81543 4.36875 3.55762 4.92656 3.34199C5.34844 3.17793 5.98594 2.98105 7.15313 2.92949C8.41406 2.87324 8.79375 2.85918 12 2.85918ZM12 0.698242C8.74219 0.698242 8.33438 0.712305 7.05469 0.768555C5.77969 0.824805 4.90313 1.03105 4.14375 1.32637C3.35156 1.63574 2.68125 2.04355 2.01563 2.71387C1.34531 3.37949 0.9375 4.04981 0.628125 4.83731C0.332812 5.60137 0.126563 6.47324 0.0703125 7.74824C0.0140625 9.03262 0 9.44043 0 12.6982C0 15.9561 0.0140625 16.3639 0.0703125 17.6436C0.126563 18.9186 0.332812 19.7951 0.628125 20.5545C0.9375 21.3467 1.34531 22.017 2.01563 22.6826C2.68125 23.3482 3.35156 23.7607 4.13906 24.0654C4.90313 24.3607 5.775 24.567 7.05 24.6232C8.32969 24.6795 8.7375 24.6936 11.9953 24.6936C15.2531 24.6936 15.6609 24.6795 16.9406 24.6232C18.2156 24.567 19.0922 24.3607 19.8516 24.0654C20.6391 23.7607 21.3094 23.3482 21.975 22.6826C22.6406 22.017 23.0531 21.3467 23.3578 20.5592C23.6531 19.7951 23.8594 18.9232 23.9156 17.6482C23.9719 16.3686 23.9859 15.9607 23.9859 12.7029C23.9859 9.44512 23.9719 9.0373 23.9156 7.75762C23.8594 6.48262 23.6531 5.60605 23.3578 4.84668C23.0625 4.0498 22.6547 3.37949 21.9844 2.71387C21.3188 2.04824 20.6484 1.63574 19.8609 1.33105C19.0969 1.03574 18.225 0.829492 16.95 0.773242C15.6656 0.712305 15.2578 0.698242 12 0.698242Z" fill="#D01CED"/>
<path d="M12 6.53418C8.59688 6.53418 5.83594 9.29512 5.83594 12.6982C5.83594 16.1014 8.59688 18.8623 12 18.8623C15.4031 18.8623 18.1641 16.1014 18.1641 12.6982C18.1641 9.29512 15.4031 6.53418 12 6.53418ZM12 16.6967C9.79219 16.6967 8.00156 14.9061 8.00156 12.6982C8.00156 10.4904 9.79219 8.6998 12 8.6998C14.2078 8.6998 15.9984 10.4904 15.9984 12.6982C15.9984 14.9061 14.2078 16.6967 12 16.6967Z" fill="#D01CED"/>
<path d="M19.8469 6.29063C19.8469 7.0875 19.2 7.72969 18.4078 7.72969C17.6109 7.72969 16.9688 7.08282 16.9688 6.29063C16.9688 5.49375 17.6156 4.85156 18.4078 4.85156C19.2 4.85156 19.8469 5.49844 19.8469 6.29063Z" fill="#D01CED"/>
</g>
<defs>
<clipPath id="clip0_716_1323">
<rect width="24" height="24" fill="white" transform="translate(0 0.698242)"/>
</clipPath>
</defs>
</svg>
