<svg width="24" height="25" viewBox="0 0 24 25" fill="none" xmlns="http://www.w3.org/2000/svg">
<g clip-path="url(#clip0_716_1447)">
<path d="M22.2234 0.698242H1.77187C0.792187 0.698242 0 1.47168 0 2.42793V22.9639C0 23.9201 0.792187 24.6982 1.77187 24.6982H22.2234C23.2031 24.6982 24 23.9201 24 22.9686V2.42793C24 1.47168 23.2031 0.698242 22.2234 0.698242ZM7.12031 21.1498H3.55781V9.69355H7.12031V21.1498ZM5.33906 8.13262C4.19531 8.13262 3.27188 7.20918 3.27188 6.07012C3.27188 4.93105 4.19531 4.00762 5.33906 4.00762C6.47813 4.00762 7.40156 4.93105 7.40156 6.07012C7.40156 7.20449 6.47813 8.13262 5.33906 8.13262ZM20.4516 21.1498H16.8937V15.5811C16.8937 14.2545 16.8703 12.5436 15.0422 12.5436C13.1906 12.5436 12.9094 13.992 12.9094 15.4873V21.1498H9.35625V9.69355H12.7687V11.2592H12.8156C13.2891 10.3592 14.4516 9.40762 16.1813 9.40762C19.7859 9.40762 20.4516 11.7795 20.4516 14.8639V21.1498V21.1498Z" fill="#3E3E3E"/>
</g>
<defs>
<clipPath id="clip0_716_1447">
<rect width="24" height="24" fill="white" transform="translate(0 0.698242)"/>
</clipPath>
</defs>
</svg>
