<svg width="67" height="46" viewBox="0 0 67 46" fill="none" xmlns="http://www.w3.org/2000/svg">
<path d="M53.1334 29.7149C52.1484 29.5644 51.2722 29.2632 51.1876 29.185C51.1756 29.1789 51.23 29.1428 51.2964 28.9621C52.0518 26.9387 52.3901 24.9935 52.3962 22.6448C52.4022 19.1038 51.4958 15.8578 49.6589 12.8287C48.257 10.5161 46.0091 8.26384 43.586 6.75227C41.9544 5.73452 39.8093 4.85528 37.924 4.43373C36.3166 4.07239 35.7003 4.01217 33.676 4.01819C32.0626 4.01819 31.6879 4.04228 30.987 4.15068C28.7572 4.50599 27.1257 5.01788 25.3371 5.91519C23.4034 6.88476 21.9773 7.90251 20.4183 9.43817L19.6086 10.2391L18.6055 9.79348C17.7716 9.52248 17.6629 9.48033 16.3939 9.17922C16.0313 9.09491 15.5963 9.07082 15.5902 9.06479C15.5358 9.01662 16.557 7.8182 17.4574 6.86067C17.9771 6.30663 19.2823 5.17446 20.0678 4.5903C21.0709 3.83753 21.5846 3.50028 22.497 2.98238C27.023 0.404876 32.3345 -0.552653 37.362 0.308521C40.6069 0.862563 43.308 1.91645 46.0876 3.71708C51.091 6.95703 54.6924 12.2084 55.8889 18.0078C56.2756 19.8746 56.336 20.4949 56.33 22.675C56.33 24.8068 56.2816 25.3067 55.913 27.1916C55.7257 28.1431 55.2242 29.6185 55.2242 29.6185C55.2242 29.6185 55.055 29.751 54.2815 29.7751C53.8162 29.7872 53.3026 29.7269 53.1334 29.7149Z" fill="url(#paint0_linear_634_1891)"/>
<path d="M32.4979 45.1619C25.5307 44.7886 19.2221 41.2836 15.101 35.5023C13.3244 33.0091 11.9588 29.7632 11.4089 26.74C10.8832 23.8373 10.9195 20.6757 11.5056 17.9476C11.5902 17.5622 11.7292 17.0323 12.0857 15.7013C12.1219 15.5749 12.2005 15.4123 12.2005 15.4123C12.418 15.3761 12.702 15.334 13.0344 15.3159C13.4151 15.2979 13.7233 15.3159 14.1281 15.3521C15.4213 15.4725 16.2551 15.8278 16.2551 15.8278C16.2551 15.8278 16.1585 16.1169 16.0618 16.418C15.5179 18.0078 15.2098 19.3869 15.0949 20.766C14.9741 22.1933 14.956 22.8376 15.0285 23.7711C15.24 26.5232 15.7778 28.5346 16.938 30.8893C19.494 36.0684 24.1771 39.6817 29.8995 40.8922C31.4646 41.2174 34.0146 41.3439 35.5675 41.1632C38.7339 40.8019 41.2114 39.9527 43.7373 38.3689C44.9941 37.58 46.0093 36.7549 47.1453 35.5987L47.804 34.9302L48.8373 35.3217C49.9008 35.6589 50.7528 35.8215 51.5142 35.954L51.9493 36.0323L51.7257 36.3093C50.8374 37.4174 49.1032 39.206 48.2088 39.9407C45.9307 41.8015 43.3445 43.2288 40.6253 44.1141C38.9998 44.644 36.8244 45.0656 35.3077 45.1378C33.7185 45.2101 33.3982 45.2161 32.4979 45.1619Z" fill="url(#paint1_linear_634_1891)"/>
<path d="M53.194 34.864C52.064 34.7977 50.8313 34.5689 49.6711 34.2015C46.7042 33.25 43.4714 31.7144 40.021 29.6006C38.5768 28.7213 34.4375 25.927 34.4375 25.8367C34.4375 25.8066 36.2624 24.4335 37.1749 23.7831L37.7308 23.3917L38.3592 23.8313C42.9698 27.0652 47.1272 29.2693 50.6319 30.3533C52.1486 30.817 53.1638 30.9616 54.04 30.9796C54.9947 30.9977 55.46 30.8532 56.0945 30.6906C58.8077 29.998 60.9528 28.3058 62.1614 25.915C62.4635 25.3128 62.675 24.6804 62.8382 23.9096C63.0013 23.1448 63.0134 21.6994 62.8684 20.9286C62.3124 18.0018 60.2458 15.6833 57.3333 14.7257C57.0493 14.6294 56.6746 14.527 56.4994 14.4909L56.1791 14.4246L55.7682 13.431C55.2908 12.2687 55.1096 11.8833 54.6141 11.004C54.4146 10.6427 54.2515 10.3416 54.2515 10.3235C54.2515 10.2693 55.17 10.3054 55.9011 10.3898C59.7201 10.8354 62.9711 12.8348 65.0739 16.0386C65.9501 17.3755 66.5725 18.9232 66.8505 20.4769C67.1526 22.1571 66.9895 24.2589 66.4275 25.9391C65.5332 28.6009 63.6297 31.0338 61.116 32.7201C60.5721 33.0814 59.1038 33.8583 58.7593 33.9667C58.6566 33.9968 58.3545 34.0991 58.0886 34.1955C56.6927 34.7074 54.892 34.9543 53.194 34.864ZM13.1008 34.8278C13.1008 34.8278 12.9256 34.5629 12.7866 34.3159C12.4422 33.7197 11.8681 32.443 11.4995 31.5638C11.3303 31.1483 11.2095 30.793 11.1611 30.7689C11.1128 30.7448 10.8167 30.6665 10.5025 30.5942C7.46906 29.9017 5.11242 27.7036 4.31479 24.8189C4.06099 23.9036 4.01265 23.5001 4.01869 22.4643C4.02474 21.0129 4.24832 20.1216 4.91301 18.869C5.28161 18.1704 5.73482 17.5923 6.46598 16.8937C7.26966 16.1169 7.98269 15.617 8.96161 15.1473C10.3212 14.4909 11.3424 14.2259 12.7081 14.1717C14.3215 14.1115 15.4273 14.2801 17.1132 14.8402C19.216 15.5387 21.5123 16.7612 24.5819 18.8208C25.7482 19.6037 26.5216 20.1457 28.6426 21.6693L28.9991 21.9223L29.1683 21.8078C29.259 21.7416 29.7968 21.3441 30.3708 20.9166C30.9388 20.495 31.5975 20.0132 31.8271 19.8446C32.0628 19.682 32.2441 19.5254 32.238 19.5013C32.232 19.4833 31.7486 19.1159 31.1685 18.6883C27.1622 15.7375 24.1166 13.7742 21.47 12.4373C20.0922 11.7387 19.5423 11.5039 18.358 11.0944C17.2461 10.7089 17.2159 10.7029 15.959 10.4199C14.7928 10.1549 12.841 10.0826 11.56 10.2633C10.0009 10.4801 8.70781 10.8956 7.20923 11.6544C6.20614 12.1543 5.79524 12.4072 5.1245 12.907C2.56241 14.8341 0.834201 17.3755 0.260146 20.0614C-0.0782439 21.6212 -0.0842866 23.0725 0.229933 24.7226C0.56228 26.475 1.08195 27.7457 2.06086 29.2091C4.01265 32.1299 6.99774 34.0269 10.6233 34.6592C10.9376 34.7194 11.5237 34.7797 11.9225 34.8037C12.5812 34.8399 13.1008 34.8519 13.1008 34.8278ZM20.0258 33.4247C20.0862 33.4247 21.1557 32.961 21.7721 32.6719C24.6242 31.3109 27.6335 29.3597 32.7396 25.5717C37.6341 21.9403 37.6764 21.9102 38.6614 21.2237C42.7402 18.3752 45.7555 16.6709 48.662 15.5688C49.0548 15.4183 49.4294 15.2979 49.4838 15.2979C49.5624 15.2979 49.514 15.1593 49.2482 14.6475C48.8252 13.8284 48.4384 13.2021 47.8704 12.4253L47.4172 11.811L47.1634 11.9254C47.0245 11.9856 46.5531 12.1904 46.118 12.3711C42.3535 13.9429 37.9423 16.7492 31.0174 21.9825C28.7453 23.6988 28.0806 24.1926 26.9084 25.0297C23.8085 27.2399 21.0349 28.8899 18.6843 29.8113L18.074 30.0583L18.1948 30.3654C18.5332 31.064 19.1677 32.3226 19.7659 33.1115C19.8989 33.2801 20.0137 33.4247 20.0258 33.4247Z" fill="url(#paint2_linear_634_1891)"/>
<defs>
<linearGradient id="paint0_linear_634_1891" x1="35.9592" y1="0" x2="35.9592" y2="29.7767" gradientUnits="userSpaceOnUse">
<stop offset="0.148958" stop-color="#3F1A93"/>
</linearGradient>
<linearGradient id="paint1_linear_634_1891" x1="31.494" y1="15.3088" x2="31.494" y2="45.198" gradientUnits="userSpaceOnUse">
<stop offset="0.148958" stop-color="#3F1A93"/>
</linearGradient>
<linearGradient id="paint2_linear_634_1891" x1="0.000310936" y1="22.5233" x2="67.0003" y2="22.5233" gradientUnits="userSpaceOnUse">
<stop stop-color="#643DFF"/>
<stop offset="0.22" stop-color="#8400FF"/>
<stop offset="0.78" stop-color="#B200DE"/>
<stop offset="1" stop-color="#CA4BE3"/>
</linearGradient>
</defs>
</svg>
