<svg width="24" height="25" viewBox="0 0 24 25" fill="none" xmlns="http://www.w3.org/2000/svg">
<g clip-path="url(#clip0_716_997)">
<path fill-rule="evenodd" clip-rule="evenodd" d="M24 12.6982C24 19.3257 18.6274 24.6982 12 24.6982C5.37258 24.6982 0 19.3257 0 12.6982C0 6.07083 5.37258 0.698242 12 0.698242C18.6274 0.698242 24 6.07083 24 12.6982ZM12.43 9.55717C11.2628 10.0426 8.93014 11.0474 5.43189 12.5716C4.86383 12.7975 4.56626 13.0185 4.53917 13.2345C4.49339 13.5997 4.95071 13.7435 5.57347 13.9394C5.65818 13.966 5.74595 13.9936 5.83594 14.0229C6.44864 14.222 7.27283 14.455 7.70129 14.4643C8.08994 14.4727 8.52373 14.3124 9.00264 13.9836C12.2712 11.7772 13.9584 10.6621 14.0643 10.638C14.139 10.621 14.2426 10.5997 14.3128 10.6621C14.3829 10.7245 14.376 10.8426 14.3686 10.8742C14.3233 11.0674 12.5281 12.7363 11.5991 13.6C11.3095 13.8693 11.1041 14.0603 11.0621 14.1039C10.968 14.2016 10.8721 14.294 10.78 14.3828C10.2108 14.9316 9.78391 15.3431 10.8036 16.015C11.2936 16.338 11.6858 16.605 12.077 16.8714C12.5042 17.1623 12.9303 17.4525 13.4816 17.8139C13.6221 17.906 13.7562 18.0016 13.8869 18.0948C14.3841 18.4492 14.8307 18.7677 15.3826 18.7169C15.7032 18.6874 16.0345 18.3859 16.2027 17.4866C16.6002 15.3614 17.3816 10.7567 17.5622 8.85922C17.578 8.69297 17.5581 8.48021 17.5422 8.38682C17.5262 8.29342 17.4928 8.16035 17.3714 8.06184C17.2276 7.94518 17.0056 7.92058 16.9064 7.92233C16.455 7.93028 15.7626 8.17106 12.43 9.55717Z" fill="#2A7AD8"/>
</g>
<defs>
<clipPath id="clip0_716_997">
<rect width="24" height="24" fill="white" transform="translate(0 0.698242)"/>
</clipPath>
</defs>
</svg>
